{
.appVersion = "939";
copyright = "Copyright 2016 Google Inc. All Rights Reserved.";
customParameters = (
{
name = glyphOrder;
value = (
.notdef,
NULL,
CR,
space,
uni0531,
uni0532,
uni0533,
uni0534,
uni0535,
uni0536,
uni0537,
uni0538,
uni0539,
uni053A,
uni053B,
uni053C,
uni053D,
uni053E,
uni053F,
uni0540,
uni0541,
uni0542,
uni0543,
uni0544,
uni0545,
uni0546,
uni0547,
uni0548,
uni0549,
uni054A,
uni054B,
uni054C,
uni054D,
uni054E,
uni054F,
uni0550,
uni0551,
uni0552,
uni0553,
uni0554,
uni0555,
uni0556,
uni0559,
uni055A,
uni055B,
uni055C,
uni055D,
uni055E,
uni055F,
uni0561,
uni0562,
uni0563,
uni0564,
uni0565,
uni0566,
uni0567,
uni0568,
uni0569,
uni056A,
uni056B,
uni056C,
uni056D,
uni056E,
uni056F,
uni0570,
uni0571,
uni0572,
uni0573,
uni0574,
uni0575,
uni0576,
uni0577,
uni0578,
uni0579,
uni057A,
uni057B,
uni057C,
uni057D,
uni057E,
uni057F,
uni0580,
uni0581,
uni0582,
uni0583,
uni0584,
uni0585,
uni0586,
uni0587,
uni0589,
uni058A,
uniFB13,
uniFB14,
uniFB15,
uniFB16,
uniFB17,
uni058F,
uni0548_uni0552,
uni0578_uni0582,
uniFEFF
);
},
{
name = description;
value = "Designed by Monotype design team.";
},
{
name = vendorID;
value = GOOG;
},
{
name = fsType;
value = (
);
},
{
name = licenseURL;
value = "http://scripts.sil.org/OFL";
},
{
name = trademark;
value = "Noto is a trademark of Google Inc.";
},
{
name = license;
value = "This Font Software is licensed under the SIL Open Font License, Version 1.1. This Font Software is distributed on an \"AS IS\" BASIS, WITHOUT WARRANTIES OR CONDITIONS OF ANY KIND, either express or implied. See the SIL Open Font License for the specific language, permissions and limitations governing your use of this Font Software.";
},
{
name = versionString;
value = "Version 1.901";
},
{
name = "Has WWS Names";
value = 1;
},
{
name = unicodeRanges;
value = (
0,
1,
10,
31,
62
);
}
);
date = "2016-12-02 00:51:46 +0000";
designer = "Monotype Design Team";
designerURL = "http://www.monotype.com/studio";
disablesAutomaticAlignment = 1;

glyphs = (
{
glyphname = .notdef;
lastChange = "2016-06-23 14:14:42 +0000";
layers = (
{
layerId = "84BA7A8F-8561-401A-9117-1E5C8963A832";
paths = (
{
closed = 1;
nodes = (
"449 0 LINE",
"449 714 LINE",
"50 714 LINE",
"50 0 LINE"
);
},
{
closed = 1;
nodes = (
"97 666 LINE",
"402 666 LINE",
"402 48 LINE",
"97 48 LINE"
);
}
);
width = 553;
},
{
layerId = "505CC2C5-1E9F-4C44-A700-7A06363E8A84";
paths = (
{
closed = 1;
nodes = (
"453 0 LINE",
"453 714 LINE",
"52 714 LINE",
"52 0 LINE"
);
},
{
closed = 1;
nodes = (
"101 666 LINE",
"404 666 LINE",
"404 48 LINE",
"101 48 LINE"
);
}
);
width = 600;
},
{
layerId = "4BFBD32C-75C4-41CA-8E17-65E778BAAADA";
paths = (
{
closed = 1;
nodes = (
"455 0 LINE",
"455 714 LINE",
"53 714 LINE",
"53 0 LINE"
);
},
{
closed = 1;
nodes = (
"103 666 LINE",
"405 666 LINE",
"405 48 LINE",
"103 48 LINE"
);
}
);
width = 629;
},
{
layerId = "F2BD3FAB-8356-49CF-A55B-3E49BBA3F552";
paths = (
{
closed = 1;
nodes = (
"450 0 LINE",
"450 714 LINE",
"50 714 LINE",
"50 0 LINE"
);
},
{
closed = 1;
nodes = (
"98 666 LINE",
"402 666 LINE",
"402 48 LINE",
"98 48 LINE"
);
}
);
width = 554;
},
{
layerId = "75A83886-EED5-4C31-9670-660514D8A4F6";
paths = (
{
closed = 1;
nodes = (
"449 0 LINE",
"449 714 LINE",
"50 714 LINE",
"50 0 LINE"
);
},
{
closed = 1;
nodes = (
"97 666 LINE",
"402 666 LINE",
"402 48 LINE",
"97 48 LINE"
);
}
);
width = 499;
},
{
layerId = "E7C4F5EE-4982-479C-BF20-1C8706EFFC5D";
paths = (
{
closed = 1;
nodes = (
"449 0 LINE",
"449 714 LINE",
"50 714 LINE",
"50 0 LINE"
);
},
{
closed = 1;
nodes = (
"97 666 LINE",
"402 666 LINE",
"402 48 LINE",
"97 48 LINE"
);
}
);
width = 499;
},
{
layerId = "5E7C5774-385D-4E06-B68E-CBE970134A7B";
paths = (
{
closed = 1;
nodes = (
"449 0 LINE",
"449 714 LINE",
"50 714 LINE",
"50 0 LINE"
);
},
{
closed = 1;
nodes = (
"97 666 LINE",
"402 666 LINE",
"402 48 LINE",
"97 48 LINE"
);
}
);
width = 553;
},
{
layerId = "C91144B6-58F5-45F2-9CE4-7ED6CE127FD4";
paths = (
{
closed = 1;
nodes = (
"449 0 LINE",
"449 714 LINE",
"50 714 LINE",
"50 0 LINE"
);
},
{
closed = 1;
nodes = (
"97 666 LINE",
"402 666 LINE",
"402 48 LINE",
"97 48 LINE"
);
}
);
width = 499;
},
{
layerId = "464843EB-0DE3-43AD-A7A6-94A12FE2EFF4";
paths = (
{
closed = 1;
nodes = (
"449 0 LINE",
"449 714 LINE",
"50 714 LINE",
"50 0 LINE"
);
},
{
closed = 1;
nodes = (
"97 666 LINE",
"402 666 LINE",
"402 48 LINE",
"97 48 LINE"
);
}
);
width = 499;
}
);
note = .notdef;
},
{
glyphname = uni0531;
lastChange = "2016-06-23 14:14:42 +0000";
layers = (
{
layerId = "84BA7A8F-8561-401A-9117-1E5C8963A832";
paths = (
{
closed = 1;
nodes = (
"464 694 LINE",
"514 694 OFFCURVE",
"520 683 OFFCURVE",
"520 606 CURVE SMOOTH",
"520 219 LINE SMOOTH",
"520 106 OFFCURVE",
"458 15 OFFCURVE",
"317 15 CURVE SMOOTH",
"193 15 OFFCURVE",
"117 76 OFFCURVE",
"117 210 CURVE SMOOTH",
"117 714 LINE",
"33 714 LINE",
"33 694 LINE",
"83 694 OFFCURVE",
"89 683 OFFCURVE",
"89 606 CURVE SMOOTH",
"89 214 LINE SMOOTH",
"89 51 OFFCURVE",
"181 -10 OFFCURVE",
"319 -10 CURVE SMOOTH",
"474 -10 OFFCURVE",
"548 88 OFFCURVE",
"548 218 CURVE SMOOTH",
"548 714 LINE",
"464 714 LINE"
);
},
{
closed = 1;
nodes = (
"530 190 LINE",
"546 197 OFFCURVE",
"565 200 OFFCURVE",
"590 200 CURVE SMOOTH",
"635 200 OFFCURVE",
"661 176 OFFCURVE",
"661 116 CURVE SMOOTH",
"661 0 LINE",
"689 0 LINE",
"689 115 LINE SMOOTH",
"689 201 OFFCURVE",
"650 225 OFFCURVE",
"590 225 CURVE SMOOTH",
"566 225 OFFCURVE",
"547 222 OFFCURVE",
"530 217 CURVE"
);
}
);
width = 707;
},
{
layerId = "505CC2C5-1E9F-4C44-A700-7A06363E8A84";
paths = (
{
closed = 1;
nodes = (
"458 663 LINE",
"497 663 OFFCURVE",
"503 653 OFFCURVE",
"503 600 CURVE SMOOTH",
"503 198 LINE SMOOTH",
"503 106 OFFCURVE",
"459 55 OFFCURVE",
"381 55 CURVE SMOOTH",
"302 55 OFFCURVE",
"258 105 OFFCURVE",
"258 198 CURVE SMOOTH",
"258 714 LINE",
"54 714 LINE",
"54 663 LINE",
"93 663 OFFCURVE",
"100 653 OFFCURVE",
"100 600 CURVE SMOOTH",
"100 223 LINE SMOOTH",
"100 74 OFFCURVE",
"203 -10 OFFCURVE",
"381 -10 CURVE SMOOTH",
"558 -10 OFFCURVE",
"661 73 OFFCURVE",
"661 223 CURVE SMOOTH",
"661 714 LINE",
"458 714 LINE"
);
},
{
closed = 1;
nodes = (
"644 188 LINE",
"650 190 OFFCURVE",
"668 192 OFFCURVE",
"675 192 CURVE SMOOTH",
"724 192 OFFCURVE",
"735 177 OFFCURVE",
"735 87 CURVE SMOOTH",
"735 0 LINE",
"885 0 LINE",
"885 84 LINE SMOOTH",
"885 217 OFFCURVE",
"835 264 OFFCURVE",
"710 264 CURVE SMOOTH",
"689 264 OFFCURVE",
"670 260 OFFCURVE",
"646 257 CURVE"
);
}
);
width = 909;
},
{
layerId = "4BFBD32C-75C4-41CA-8E17-65E778BAAADA";
paths = (
{
closed = 1;
nodes = (
"454 654 LINE",
"489 654 OFFCURVE",
"495 645 OFFCURVE",
"495 598 CURVE SMOOTH",
"495 192 LINE SMOOTH",
"495 106 OFFCURVE",
"456 66 OFFCURVE",
"396 66 CURVE SMOOTH",
"329 66 OFFCURVE",
"294 113 OFFCURVE",
"294 195 CURVE SMOOTH",
"294 714 LINE",
"57 714 LINE",
"57 654 LINE",
"93 654 OFFCURVE",
"100 645 OFFCURVE",
"100 598 CURVE SMOOTH",
"100 225 LINE SMOOTH",
"100 80 OFFCURVE",
"206 -10 OFFCURVE",
"395 -10 CURVE SMOOTH",
"578 -10 OFFCURVE",
"689 69 OFFCURVE",
"689 224 CURVE SMOOTH",
"689 714 LINE",
"454 714 LINE"
);
},
{
closed = 1;
nodes = (
"673 187 LINE",
"676 188 OFFCURVE",
"694 190 OFFCURVE",
"696 190 CURVE SMOOTH",
"746 190 OFFCURVE",
"753 177 OFFCURVE",
"753 79 CURVE SMOOTH",
"753 0 LINE",
"937 0 LINE",
"937 75 LINE SMOOTH",
"937 221 OFFCURVE",
"884 275 OFFCURVE",
"741 275 CURVE SMOOTH",
"720 275 OFFCURVE",
"701 271 OFFCURVE",
"676 268 CURVE"
);
}
);
width = 957;
},
{
layerId = "F2BD3FAB-8356-49CF-A55B-3E49BBA3F552";
paths = (
{
closed = 1;
nodes = (
"466 677 LINE",
"510 677 OFFCURVE",
"516 666 OFFCURVE",
"516 603 CURVE SMOOTH",
"516 207 LINE SMOOTH",
"516 106 OFFCURVE",
"464 37 OFFCURVE",
"358 37 CURVE SMOOTH",
"259 37 OFFCURVE",
"201 92 OFFCURVE",
"201 203 CURVE SMOOTH",
"201 714 LINE",
"50 714 LINE",
"50 677 LINE",
"94 677 OFFCURVE",
"100 666 OFFCURVE",
"100 603 CURVE SMOOTH",
"100 219 LINE SMOOTH",
"100 64 OFFCURVE",
"199 -10 OFFCURVE",
"359 -10 CURVE SMOOTH",
"526 -10 OFFCURVE",
"617 80 OFFCURVE",
"617 221 CURVE SMOOTH",
"617 714 LINE",
"466 714 LINE"
);
},
{
closed = 1;
nodes = (
"599 189 LINE",
"609 193 OFFCURVE",
"628 196 OFFCURVE",
"643 196 CURVE SMOOTH",
"690 196 OFFCURVE",
"708 177 OFFCURVE",
"708 100 CURVE SMOOTH",
"708 0 LINE",
"804 0 LINE",
"804 98 LINE SMOOTH",
"804 210 OFFCURVE",
"759 247 OFFCURVE",
"662 247 CURVE SMOOTH",
"640 247 OFFCURVE",
"621 243 OFFCURVE",
"600 239 CURVE"
);
}
);
width = 833;
},
{
layerId = "75A83886-EED5-4C31-9670-660514D8A4F6";
paths = (
{
closed = 1;
nodes = (
"367 658 LINE",
"397 658 OFFCURVE",
"421 651 OFFCURVE",
"421 599 CURVE SMOOTH",
"421 216 LINE SMOOTH",
"421 111 OFFCURVE",
"388 64 OFFCURVE",
"337 64 CURVE SMOOTH",
"273 64 OFFCURVE",
"247 99 OFFCURVE",
"247 210 CURVE SMOOTH",
"247 714 LINE",
"26 714 LINE",
"26 658 LINE",
"66 658 OFFCURVE",
"80 653 OFFCURVE",
"80 599 CURVE SMOOTH",
"80 218 LINE SMOOTH",
"80 54 OFFCURVE",
"176 -10 OFFCURVE",
"336 -10 CURVE SMOOTH",
"519 -10 OFFCURVE",
"588 80 OFFCURVE",
"588 214 CURVE SMOOTH",
"588 714 LINE",
"367 714 LINE"
);
},
{
closed = 1;
nodes = (
"579 188 LINE",
"584 190 OFFCURVE",
"597 192 OFFCURVE",
"603 192 CURVE SMOOTH",
"641 192 OFFCURVE",
"649 177 OFFCURVE",
"649 87 CURVE SMOOTH",
"649 0 LINE",
"813 0 LINE",
"813 84 LINE SMOOTH",
"813 217 OFFCURVE",
"767 264 OFFCURVE",
"655 264 CURVE SMOOTH",
"620 264 OFFCURVE",
"603 260 OFFCURVE",
"581 257 CURVE"
);
}
);
width = 829;
},
{
layerId = "E7C4F5EE-4982-479C-BF20-1C8706EFFC5D";
paths = (
{
closed = 1;
nodes = (
"358 679 LINE",
"403 679 OFFCURVE",
"413 669 OFFCURVE",
"413 599 CURVE SMOOTH",
"413 206 LINE SMOOTH",
"413 113 OFFCURVE",
"376 37 OFFCURVE",
"280 37 CURVE SMOOTH",
"198 37 OFFCURVE",
"148 80 OFFCURVE",
"148 210 CURVE SMOOTH",
"148 714 LINE",
"33 714 LINE",
"33 679 LINE",
"77 679 OFFCURVE",
"84 669 OFFCURVE",
"84 600 CURVE SMOOTH",
"84 215 LINE SMOOTH",
"84 55 OFFCURVE",
"161 -10 OFFCURVE",
"279 -10 CURVE SMOOTH",
"417 -10 OFFCURVE",
"477 87 OFFCURVE",
"477 204 CURVE SMOOTH",
"477 714 LINE",
"358 714 LINE"
);
},
{
closed = 1;
nodes = (
"470 183 LINE",
"480 189 OFFCURVE",
"495 192 OFFCURVE",
"510 192 CURVE SMOOTH",
"545 192 OFFCURVE",
"562 170 OFFCURVE",
"562 108 CURVE SMOOTH",
"562 0 LINE",
"625 0 LINE",
"625 107 LINE SMOOTH",
"625 205 OFFCURVE",
"591 235 OFFCURVE",
"525 235 CURVE SMOOTH",
"502 235 OFFCURVE",
"487 232 OFFCURVE",
"471 227 CURVE"
);
}
);
width = 643;
},
{
layerId = "5E7C5774-385D-4E06-B68E-CBE970134A7B";
paths = (
{
closed = 1;
nodes = (
"474 686 LINE",
"521 686 OFFCURVE",
"527 675 OFFCURVE",
"527 605 CURVE SMOOTH",
"527 213 LINE SMOOTH",
"527 106 OFFCURVE",
"470 26 OFFCURVE",
"346 26 CURVE SMOOTH",
"234 26 OFFCURVE",
"167 84 OFFCURVE",
"167 207 CURVE SMOOTH",
"167 714 LINE",
"50 714 LINE",
"50 686 LINE",
"97 686 OFFCURVE",
"103 675 OFFCURVE",
"103 605 CURVE SMOOTH",
"103 216 LINE SMOOTH",
"103 57 OFFCURVE",
"198 -10 OFFCURVE",
"347 -10 CURVE SMOOTH",
"508 -10 OFFCURVE",
"591 84 OFFCURVE",
"591 219 CURVE SMOOTH",
"591 714 LINE",
"474 714 LINE"
);
},
{
closed = 1;
nodes = (
"573 190 LINE",
"586 195 OFFCURVE",
"605 198 OFFCURVE",
"625 198 CURVE SMOOTH",
"671 198 OFFCURVE",
"693 176 OFFCURVE",
"693 108 CURVE SMOOTH",
"693 0 LINE",
"755 0 LINE",
"755 107 LINE SMOOTH",
"755 205 OFFCURVE",
"713 236 OFFCURVE",
"634 236 CURVE SMOOTH",
"611 236 OFFCURVE",
"592 232 OFFCURVE",
"573 228 CURVE"
);
}
);
width = 783;
},
{
layerId = "C91144B6-58F5-45F2-9CE4-7ED6CE127FD4";
paths = (
{
closed = 1;
nodes = (
"355 694 LINE",
"405 694 OFFCURVE",
"411 683 OFFCURVE",
"411 607 CURVE SMOOTH",
"411 202 LINE SMOOTH",
"411 114 OFFCURVE",
"372 15 OFFCURVE",
"260 15 CURVE SMOOTH",
"172 15 OFFCURVE",
"114 74 OFFCURVE",
"114 210 CURVE SMOOTH",
"114 714 LINE",
"36 714 LINE",
"36 694 LINE",
"82 694 OFFCURVE",
"86 683 OFFCURVE",
"86 609 CURVE SMOOTH",
"86 214 LINE SMOOTH",
"86 55 OFFCURVE",
"156 -10 OFFCURVE",
"259 -10 CURVE SMOOTH",
"382 -10 OFFCURVE",
"439 89 OFFCURVE",
"439 200 CURVE SMOOTH",
"439 714 LINE",
"355 714 LINE"
);
},
{
closed = 1;
nodes = (
"432 190 LINE",
"444 197 OFFCURVE",
"459 200 OFFCURVE",
"478 200 CURVE SMOOTH",
"512 200 OFFCURVE",
"532 176 OFFCURVE",
"532 116 CURVE SMOOTH",
"532 0 LINE",
"560 0 LINE",
"560 115 LINE SMOOTH",
"560 201 OFFCURVE",
"529 225 OFFCURVE",
"480 225 CURVE SMOOTH",
"461 225 OFFCURVE",
"446 222 OFFCURVE",
"432 217 CURVE"
);
}
);
width = 578;
},
{
layerId = "464843EB-0DE3-43AD-A7A6-94A12FE2EFF4";
paths = (
{
closed = 1;
nodes = (
"363 667 LINE",
"400 667 OFFCURVE",
"418 659 OFFCURVE",
"418 599 CURVE SMOOTH",
"418 212 LINE SMOOTH",
"418 112 OFFCURVE",
"383 53 OFFCURVE",
"313 53 CURVE SMOOTH",
"242 53 OFFCURVE",
"205 91 OFFCURVE",
"205 210 CURVE SMOOTH",
"205 714 LINE",
"29 714 LINE",
"29 667 LINE",
"71 667 OFFCURVE",
"82 660 OFFCURVE",
"82 599 CURVE SMOOTH",
"82 217 LINE SMOOTH",
"82 54 OFFCURVE",
"170 -10 OFFCURVE",
"312 -10 CURVE SMOOTH",
"476 -10 OFFCURVE",
"541 83 OFFCURVE",
"541 210 CURVE SMOOTH",
"541 714 LINE",
"363 714 LINE"
);
},
{
closed = 1;
nodes = (
"533 186 LINE",
"540 190 OFFCURVE",
"554 192 OFFCURVE",
"564 192 CURVE SMOOTH",
"601 192 OFFCURVE",
"612 174 OFFCURVE",
"612 96 CURVE SMOOTH",
"612 0 LINE",
"734 0 LINE",
"734 94 LINE SMOOTH",
"734 212 OFFCURVE",
"693 252 OFFCURVE",
"600 252 CURVE SMOOTH",
"570 252 OFFCURVE",
"554 248 OFFCURVE",
"535 244 CURVE"
);
}
);
width = 751;
}
);
leftKerningGroup = uni0531;
note = uni0531;
unicode = 0531;
},
{
glyphname = uni0532;
lastChange = "2016-06-23 14:14:42 +0000";
layers = (
{
layerId = "84BA7A8F-8561-401A-9117-1E5C8963A832";
paths = (
{
closed = 1;
nodes = (
"166 20 LINE",
"116 20 OFFCURVE",
"110 31 OFFCURVE",
"110 108 CURVE SMOOTH",
"110 495 LINE SMOOTH",
"110 608 OFFCURVE",
"172 699 OFFCURVE",
"313 699 CURVE SMOOTH",
"437 699 OFFCURVE",
"513 638 OFFCURVE",
"513 504 CURVE SMOOTH",
"513 408 LINE",
"541 408 LINE",
"541 500 LINE SMOOTH",
"541 663 OFFCURVE",
"449 724 OFFCURVE",
"311 724 CURVE SMOOTH",
"156 724 OFFCURVE",
"82 626 OFFCURVE",
"82 496 CURVE SMOOTH",
"82 0 LINE",
"166 0 LINE"
);
},
{
closed = 1;
nodes = (
"531 317 LINE",
"531 342 LINE",
"101 342 LINE",
"101 317 LINE"
);
}
);
width = 613;
},
{
layerId = "505CC2C5-1E9F-4C44-A700-7A06363E8A84";
paths = (
{
closed = 1;
nodes = (
"303 51 LINE",
"264 51 OFFCURVE",
"258 61 OFFCURVE",
"258 114 CURVE SMOOTH",
"258 516 LINE SMOOTH",
"258 608 OFFCURVE",
"302 659 OFFCURVE",
"380 659 CURVE SMOOTH",
"459 659 OFFCURVE",
"503 609 OFFCURVE",
"503 516 CURVE SMOOTH",
"503 414 LINE",
"661 414 LINE",
"661 491 LINE SMOOTH",
"661 640 OFFCURVE",
"558 724 OFFCURVE",
"380 724 CURVE SMOOTH",
"203 724 OFFCURVE",
"100 641 OFFCURVE",
"100 491 CURVE SMOOTH",
"100 0 LINE",
"303 0 LINE"
);
},
{
closed = 1;
nodes = (
"651 287 LINE",
"651 347 LINE",
"248 347 LINE",
"248 287 LINE"
);
}
);
width = 723;
},
{
layerId = "4BFBD32C-75C4-41CA-8E17-65E778BAAADA";
paths = (
{
closed = 1;
nodes = (
"335 60 LINE",
"299 60 OFFCURVE",
"293 69 OFFCURVE",
"293 116 CURVE SMOOTH",
"293 522 LINE SMOOTH",
"293 608 OFFCURVE",
"332 648 OFFCURVE",
"393 648 CURVE SMOOTH",
"459 648 OFFCURVE",
"494 601 OFFCURVE",
"494 519 CURVE SMOOTH",
"494 416 LINE",
"688 416 LINE",
"688 489 LINE SMOOTH",
"688 634 OFFCURVE",
"582 724 OFFCURVE",
"393 724 CURVE SMOOTH",
"210 724 OFFCURVE",
"99 645 OFFCURVE",
"99 490 CURVE SMOOTH",
"99 0 LINE",
"335 0 LINE"
);
},
{
closed = 1;
nodes = (
"679 278 LINE",
"679 348 LINE",
"283 348 LINE",
"283 278 LINE"
);
}
);
width = 748;
},
{
layerId = "F2BD3FAB-8356-49CF-A55B-3E49BBA3F552";
paths = (
{
closed = 1;
nodes = (
"252 37 LINE",
"208 37 OFFCURVE",
"202 48 OFFCURVE",
"202 111 CURVE SMOOTH",
"202 507 LINE SMOOTH",
"202 608 OFFCURVE",
"254 677 OFFCURVE",
"360 677 CURVE SMOOTH",
"458 677 OFFCURVE",
"516 622 OFFCURVE",
"516 511 CURVE SMOOTH",
"516 411 LINE",
"617 411 LINE",
"617 495 LINE SMOOTH",
"617 650 OFFCURVE",
"519 724 OFFCURVE",
"359 724 CURVE SMOOTH",
"191 724 OFFCURVE",
"101 634 OFFCURVE",
"101 493 CURVE SMOOTH",
"101 0 LINE",
"252 0 LINE"
);
},
{
closed = 1;
nodes = (
"608 300 LINE",
"608 345 LINE",
"193 345 LINE",
"193 300 LINE"
);
}
);
width = 683;
},
{
layerId = "75A83886-EED5-4C31-9670-660514D8A4F6";
paths = (
{
closed = 1;
nodes = (
"299 56 LINE",
"269 56 OFFCURVE",
"245 63 OFFCURVE",
"245 115 CURVE SMOOTH",
"245 498 LINE SMOOTH",
"245 603 OFFCURVE",
"278 650 OFFCURVE",
"329 650 CURVE SMOOTH",
"393 650 OFFCURVE",
"419 615 OFFCURVE",
"419 504 CURVE SMOOTH",
"419 420 LINE",
"586 420 LINE",
"586 496 LINE SMOOTH",
"586 660 OFFCURVE",
"491 724 OFFCURVE",
"331 724 CURVE SMOOTH",
"148 724 OFFCURVE",
"78 634 OFFCURVE",
"78 500 CURVE SMOOTH",
"78 0 LINE",
"299 0 LINE"
);
},
{
closed = 1;
nodes = (
"578 283 LINE",
"578 347 LINE",
"227 347 LINE",
"227 283 LINE"
);
}
);
width = 640;
},
{
layerId = "E7C4F5EE-4982-479C-BF20-1C8706EFFC5D";
paths = (
{
closed = 1;
nodes = (
"201 35 LINE",
"157 35 OFFCURVE",
"146 45 OFFCURVE",
"146 115 CURVE SMOOTH",
"146 508 LINE SMOOTH",
"146 601 OFFCURVE",
"183 677 OFFCURVE",
"280 677 CURVE SMOOTH",
"361 677 OFFCURVE",
"411 634 OFFCURVE",
"411 504 CURVE SMOOTH",
"411 413 LINE",
"475 413 LINE",
"475 499 LINE SMOOTH",
"475 659 OFFCURVE",
"399 724 OFFCURVE",
"281 724 CURVE SMOOTH",
"142 724 OFFCURVE",
"82 627 OFFCURVE",
"82 510 CURVE SMOOTH",
"82 0 LINE",
"201 0 LINE"
);
},
{
closed = 1;
nodes = (
"467 300 LINE",
"467 343 LINE",
"132 343 LINE",
"132 300 LINE"
);
}
);
width = 535;
},
{
layerId = "5E7C5774-385D-4E06-B68E-CBE970134A7B";
paths = (
{
closed = 1;
nodes = (
"218 28 LINE",
"171 28 OFFCURVE",
"165 39 OFFCURVE",
"165 109 CURVE SMOOTH",
"165 501 LINE SMOOTH",
"165 608 OFFCURVE",
"222 688 OFFCURVE",
"346 688 CURVE SMOOTH",
"457 688 OFFCURVE",
"524 630 OFFCURVE",
"524 507 CURVE SMOOTH",
"524 409 LINE",
"588 409 LINE",
"588 498 LINE SMOOTH",
"588 657 OFFCURVE",
"493 724 OFFCURVE",
"344 724 CURVE SMOOTH",
"183 724 OFFCURVE",
"101 630 OFFCURVE",
"101 495 CURVE SMOOTH",
"101 0 LINE",
"218 0 LINE"
);
},
{
closed = 1;
nodes = (
"579 309 LINE",
"579 343 LINE",
"156 343 LINE",
"156 309 LINE"
);
}
);
width = 654;
},
{
layerId = "C91144B6-58F5-45F2-9CE4-7ED6CE127FD4";
paths = (
{
closed = 1;
nodes = (
"168 20 LINE",
"118 20 OFFCURVE",
"112 31 OFFCURVE",
"112 107 CURVE SMOOTH",
"112 512 LINE SMOOTH",
"112 600 OFFCURVE",
"151 699 OFFCURVE",
"263 699 CURVE SMOOTH",
"351 699 OFFCURVE",
"409 640 OFFCURVE",
"409 504 CURVE SMOOTH",
"409 410 LINE",
"437 410 LINE",
"437 500 LINE SMOOTH",
"437 659 OFFCURVE",
"367 724 OFFCURVE",
"264 724 CURVE SMOOTH",
"141 724 OFFCURVE",
"84 625 OFFCURVE",
"84 514 CURVE SMOOTH",
"84 0 LINE",
"168 0 LINE"
);
},
{
closed = 1;
nodes = (
"429 317 LINE",
"429 342 LINE",
"99 342 LINE",
"99 317 LINE"
);
}
);
width = 499;
},
{
layerId = "464843EB-0DE3-43AD-A7A6-94A12FE2EFF4";
paths = (
{
closed = 1;
nodes = (
"258 47 LINE",
"222 47 OFFCURVE",
"203 55 OFFCURVE",
"203 115 CURVE SMOOTH",
"203 502 LINE SMOOTH",
"203 602 OFFCURVE",
"238 661 OFFCURVE",
"308 661 CURVE SMOOTH",
"380 661 OFFCURVE",
"416 623 OFFCURVE",
"416 504 CURVE SMOOTH",
"416 417 LINE",
"539 417 LINE",
"539 497 LINE SMOOTH",
"539 660 OFFCURVE",
"452 724 OFFCURVE",
"310 724 CURVE SMOOTH",
"145 724 OFFCURVE",
"80 631 OFFCURVE",
"80 504 CURVE SMOOTH",
"80 0 LINE",
"258 0 LINE"
);
},
{
closed = 1;
nodes = (
"531 290 LINE",
"531 345 LINE",
"187 345 LINE",
"187 290 LINE"
);
}
);
width = 596;
}
);
note = uni0532;
unicode = 0532;
},
{
glyphname = uni0533;
lastChange = "2016-06-23 14:14:42 +0000";
layers = (
{
layerId = "84BA7A8F-8561-401A-9117-1E5C8963A832";
paths = (
{
closed = 1;
nodes = (
"505 0 LINE",
"505 20 LINE",
"445 20 OFFCURVE",
"439 31 OFFCURVE",
"439 108 CURVE",
"439 530 LINE SMOOTH",
"439 652 OFFCURVE",
"388 724 OFFCURVE",
"252 724 CURVE SMOOTH",
"118 724 OFFCURVE",
"46 655 OFFCURVE",
"46 518 CURVE SMOOTH",
"46 386 OFFCURVE",
"154 316 OFFCURVE",
"293 316 CURVE SMOOTH",
"411 316 LINE",
"411 0 LINE"
);
},
{
closed = 1;
nodes = (
"176 341 OFFCURVE",
"74 398 OFFCURVE",
"74 517 CURVE SMOOTH",
"74 637 OFFCURVE",
"130 699 OFFCURVE",
"253 699 CURVE SMOOTH",
"378 699 OFFCURVE",
"411 628 OFFCURVE",
"411 530 CURVE SMOOTH",
"411 341 LINE",
"293 341 LINE SMOOTH"
);
},
{
closed = 1;
nodes = (
"562 316 LINE",
"562 341 LINE",
"431 341 LINE",
"431 316 LINE"
);
}
);
width = 567;
},
{
layerId = "505CC2C5-1E9F-4C44-A700-7A06363E8A84";
paths = (
{
closed = 1;
nodes = (
"667 0 LINE",
"667 51 LINE",
"628 51 OFFCURVE",
"621 61 OFFCURVE",
"621 114 CURVE SMOOTH",
"621 491 LINE SMOOTH",
"621 640 OFFCURVE",
"518 724 OFFCURVE",
"340 724 CURVE SMOOTH",
"163 724 OFFCURVE",
"60 641 OFFCURVE",
"60 502 CURVE SMOOTH",
"60 363 OFFCURVE",
"163 288 OFFCURVE",
"340 288 CURVE SMOOTH",
"463 288 LINE",
"463 0 LINE"
);
},
{
closed = 1;
nodes = (
"262 348 OFFCURVE",
"218 385 OFFCURVE",
"218 502 CURVE SMOOTH",
"218 619 OFFCURVE",
"262 659 OFFCURVE",
"340 659 CURVE SMOOTH",
"419 659 OFFCURVE",
"463 609 OFFCURVE",
"463 516 CURVE SMOOTH",
"463 348 LINE",
"340 348 LINE SMOOTH"
);
},
{
closed = 1;
nodes = (
"808 288 LINE",
"808 348 LINE",
"611 348 LINE",
"611 288 LINE"
);
}
);
width = 813;
},
{
layerId = "4BFBD32C-75C4-41CA-8E17-65E778BAAADA";
paths = (
{
closed = 1;
nodes = (
"710 0 LINE",
"710 60 LINE",
"677 60 OFFCURVE",
"670 69 OFFCURVE",
"670 116 CURVE SMOOTH",
"670 480 LINE SMOOTH",
"670 637 OFFCURVE",
"552 724 OFFCURVE",
"362 724 CURVE SMOOTH",
"174 724 OFFCURVE",
"62 637 OFFCURVE",
"62 498 CURVE SMOOTH",
"62 357 OFFCURVE",
"164 280 OFFCURVE",
"351 280 CURVE SMOOTH",
"476 280 LINE",
"476 0 LINE"
);
},
{
closed = 1;
nodes = (
"284 350 OFFCURVE",
"256 381 OFFCURVE",
"256 498 CURVE SMOOTH",
"256 614 OFFCURVE",
"297 648 OFFCURVE",
"362 648 CURVE SMOOTH",
"428 648 OFFCURVE",
"476 604 OFFCURVE",
"476 512 CURVE SMOOTH",
"476 350 LINE",
"351 350 LINE SMOOTH"
);
},
{
closed = 1;
nodes = (
"874 280 LINE",
"874 350 LINE",
"659 350 LINE",
"659 280 LINE"
);
}
);
width = 878;
},
{
layerId = "F2BD3FAB-8356-49CF-A55B-3E49BBA3F552";
paths = (
{
closed = 1;
nodes = (
"599 0 LINE",
"599 37 LINE",
"551 37 OFFCURVE",
"544 48 OFFCURVE",
"544 111 CURVE",
"544 508 LINE SMOOTH",
"544 645 OFFCURVE",
"464 724 OFFCURVE",
"305 724 CURVE SMOOTH",
"146 724 OFFCURVE",
"57 647 OFFCURVE",
"57 509 CURVE SMOOTH",
"57 373 OFFCURVE",
"162 300 OFFCURVE",
"323 300 CURVE SMOOTH",
"443 300 LINE",
"443 0 LINE"
);
},
{
closed = 1;
nodes = (
"227 344 OFFCURVE",
"158 391 OFFCURVE",
"158 509 CURVE SMOOTH",
"158 627 OFFCURVE",
"207 677 OFFCURVE",
"305 677 CURVE SMOOTH",
"404 677 OFFCURVE",
"443 617 OFFCURVE",
"443 522 CURVE SMOOTH",
"443 344 LINE",
"323 344 LINE SMOOTH"
);
},
{
closed = 1;
nodes = (
"704 300 LINE",
"704 344 LINE",
"536 344 LINE",
"536 300 LINE"
);
}
);
width = 711;
},
{
layerId = "75A83886-EED5-4C31-9670-660514D8A4F6";
paths = (
{
closed = 1;
nodes = (
"604 0 LINE",
"604 56 LINE",
"564 56 OFFCURVE",
"550 61 OFFCURVE",
"550 115 CURVE SMOOTH",
"550 496 LINE SMOOTH",
"550 660 OFFCURVE",
"451 724 OFFCURVE",
"291 724 CURVE SMOOTH",
"113 724 OFFCURVE",
"42 634 OFFCURVE",
"42 500 CURVE SMOOTH",
"42 352 OFFCURVE",
"119 285 OFFCURVE",
"291 285 CURVE SMOOTH",
"383 285 LINE",
"383 0 LINE"
);
},
{
closed = 1;
nodes = (
"238 349 OFFCURVE",
"209 403 OFFCURVE",
"209 498 CURVE SMOOTH",
"209 603 OFFCURVE",
"242 650 OFFCURVE",
"293 650 CURVE SMOOTH",
"357 650 OFFCURVE",
"383 615 OFFCURVE",
"383 504 CURVE SMOOTH",
"383 349 LINE",
"293 349 LINE SMOOTH"
);
},
{
closed = 1;
nodes = (
"714 285 LINE",
"714 349 LINE",
"533 349 LINE",
"533 285 LINE"
);
}
);
width = 718;
},
{
layerId = "E7C4F5EE-4982-479C-BF20-1C8706EFFC5D";
paths = (
{
closed = 1;
nodes = (
"490 0 LINE",
"490 35 LINE",
"446 35 OFFCURVE",
"439 45 OFFCURVE",
"439 114 CURVE SMOOTH",
"439 499 LINE SMOOTH",
"439 659 OFFCURVE",
"362 724 OFFCURVE",
"244 724 CURVE SMOOTH",
"107 724 OFFCURVE",
"46 631 OFFCURVE",
"46 514 CURVE SMOOTH",
"46 393 OFFCURVE",
"108 309 OFFCURVE",
"244 309 CURVE SMOOTH",
"375 309 LINE",
"375 0 LINE"
);
},
{
closed = 1;
nodes = (
"146 351 OFFCURVE",
"110 425 OFFCURVE",
"110 514 CURVE SMOOTH",
"110 604 OFFCURVE",
"147 677 OFFCURVE",
"244 677 CURVE SMOOTH",
"325 677 OFFCURVE",
"375 634 OFFCURVE",
"375 504 CURVE SMOOTH",
"375 351 LINE",
"244 351 LINE SMOOTH"
);
},
{
closed = 1;
nodes = (
"564 309 LINE",
"564 351 LINE",
"426 351 LINE",
"426 309 LINE"
);
}
);
width = 569;
},
{
layerId = "5E7C5774-385D-4E06-B68E-CBE970134A7B";
paths = (
{
closed = 1;
nodes = (
"557 0 LINE",
"557 28 LINE",
"503 28 OFFCURVE",
"496 39 OFFCURVE",
"496 109 CURVE",
"496 519 LINE SMOOTH",
"496 649 OFFCURVE",
"431 724 OFFCURVE",
"284 724 CURVE SMOOTH",
"137 724 OFFCURVE",
"57 651 OFFCURVE",
"57 514 CURVE SMOOTH",
"57 380 OFFCURVE",
"164 308 OFFCURVE",
"313 308 CURVE SMOOTH",
"432 308 LINE",
"432 0 LINE"
);
},
{
closed = 1;
nodes = (
"207 342 OFFCURVE",
"121 395 OFFCURVE",
"121 513 CURVE SMOOTH",
"121 632 OFFCURVE",
"174 688 OFFCURVE",
"284 688 CURVE SMOOTH",
"396 688 OFFCURVE",
"432 623 OFFCURVE",
"432 526 CURVE SMOOTH",
"432 342 LINE",
"313 342 LINE SMOOTH"
);
},
{
closed = 1;
nodes = (
"637 308 LINE",
"637 342 LINE",
"488 342 LINE",
"488 308 LINE"
);
}
);
width = 645;
},
{
layerId = "C91144B6-58F5-45F2-9CE4-7ED6CE127FD4";
paths = (
{
closed = 1;
nodes = (
"451 0 LINE",
"451 20 LINE",
"405 20 OFFCURVE",
"401 31 OFFCURVE",
"401 105 CURVE SMOOTH",
"401 500 LINE SMOOTH",
"401 659 OFFCURVE",
"331 724 OFFCURVE",
"228 724 CURVE SMOOTH",
"105 724 OFFCURVE",
"48 630 OFFCURVE",
"48 519 CURVE SMOOTH",
"48 408 OFFCURVE",
"105 317 OFFCURVE",
"228 317 CURVE SMOOTH",
"373 317 LINE",
"373 0 LINE"
);
},
{
closed = 1;
nodes = (
"115 342 OFFCURVE",
"76 433 OFFCURVE",
"76 519 CURVE SMOOTH",
"76 605 OFFCURVE",
"115 699 OFFCURVE",
"227 699 CURVE SMOOTH",
"315 699 OFFCURVE",
"373 640 OFFCURVE",
"373 504 CURVE SMOOTH",
"373 342 LINE",
"227 342 LINE SMOOTH"
);
},
{
closed = 1;
nodes = (
"511 317 LINE",
"511 342 LINE",
"388 342 LINE",
"388 317 LINE"
);
}
);
width = 517;
},
{
layerId = "464843EB-0DE3-43AD-A7A6-94A12FE2EFF4";
paths = (
{
closed = 1;
nodes = (
"556 0 LINE",
"556 47 LINE",
"514 47 OFFCURVE",
"503 54 OFFCURVE",
"503 115 CURVE SMOOTH",
"503 497 LINE SMOOTH",
"503 660 OFFCURVE",
"414 724 OFFCURVE",
"271 724 CURVE SMOOTH",
"110 724 OFFCURVE",
"44 633 OFFCURVE",
"44 506 CURVE SMOOTH",
"44 369 OFFCURVE",
"114 295 OFFCURVE",
"271 295 CURVE SMOOTH",
"380 295 LINE",
"380 0 LINE"
);
},
{
closed = 1;
nodes = (
"199 350 OFFCURVE",
"167 412 OFFCURVE",
"167 505 CURVE SMOOTH",
"167 603 OFFCURVE",
"202 661 OFFCURVE",
"272 661 CURVE SMOOTH",
"344 661 OFFCURVE",
"380 623 OFFCURVE",
"380 504 CURVE SMOOTH",
"380 350 LINE",
"272 350 LINE SMOOTH"
);
},
{
closed = 1;
nodes = (
"651 295 LINE",
"651 350 LINE",
"488 350 LINE",
"488 295 LINE"
);
}
);
width = 655;
}
);
note = uni0533;
rightKerningGroup = uni0534;
unicode = 0533;
},
{
glyphname = uni0534;
lastChange = "2016-06-23 14:14:42 +0000";
layers = (
{
layerId = "84BA7A8F-8561-401A-9117-1E5C8963A832";
paths = (
{
closed = 1;
nodes = (
"100 368 LINE",
"100 495 LINE SMOOTH",
"100 608 OFFCURVE",
"152 699 OFFCURVE",
"283 699 CURVE SMOOTH",
"397 699 OFFCURVE",
"463 638 OFFCURVE",
"463 504 CURVE SMOOTH",
"463 0 LINE",
"547 0 LINE",
"547 20 LINE",
"497 20 OFFCURVE",
"491 31 OFFCURVE",
"491 108 CURVE SMOOTH",
"491 500 LINE SMOOTH",
"491 663 OFFCURVE",
"409 724 OFFCURVE",
"281 724 CURVE SMOOTH",
"136 724 OFFCURVE",
"72 626 OFFCURVE",
"72 496 CURVE SMOOTH",
"72 368 LINE"
);
},
{
closed = 1;
nodes = (
"632 317 LINE",
"632 342 LINE",
"472 342 LINE",
"472 317 LINE"
);
}
);
width = 637;
},
{
layerId = "505CC2C5-1E9F-4C44-A700-7A06363E8A84";
paths = (
{
closed = 1;
nodes = (
"218 344 LINE",
"218 516 LINE SMOOTH",
"218 608 OFFCURVE",
"262 659 OFFCURVE",
"340 659 CURVE SMOOTH",
"419 659 OFFCURVE",
"463 609 OFFCURVE",
"463 516 CURVE SMOOTH",
"463 0 LINE",
"667 0 LINE",
"667 51 LINE",
"628 51 OFFCURVE",
"621 61 OFFCURVE",
"621 114 CURVE SMOOTH",
"621 491 LINE SMOOTH",
"621 640 OFFCURVE",
"518 724 OFFCURVE",
"340 724 CURVE SMOOTH",
"163 724 OFFCURVE",
"60 641 OFFCURVE",
"60 491 CURVE SMOOTH",
"60 344 LINE"
);
},
{
closed = 1;
nodes = (
"808 288 LINE",
"808 348 LINE",
"611 348 LINE",
"611 288 LINE"
);
}
);
width = 813;
},
{
layerId = "4BFBD32C-75C4-41CA-8E17-65E778BAAADA";
paths = (
{
closed = 1;
nodes = (
"254 337 LINE",
"254 522 LINE SMOOTH",
"254 608 OFFCURVE",
"296 648 OFFCURVE",
"359 648 CURVE SMOOTH",
"428 648 OFFCURVE",
"466 601 OFFCURVE",
"466 519 CURVE SMOOTH",
"466 0 LINE",
"704 0 LINE",
"704 60 LINE",
"668 60 OFFCURVE",
"660 69 OFFCURVE",
"660 116 CURVE SMOOTH",
"660 489 LINE SMOOTH",
"660 634 OFFCURVE",
"552 724 OFFCURVE",
"360 724 CURVE SMOOTH",
"174 724 OFFCURVE",
"60 645 OFFCURVE",
"60 490 CURVE SMOOTH",
"60 337 LINE"
);
},
{
closed = 1;
nodes = (
"859 280 LINE",
"859 350 LINE",
"652 350 LINE",
"652 280 LINE"
);
}
);
width = 863;
},
{
layerId = "F2BD3FAB-8356-49CF-A55B-3E49BBA3F552";
paths = (
{
closed = 1;
nodes = (
"167 355 LINE",
"167 507 LINE SMOOTH",
"167 608 OFFCURVE",
"215 677 OFFCURVE",
"316 677 CURVE SMOOTH",
"410 677 OFFCURVE",
"464 622 OFFCURVE",
"464 511 CURVE SMOOTH",
"464 0 LINE",
"615 0 LINE",
"615 37 LINE",
"571 37 OFFCURVE",
"565 48 OFFCURVE",
"565 111 CURVE SMOOTH",
"565 495 LINE SMOOTH",
"565 650 OFFCURVE",
"471 724 OFFCURVE",
"315 724 CURVE SMOOTH",
"152 724 OFFCURVE",
"66 634 OFFCURVE",
"66 493 CURVE SMOOTH",
"66 355 LINE"
);
},
{
closed = 1;
nodes = (
"732 301 LINE",
"732 345 LINE",
"551 345 LINE",
"551 301 LINE"
);
}
);
width = 739;
},
{
layerId = "75A83886-EED5-4C31-9670-660514D8A4F6";
paths = (
{
closed = 1;
nodes = (
"221 340 LINE",
"221 498 LINE SMOOTH",
"221 603 OFFCURVE",
"254 650 OFFCURVE",
"305 650 CURVE SMOOTH",
"369 650 OFFCURVE",
"395 615 OFFCURVE",
"395 504 CURVE SMOOTH",
"395 0 LINE",
"616 0 LINE",
"616 56 LINE",
"576 56 OFFCURVE",
"562 61 OFFCURVE",
"562 115 CURVE SMOOTH",
"562 496 LINE SMOOTH",
"562 660 OFFCURVE",
"463 724 OFFCURVE",
"303 724 CURVE SMOOTH",
"120 724 OFFCURVE",
"54 634 OFFCURVE",
"54 500 CURVE SMOOTH",
"54 340 LINE"
);
},
{
closed = 1;
nodes = (
"726 285 LINE",
"726 349 LINE",
"545 349 LINE",
"545 285 LINE"
);
}
);
width = 730;
},
{
layerId = "E7C4F5EE-4982-479C-BF20-1C8706EFFC5D";
paths = (
{
closed = 1;
nodes = (
"124 362 LINE",
"124 508 LINE SMOOTH",
"124 601 OFFCURVE",
"161 677 OFFCURVE",
"258 677 CURVE SMOOTH",
"339 677 OFFCURVE",
"389 634 OFFCURVE",
"389 504 CURVE SMOOTH",
"389 0 LINE",
"504 0 LINE",
"504 35 LINE",
"460 35 OFFCURVE",
"453 45 OFFCURVE",
"453 114 CURVE SMOOTH",
"453 499 LINE SMOOTH",
"453 659 OFFCURVE",
"376 724 OFFCURVE",
"258 724 CURVE SMOOTH",
"119 724 OFFCURVE",
"60 627 OFFCURVE",
"60 510 CURVE SMOOTH",
"60 362 LINE"
);
},
{
closed = 1;
nodes = (
"578 301 LINE",
"578 344 LINE",
"438 344 LINE",
"438 301 LINE"
);
}
);
width = 583;
},
{
layerId = "5E7C5774-385D-4E06-B68E-CBE970134A7B";
paths = (
{
closed = 1;
nodes = (
"130 362 LINE",
"130 501 LINE SMOOTH",
"130 608 OFFCURVE",
"180 688 OFFCURVE",
"296 688 CURVE SMOOTH",
"400 688 OFFCURVE",
"460 630 OFFCURVE",
"460 507 CURVE SMOOTH",
"460 0 LINE",
"577 0 LINE",
"577 28 LINE",
"530 28 OFFCURVE",
"524 39 OFFCURVE",
"524 109 CURVE SMOOTH",
"524 498 LINE SMOOTH",
"524 657 OFFCURVE",
"437 724 OFFCURVE",
"295 724 CURVE SMOOTH",
"141 724 OFFCURVE",
"66 630 OFFCURVE",
"66 495 CURVE SMOOTH",
"66 362 LINE"
);
},
{
closed = 1;
nodes = (
"678 309 LINE",
"678 343 LINE",
"508 343 LINE",
"508 309 LINE"
);
}
);
width = 685;
},
{
layerId = "C91144B6-58F5-45F2-9CE4-7ED6CE127FD4";
paths = (
{
closed = 1;
nodes = (
"90 370 LINE",
"90 512 LINE SMOOTH",
"90 600 OFFCURVE",
"129 699 OFFCURVE",
"241 699 CURVE SMOOTH",
"329 699 OFFCURVE",
"387 640 OFFCURVE",
"387 504 CURVE SMOOTH",
"387 0 LINE",
"465 0 LINE",
"465 20 LINE",
"419 20 OFFCURVE",
"415 31 OFFCURVE",
"415 105 CURVE SMOOTH",
"415 500 LINE SMOOTH",
"415 659 OFFCURVE",
"345 724 OFFCURVE",
"242 724 CURVE SMOOTH",
"119 724 OFFCURVE",
"62 625 OFFCURVE",
"62 514 CURVE SMOOTH",
"62 370 LINE"
);
},
{
closed = 1;
nodes = (
"525 317 LINE",
"525 342 LINE",
"400 342 LINE",
"400 317 LINE"
);
}
);
width = 531;
},
{
layerId = "464843EB-0DE3-43AD-A7A6-94A12FE2EFF4";
paths = (
{
closed = 1;
nodes = (
"180 349 LINE",
"180 502 LINE SMOOTH",
"180 602 OFFCURVE",
"215 661 OFFCURVE",
"285 661 CURVE SMOOTH",
"356 661 OFFCURVE",
"392 623 OFFCURVE",
"392 504 CURVE SMOOTH",
"392 0 LINE",
"569 0 LINE",
"569 47 LINE",
"527 47 OFFCURVE",
"516 54 OFFCURVE",
"516 115 CURVE SMOOTH",
"516 497 LINE SMOOTH",
"516 660 OFFCURVE",
"426 724 OFFCURVE",
"284 724 CURVE SMOOTH",
"120 724 OFFCURVE",
"57 631 OFFCURVE",
"57 504 CURVE SMOOTH",
"57 349 LINE"
);
},
{
closed = 1;
nodes = (
"664 292 LINE",
"664 347 LINE",
"500 347 LINE",
"500 292 LINE"
);
}
);
width = 668;
}
);
leftKerningGroup = uni0534;
note = uni0534;
rightKerningGroup = uni0534;
unicode = 0534;
},
{
glyphname = uni0535;
lastChange = "2016-06-23 14:14:42 +0000";
layers = (
{
layerId = "84BA7A8F-8561-401A-9117-1E5C8963A832";
paths = (
{
closed = 1;
nodes = (
"434 -10 OFFCURVE",
"521 51 OFFCURVE",
"521 214 CURVE SMOOTH",
"521 306 LINE",
"493 306 LINE",
"493 210 LINE SMOOTH",
"493 76 OFFCURVE",
"422 15 OFFCURVE",
"307 15 CURVE SMOOTH",
"176 15 OFFCURVE",
"116 106 OFFCURVE",
"116 219 CURVE SMOOTH",
"116 714 LINE",
"33 714 LINE",
"33 694 LINE",
"80 694 OFFCURVE",
"88 683 OFFCURVE",
"88 606 CURVE SMOOTH",
"88 218 LINE SMOOTH",
"88 88 OFFCURVE",
"160 -10 OFFCURVE",
"305 -10 CURVE SMOOTH"
);
},
{
closed = 1;
nodes = (
"511 457 LINE",
"511 482 LINE",
"107 482 LINE",
"107 457 LINE"
);
}
);
width = 573;
},
{
layerId = "505CC2C5-1E9F-4C44-A700-7A06363E8A84";
paths = (
{
closed = 1;
nodes = (
"558 -10 OFFCURVE",
"661 73 OFFCURVE",
"661 223 CURVE SMOOTH",
"661 294 LINE",
"503 294 LINE",
"503 198 LINE SMOOTH",
"503 106 OFFCURVE",
"459 55 OFFCURVE",
"381 55 CURVE SMOOTH",
"302 55 OFFCURVE",
"258 105 OFFCURVE",
"258 198 CURVE SMOOTH",
"258 714 LINE",
"54 714 LINE",
"54 663 LINE",
"93 663 OFFCURVE",
"100 653 OFFCURVE",
"100 600 CURVE SMOOTH",
"100 223 LINE SMOOTH",
"100 74 OFFCURVE",
"203 -10 OFFCURVE",
"381 -10 CURVE SMOOTH"
);
},
{
closed = 1;
nodes = (
"656 433 LINE",
"656 493 LINE",
"248 493 LINE",
"248 433 LINE"
);
}
);
width = 721;
},
{
layerId = "4BFBD32C-75C4-41CA-8E17-65E778BAAADA";
paths = (
{
closed = 1;
nodes = (
"590 -10 OFFCURVE",
"697 79 OFFCURVE",
"697 225 CURVE SMOOTH",
"697 291 LINE",
"503 291 LINE",
"503 195 LINE SMOOTH",
"503 109 OFFCURVE",
"466 66 OFFCURVE",
"399 66 CURVE SMOOTH",
"334 66 OFFCURVE",
"295 105 OFFCURVE",
"295 192 CURVE SMOOTH",
"295 714 LINE",
"57 714 LINE",
"57 654 LINE",
"94 654 OFFCURVE",
"101 645 OFFCURVE",
"101 598 CURVE SMOOTH",
"101 224 LINE SMOOTH",
"101 70 OFFCURVE",
"212 -10 OFFCURVE",
"399 -10 CURVE SMOOTH"
);
},
{
closed = 1;
nodes = (
"693 426 LINE",
"693 496 LINE",
"284 496 LINE",
"284 426 LINE"
);
}
);
width = 753;
},
{
layerId = "F2BD3FAB-8356-49CF-A55B-3E49BBA3F552";
paths = (
{
closed = 1;
nodes = (
"509 -10 OFFCURVE",
"605 63 OFFCURVE",
"605 219 CURVE SMOOTH",
"605 299 LINE",
"504 299 LINE",
"504 203 LINE SMOOTH",
"504 93 OFFCURVE",
"448 37 OFFCURVE",
"354 37 CURVE SMOOTH",
"252 37 OFFCURVE",
"201 105 OFFCURVE",
"201 207 CURVE SMOOTH",
"201 714 LINE",
"50 714 LINE",
"50 677 LINE",
"93 677 OFFCURVE",
"100 666 OFFCURVE",
"100 603 CURVE SMOOTH",
"100 221 LINE SMOOTH",
"100 80 OFFCURVE",
"189 -10 OFFCURVE",
"353 -10 CURVE SMOOTH"
);
},
{
closed = 1;
nodes = (
"597 444 LINE",
"597 488 LINE",
"191 488 LINE",
"191 444 LINE"
);
}
);
width = 670;
},
{
layerId = "75A83886-EED5-4C31-9670-660514D8A4F6";
paths = (
{
closed = 1;
nodes = (
"521 -10 OFFCURVE",
"588 80 OFFCURVE",
"588 214 CURVE SMOOTH",
"588 289 LINE",
"421 289 LINE",
"421 216 LINE SMOOTH",
"421 111 OFFCURVE",
"388 64 OFFCURVE",
"337 64 CURVE SMOOTH",
"273 64 OFFCURVE",
"247 99 OFFCURVE",
"247 210 CURVE SMOOTH",
"247 714 LINE",
"26 714 LINE",
"26 658 LINE",
"66 658 OFFCURVE",
"80 653 OFFCURVE",
"80 599 CURVE SMOOTH",
"80 218 LINE SMOOTH",
"80 54 OFFCURVE",
"178 -10 OFFCURVE",
"338 -10 CURVE SMOOTH"
);
},
{
closed = 1;
nodes = (
"578 427 LINE",
"578 491 LINE",
"227 491 LINE",
"227 427 LINE"
);
}
);
width = 636;
},
{
layerId = "E7C4F5EE-4982-479C-BF20-1C8706EFFC5D";
paths = (
{
closed = 1;
nodes = (
"418 -10 OFFCURVE",
"477 87 OFFCURVE",
"477 204 CURVE SMOOTH",
"477 302 LINE",
"413 302 LINE",
"413 216 LINE SMOOTH",
"413 123 OFFCURVE",
"376 37 OFFCURVE",
"280 37 CURVE SMOOTH",
"198 37 OFFCURVE",
"148 90 OFFCURVE",
"148 220 CURVE SMOOTH",
"148 714 LINE",
"33 714 LINE",
"33 679 LINE",
"77 679 OFFCURVE",
"84 669 OFFCURVE",
"84 600 CURVE SMOOTH",
"84 215 LINE SMOOTH",
"84 55 OFFCURVE",
"161 -10 OFFCURVE",
"279 -10 CURVE SMOOTH"
);
},
{
closed = 1;
nodes = (
"467 441 LINE",
"467 484 LINE",
"132 484 LINE",
"132 441 LINE"
);
}
);
width = 529;
},
{
layerId = "5E7C5774-385D-4E06-B68E-CBE970134A7B";
paths = (
{
closed = 1;
nodes = (
"480 -10 OFFCURVE",
"571 57 OFFCURVE",
"571 216 CURVE SMOOTH",
"571 303 LINE",
"507 303 LINE",
"507 207 LINE SMOOTH",
"507 84 OFFCURVE",
"443 26 OFFCURVE",
"339 26 CURVE SMOOTH",
"222 26 OFFCURVE",
"167 106 OFFCURVE",
"167 213 CURVE SMOOTH",
"167 714 LINE",
"50 714 LINE",
"50 686 LINE",
"95 686 OFFCURVE",
"103 675 OFFCURVE",
"103 605 CURVE SMOOTH",
"103 219 LINE SMOOTH",
"103 84 OFFCURVE",
"183 -10 OFFCURVE",
"337 -10 CURVE SMOOTH"
);
},
{
closed = 1;
nodes = (
"562 451 LINE",
"562 485 LINE",
"157 485 LINE",
"157 451 LINE"
);
}
);
width = 636;
},
{
layerId = "C91144B6-58F5-45F2-9CE4-7ED6CE127FD4";
paths = (
{
closed = 1;
nodes = (
"382 -10 OFFCURVE",
"439 89 OFFCURVE",
"439 200 CURVE SMOOTH",
"439 307 LINE",
"411 307 LINE",
"411 202 LINE SMOOTH",
"411 114 OFFCURVE",
"372 15 OFFCURVE",
"260 15 CURVE SMOOTH",
"172 15 OFFCURVE",
"114 74 OFFCURVE",
"114 210 CURVE SMOOTH",
"114 714 LINE",
"36 714 LINE",
"36 694 LINE",
"82 694 OFFCURVE",
"86 683 OFFCURVE",
"86 609 CURVE SMOOTH",
"86 214 LINE SMOOTH",
"86 55 OFFCURVE",
"156 -10 OFFCURVE",
"259 -10 CURVE SMOOTH"
);
},
{
closed = 1;
nodes = (
"429 457 LINE",
"429 482 LINE",
"99 482 LINE",
"99 457 LINE"
);
}
);
width = 491;
},
{
layerId = "464843EB-0DE3-43AD-A7A6-94A12FE2EFF4";
paths = (
{
closed = 1;
nodes = (
"478 -10 OFFCURVE",
"541 83 OFFCURVE",
"541 210 CURVE SMOOTH",
"541 294 LINE",
"418 294 LINE",
"418 216 LINE SMOOTH",
"418 116 OFFCURVE",
"383 53 OFFCURVE",
"313 53 CURVE SMOOTH",
"242 53 OFFCURVE",
"205 95 OFFCURVE",
"205 214 CURVE SMOOTH",
"205 714 LINE",
"29 714 LINE",
"29 667 LINE",
"71 667 OFFCURVE",
"82 660 OFFCURVE",
"82 599 CURVE SMOOTH",
"82 217 LINE SMOOTH",
"82 54 OFFCURVE",
"171 -10 OFFCURVE",
"313 -10 CURVE SMOOTH"
);
},
{
closed = 1;
nodes = (
"531 433 LINE",
"531 488 LINE",
"187 488 LINE",
"187 433 LINE"
);
}
);
width = 591;
}
);
leftKerningGroup = uni0531;
note = uni0535;
unicode = 0535;
},
{
glyphname = uni0536;
lastChange = "2016-06-23 14:14:42 +0000";
layers = (
{
layerId = "84BA7A8F-8561-401A-9117-1E5C8963A832";
paths = (
{
closed = 1;
nodes = (
"416 285 OFFCURVE",
"487 382 OFFCURVE",
"487 507 CURVE SMOOTH",
"487 631 OFFCURVE",
"423 728 OFFCURVE",
"266 728 CURVE SMOOTH",
"120 728 OFFCURVE",
"35 642 OFFCURVE",
"35 507 CURVE SMOOTH",
"35 380 OFFCURVE",
"109 285 OFFCURVE",
"260 285 CURVE SMOOTH"
);
},
{
closed = 1;
nodes = (
"74 0 LINE",
"74 179 LINE",
"46 179 LINE",
"46 0 LINE"
);
},
{
closed = 1;
nodes = (
"508 0 LINE",
"508 13 LINE SMOOTH",
"508 99 OFFCURVE",
"459 123 OFFCURVE",
"399 123 CURVE SMOOTH",
"60 123 LINE",
"60 98 LINE",
"399 98 LINE SMOOTH",
"444 98 OFFCURVE",
"480 74 OFFCURVE",
"480 14 CURVE SMOOTH",
"480 0 LINE"
);
},
{
closed = 1;
nodes = (
"263 100 OFFCURVE",
"487 224 OFFCURVE",
"487 507 CURVE",
"462 507 LINE",
"462 248 OFFCURVE",
"256 123 OFFCURVE",
"71 123 CURVE",
"71 100 LINE"
);
},
{
closed = 1;
nodes = (
"126 310 OFFCURVE",
"63 391 OFFCURVE",
"63 507 CURVE SMOOTH",
"63 630 OFFCURVE",
"136 703 OFFCURVE",
"266 703 CURVE SMOOTH",
"405 703 OFFCURVE",
"459 616 OFFCURVE",
"459 507 CURVE SMOOTH",
"459 392 OFFCURVE",
"399 310 OFFCURVE",
"260 310 CURVE SMOOTH"
);
}
);
width = 535;
},
{
layerId = "505CC2C5-1E9F-4C44-A700-7A06363E8A84";
paths = (
{
closed = 1;
nodes = (
"467 278 OFFCURVE",
"590 365 OFFCURVE",
"590 486 CURVE SMOOTH",
"590 641 OFFCURVE",
"475 723 OFFCURVE",
"316 723 CURVE SMOOTH",
"155 723 OFFCURVE",
"42 636 OFFCURVE",
"42 495 CURVE SMOOTH",
"42 360 OFFCURVE",
"157 278 OFFCURVE",
"301 278 CURVE"
);
},
{
closed = 1;
nodes = (
"208 0 LINE",
"208 201 LINE",
"56 201 LINE",
"56 0 LINE"
);
},
{
closed = 1;
nodes = (
"617 0 LINE",
"617 14 LINE SMOOTH",
"617 110 OFFCURVE",
"560 150 OFFCURVE",
"437 150 CURVE SMOOTH",
"132 150 LINE",
"132 90 LINE",
"372 90 LINE SMOOTH",
"438 90 OFFCURVE",
"459 73 OFFCURVE",
"459 19 CURVE SMOOTH",
"459 0 LINE"
);
},
{
closed = 1;
nodes = (
"423 112 OFFCURVE",
"590 237 OFFCURVE",
"590 486 CURVE",
"440 486 LINE",
"440 236 OFFCURVE",
"347 150 OFFCURVE",
"202 150 CURVE",
"202 98 LINE"
);
},
{
closed = 1;
nodes = (
"250 343 OFFCURVE",
"209 403 OFFCURVE",
"209 495 CURVE SMOOTH",
"209 597 OFFCURVE",
"253 658 OFFCURVE",
"316 658 CURVE SMOOTH",
"382 658 OFFCURVE",
"423 598 OFFCURVE",
"423 506 CURVE SMOOTH",
"423 404 OFFCURVE",
"379 343 OFFCURVE",
"316 343 CURVE"
);
}
);
width = 649;
},
{
layerId = "4BFBD32C-75C4-41CA-8E17-65E778BAAADA";
paths = (
{
closed = 1;
nodes = (
"477 276 OFFCURVE",
"615 355 OFFCURVE",
"615 480 CURVE SMOOTH",
"615 644 OFFCURVE",
"485 722 OFFCURVE",
"326 722 CURVE SMOOTH",
"161 722 OFFCURVE",
"40 634 OFFCURVE",
"40 492 CURVE SMOOTH",
"40 354 OFFCURVE",
"166 276 OFFCURVE",
"308 276 CURVE SMOOTH"
);
},
{
closed = 1;
nodes = (
"241 0 LINE",
"241 207 LINE",
"55 207 LINE",
"55 0 LINE"
);
},
{
closed = 1;
nodes = (
"643 0 LINE",
"643 14 LINE SMOOTH",
"643 113 OFFCURVE",
"584 158 OFFCURVE",
"444 158 CURVE SMOOTH",
"148 158 LINE",
"148 88 LINE",
"361 88 LINE SMOOTH",
"432 88 OFFCURVE",
"449 73 OFFCURVE",
"449 20 CURVE SMOOTH",
"449 0 LINE"
);
},
{
closed = 1;
nodes = (
"464 115 OFFCURVE",
"615 241 OFFCURVE",
"615 480 CURVE",
"431 480 LINE",
"431 233 OFFCURVE",
"369 158 OFFCURVE",
"235 158 CURVE",
"235 97 LINE"
);
},
{
closed = 1;
nodes = (
"281 352 OFFCURVE",
"246 406 OFFCURVE",
"246 492 CURVE SMOOTH",
"246 588 OFFCURVE",
"282 646 OFFCURVE",
"326 646 CURVE SMOOTH",
"372 646 OFFCURVE",
"410 593 OFFCURVE",
"410 506 CURVE SMOOTH",
"410 407 OFFCURVE",
"370 352 OFFCURVE",
"328 352 CURVE SMOOTH"
);
}
);
width = 673;
},
{
layerId = "F2BD3FAB-8356-49CF-A55B-3E49BBA3F552";
paths = (
{
closed = 1;
nodes = (
"451 281 OFFCURVE",
"551 371 OFFCURVE",
"551 495 CURVE SMOOTH",
"551 637 OFFCURVE",
"458 725 OFFCURVE",
"300 725 CURVE SMOOTH",
"146 725 OFFCURVE",
"45 639 OFFCURVE",
"45 500 CURVE SMOOTH",
"45 369 OFFCURVE",
"142 281 OFFCURVE",
"289 281 CURVE SMOOTH"
);
},
{
closed = 1;
nodes = (
"155 0 LINE",
"155 191 LINE",
"57 191 LINE",
"57 0 LINE"
);
},
{
closed = 1;
nodes = (
"575 0 LINE",
"575 14 LINE SMOOTH",
"575 105 OFFCURVE",
"521 138 OFFCURVE",
"426 138 CURVE SMOOTH",
"106 138 LINE",
"106 94 LINE",
"389 94 LINE SMOOTH",
"446 94 OFFCURVE",
"474 73 OFFCURVE",
"474 17 CURVE SMOOTH",
"474 0 LINE"
);
},
{
closed = 1;
nodes = (
"358 107 OFFCURVE",
"551 231 OFFCURVE",
"551 495 CURVE",
"456 495 LINE",
"456 241 OFFCURVE",
"313 138 OFFCURVE",
"150 138 CURVE",
"150 99 LINE"
);
},
{
closed = 1;
nodes = (
"202 329 OFFCURVE",
"151 398 OFFCURVE",
"151 500 CURVE SMOOTH",
"151 611 OFFCURVE",
"208 678 OFFCURVE",
"300 678 CURVE SMOOTH",
"398 678 OFFCURVE",
"445 606 OFFCURVE",
"445 506 CURVE SMOOTH",
"445 399 OFFCURVE",
"394 329 OFFCURVE",
"297 329 CURVE SMOOTH"
);
}
);
width = 611;
},
{
layerId = "75A83886-EED5-4C31-9670-660514D8A4F6";
paths = (
{
closed = 1;
nodes = (
"420 278 OFFCURVE",
"541 367 OFFCURVE",
"541 484 CURVE SMOOTH",
"541 642 OFFCURVE",
"427 723 OFFCURVE",
"287 723 CURVE SMOOTH",
"142 723 OFFCURVE",
"36 636 OFFCURVE",
"36 494 CURVE SMOOTH",
"36 358 OFFCURVE",
"127 278 OFFCURVE",
"272 278 CURVE"
);
},
{
closed = 1;
nodes = (
"209 0 LINE",
"209 203 LINE",
"49 203 LINE",
"49 0 LINE"
);
},
{
closed = 1;
nodes = (
"565 0 LINE",
"565 14 LINE SMOOTH",
"565 111 OFFCURVE",
"513 152 OFFCURVE",
"392 152 CURVE SMOOTH",
"129 152 LINE",
"129 88 LINE",
"321 88 LINE SMOOTH",
"383 88 OFFCURVE",
"398 71 OFFCURVE",
"398 17 CURVE SMOOTH",
"398 0 LINE"
);
},
{
closed = 1;
nodes = (
"405 108 OFFCURVE",
"541 238 OFFCURVE",
"541 484 CURVE",
"372 484 LINE",
"372 235 OFFCURVE",
"323 152 OFFCURVE",
"203 152 CURVE",
"203 92 LINE"
);
},
{
closed = 1;
nodes = (
"244 346 OFFCURVE",
"213 394 OFFCURVE",
"213 494 CURVE SMOOTH",
"213 605 OFFCURVE",
"246 655 OFFCURVE",
"287 655 CURVE SMOOTH",
"330 655 OFFCURVE",
"364 607 OFFCURVE",
"364 506 CURVE SMOOTH",
"364 395 OFFCURVE",
"329 346 OFFCURVE",
"289 346 CURVE"
);
}
);
width = 592;
},
{
layerId = "E7C4F5EE-4982-479C-BF20-1C8706EFFC5D";
paths = (
{
closed = 1;
nodes = (
"353 283 OFFCURVE",
"427 372 OFFCURVE",
"427 501 CURVE SMOOTH",
"427 634 OFFCURVE",
"359 727 OFFCURVE",
"233 727 CURVE SMOOTH",
"112 727 OFFCURVE",
"35 640 OFFCURVE",
"35 504 CURVE SMOOTH",
"35 374 OFFCURVE",
"107 283 OFFCURVE",
"226 283 CURVE"
);
},
{
closed = 1;
nodes = (
"107 0 LINE",
"107 185 LINE",
"45 185 LINE",
"45 0 LINE"
);
},
{
closed = 1;
nodes = (
"446 0 LINE",
"446 13 LINE SMOOTH",
"446 102 OFFCURVE",
"407 131 OFFCURVE",
"337 131 CURVE SMOOTH",
"76 131 LINE",
"76 88 LINE",
"315 88 LINE SMOOTH",
"365 88 OFFCURVE",
"382 66 OFFCURVE",
"382 15 CURVE SMOOTH",
"382 0 LINE"
);
},
{
closed = 1;
nodes = (
"267 95 OFFCURVE",
"427 228 OFFCURVE",
"427 501 CURVE",
"365 501 LINE",
"365 245 OFFCURVE",
"239 131 OFFCURVE",
"104 131 CURVE",
"104 91 LINE"
);
},
{
closed = 1;
nodes = (
"146 326 OFFCURVE",
"102 394 OFFCURVE",
"102 504 CURVE SMOOTH",
"102 621 OFFCURVE",
"151 684 OFFCURVE",
"234 684 CURVE SMOOTH",
"321 684 OFFCURVE",
"360 611 OFFCURVE",
"360 507 CURVE SMOOTH",
"360 395 OFFCURVE",
"317 326 OFFCURVE",
"231 326 CURVE"
);
}
);
width = 473;
},
{
layerId = "5E7C5774-385D-4E06-B68E-CBE970134A7B";
paths = (
{
closed = 1;
nodes = (
"438 283 OFFCURVE",
"524 392 OFFCURVE",
"524 501 CURVE SMOOTH",
"524 634 OFFCURVE",
"445 727 OFFCURVE",
"288 727 CURVE SMOOTH",
"138 727 OFFCURVE",
"45 641 OFFCURVE",
"45 504 CURVE SMOOTH",
"45 375 OFFCURVE",
"130 283 OFFCURVE",
"279 283 CURVE SMOOTH"
);
},
{
closed = 1;
nodes = (
"119 0 LINE",
"119 185 LINE",
"56 185 LINE",
"56 0 LINE"
);
},
{
closed = 1;
nodes = (
"546 0 LINE",
"546 13 LINE SMOOTH",
"546 102 OFFCURVE",
"495 130 OFFCURVE",
"418 130 CURVE SMOOTH",
"88 130 LINE",
"88 96 LINE",
"399 96 LINE SMOOTH",
"450 96 OFFCURVE",
"482 74 OFFCURVE",
"482 15 CURVE SMOOTH",
"482 0 LINE"
);
},
{
closed = 1;
nodes = (
"315 103 OFFCURVE",
"524 227 OFFCURVE",
"524 501 CURVE",
"465 501 LINE",
"465 245 OFFCURVE",
"289 130 OFFCURVE",
"115 130 CURVE",
"115 100 LINE"
);
},
{
closed = 1;
nodes = (
"168 319 OFFCURVE",
"111 394 OFFCURVE",
"111 504 CURVE SMOOTH",
"111 621 OFFCURVE",
"176 691 OFFCURVE",
"287 691 CURVE SMOOTH",
"406 691 OFFCURVE",
"457 611 OFFCURVE",
"457 507 CURVE SMOOTH",
"457 395 OFFCURVE",
"401 319 OFFCURVE",
"283 319 CURVE SMOOTH"
);
}
);
width = 582;
},
{
layerId = "C91144B6-58F5-45F2-9CE4-7ED6CE127FD4";
paths = (
{
closed = 1;
nodes = (
"330 285 OFFCURVE",
"387 382 OFFCURVE",
"387 507 CURVE SMOOTH",
"387 631 OFFCURVE",
"336 728 OFFCURVE",
"215 728 CURVE SMOOTH",
"102 728 OFFCURVE",
"35 642 OFFCURVE",
"35 507 CURVE SMOOTH",
"35 380 OFFCURVE",
"94 285 OFFCURVE",
"210 285 CURVE SMOOTH"
);
},
{
closed = 1;
nodes = (
"71 0 LINE",
"71 179 LINE",
"43 179 LINE",
"43 0 LINE"
);
},
{
closed = 1;
nodes = (
"404 0 LINE",
"404 13 LINE SMOOTH",
"404 99 OFFCURVE",
"370 123 OFFCURVE",
"317 123 CURVE SMOOTH",
"57 123 LINE",
"57 98 LINE",
"313 98 LINE SMOOTH",
"358 98 OFFCURVE",
"376 74 OFFCURVE",
"376 14 CURVE SMOOTH",
"376 0 LINE"
);
},
{
closed = 1;
nodes = (
"218 100 OFFCURVE",
"387 224 OFFCURVE",
"387 507 CURVE",
"362 507 LINE",
"362 248 OFFCURVE",
"209 123 OFFCURVE",
"69 123 CURVE",
"69 100 LINE"
);
},
{
closed = 1;
nodes = (
"111 310 OFFCURVE",
"63 391 OFFCURVE",
"63 507 CURVE SMOOTH",
"63 630 OFFCURVE",
"118 703 OFFCURVE",
"215 703 CURVE SMOOTH",
"318 703 OFFCURVE",
"359 616 OFFCURVE",
"359 507 CURVE SMOOTH",
"359 392 OFFCURVE",
"313 310 OFFCURVE",
"210 310 CURVE SMOOTH"
);
}
);
width = 432;
},
{
layerId = "464843EB-0DE3-43AD-A7A6-94A12FE2EFF4";
paths = (
{
closed = 1;
nodes = (
"392 280 OFFCURVE",
"493 369 OFFCURVE",
"493 491 CURVE SMOOTH",
"493 639 OFFCURVE",
"398 725 OFFCURVE",
"264 725 CURVE SMOOTH",
"129 725 OFFCURVE",
"36 638 OFFCURVE",
"36 498 CURVE SMOOTH",
"36 365 OFFCURVE",
"119 280 OFFCURVE",
"253 280 CURVE"
);
},
{
closed = 1;
nodes = (
"166 0 LINE",
"166 195 LINE",
"47 195 LINE",
"47 0 LINE"
);
},
{
closed = 1;
nodes = (
"515 0 LINE",
"515 14 LINE SMOOTH",
"515 107 OFFCURVE",
"468 143 OFFCURVE",
"369 143 CURVE SMOOTH",
"107 143 LINE",
"107 88 LINE",
"318 88 LINE SMOOTH",
"375 88 OFFCURVE",
"391 69 OFFCURVE",
"391 16 CURVE SMOOTH",
"391 0 LINE"
);
},
{
closed = 1;
nodes = (
"347 103 OFFCURVE",
"493 234 OFFCURVE",
"493 491 CURVE",
"369 491 LINE",
"369 239 OFFCURVE",
"288 143 OFFCURVE",
"161 143 CURVE",
"161 92 LINE"
);
},
{
closed = 1;
nodes = (
"203 338 OFFCURVE",
"166 394 OFFCURVE",
"166 498 CURVE SMOOTH",
"166 612 OFFCURVE",
"206 667 OFFCURVE",
"265 667 CURVE SMOOTH",
"326 667 OFFCURVE",
"362 609 OFFCURVE",
"362 506 CURVE SMOOTH",
"362 395 OFFCURVE",
"324 338 OFFCURVE",
"265 338 CURVE"
);
}
);
width = 542;
}
);
leftKerningGroup = uni0541;
note = uni0536;
rightKerningGroup = uni0536;
unicode = 0536;
},
{
glyphname = uni0537;
lastChange = "2016-06-23 14:14:42 +0000";
layers = (
{
layerId = "84BA7A8F-8561-401A-9117-1E5C8963A832";
paths = (
{
closed = 1;
nodes = (
"116 714 LINE",
"33 714 LINE",
"33 694 LINE",
"80 694 OFFCURVE",
"88 683 OFFCURVE",
"88 606 CURVE SMOOTH",
"88 0 LINE SMOOTH",
"116 20 LINE"
);
},
{
closed = 1;
nodes = (
"411 457 LINE",
"411 482 LINE",
"107 482 LINE",
"107 457 LINE"
);
},
{
closed = 1;
nodes = (
"237 90 OFFCURVE",
"155 67 OFFCURVE",
"88 25 CURVE",
"88 0 LINE",
"157 41 OFFCURVE",
"235 65 OFFCURVE",
"297 65 CURVE SMOOTH",
"359 65 OFFCURVE",
"387 44 OFFCURVE",
"387 -36 CURVE SMOOTH",
"387 -62 LINE",
"415 -62 LINE",
"415 -37 LINE SMOOTH",
"415 63 OFFCURVE",
"371 90 OFFCURVE",
"297 90 CURVE SMOOTH"
);
}
);
width = 461;
},
{
layerId = "505CC2C5-1E9F-4C44-A700-7A06363E8A84";
paths = (
{
closed = 1;
nodes = (
"258 714 LINE",
"54 714 LINE",
"54 663 LINE",
"93 663 OFFCURVE",
"100 653 OFFCURVE",
"100 600 CURVE SMOOTH",
"100 0 LINE",
"258 45 LINE"
);
},
{
closed = 1;
nodes = (
"549 433 LINE",
"549 493 LINE",
"194 493 LINE",
"194 433 LINE"
);
},
{
closed = 1;
nodes = (
"307 104 OFFCURVE",
"225 86 OFFCURVE",
"100 42 CURVE",
"100 0 LINE",
"171 20 OFFCURVE",
"274 42 OFFCURVE",
"314 42 CURVE SMOOTH",
"380 42 OFFCURVE",
"401 21 OFFCURVE",
"401 -33 CURVE SMOOTH",
"401 -62 LINE",
"559 -62 LINE",
"559 -38 LINE SMOOTH",
"559 58 OFFCURVE",
"502 104 OFFCURVE",
"379 104 CURVE SMOOTH"
);
}
);
width = 613;
},
{
layerId = "4BFBD32C-75C4-41CA-8E17-65E778BAAADA";
paths = (
{
closed = 1;
nodes = (
"295 714 LINE",
"57 714 LINE",
"57 654 LINE",
"94 654 OFFCURVE",
"101 645 OFFCURVE",
"101 598 CURVE SMOOTH",
"101 0 LINE",
"295 52 LINE"
);
},
{
closed = 1;
nodes = (
"584 426 LINE",
"584 496 LINE",
"215 496 LINE",
"215 426 LINE"
);
},
{
closed = 1;
nodes = (
"323 116 OFFCURVE",
"241 99 OFFCURVE",
"100 55 CURVE",
"100 0 LINE",
"172 20 OFFCURVE",
"261 36 OFFCURVE",
"315 36 CURVE SMOOTH",
"382 36 OFFCURVE",
"402 15 OFFCURVE",
"402 -32 CURVE SMOOTH",
"402 -62 LINE",
"596 -62 LINE",
"596 -35 LINE SMOOTH",
"596 63 OFFCURVE",
"535 116 OFFCURVE",
"398 116 CURVE SMOOTH"
);
}
);
width = 649;
},
{
layerId = "F2BD3FAB-8356-49CF-A55B-3E49BBA3F552";
paths = (
{
closed = 1;
nodes = (
"201 714 LINE",
"50 714 LINE",
"50 677 LINE",
"93 677 OFFCURVE",
"100 666 OFFCURVE",
"100 603 CURVE SMOOTH",
"100 0 LINE",
"201 34 LINE"
);
},
{
closed = 1;
nodes = (
"494 444 LINE",
"494 488 LINE",
"161 488 LINE",
"161 444 LINE"
);
},
{
closed = 1;
nodes = (
"282 98 OFFCURVE",
"200 78 OFFCURVE",
"100 35 CURVE",
"100 0 LINE",
"170 29 OFFCURVE",
"262 52 OFFCURVE",
"312 52 CURVE SMOOTH",
"376 52 OFFCURVE",
"400 31 OFFCURVE",
"400 -34 CURVE SMOOTH",
"400 -62 LINE",
"501 -62 LINE",
"501 -38 LINE SMOOTH",
"501 60 OFFCURVE",
"450 98 OFFCURVE",
"348 98 CURVE SMOOTH"
);
}
);
width = 556;
},
{
layerId = "75A83886-EED5-4C31-9670-660514D8A4F6";
paths = (
{
closed = 1;
nodes = (
"247 714 LINE",
"26 714 LINE",
"26 658 LINE",
"66 658 OFFCURVE",
"80 653 OFFCURVE",
"80 599 CURVE SMOOTH",
"80 0 LINE",
"247 70 LINE"
);
},
{
closed = 1;
nodes = (
"508 427 LINE",
"508 491 LINE",
"227 491 LINE",
"227 427 LINE"
);
},
{
closed = 1;
nodes = (
"275 114 OFFCURVE",
"203 97 OFFCURVE",
"80 53 CURVE",
"80 0 LINE",
"144 22 OFFCURVE",
"228 40 OFFCURVE",
"271 40 CURVE SMOOTH",
"329 40 OFFCURVE",
"347 19 OFFCURVE",
"347 -32 CURVE SMOOTH",
"347 -62 LINE",
"514 -62 LINE",
"514 -32 LINE SMOOTH",
"514 65 OFFCURVE",
"460 114 OFFCURVE",
"342 114 CURVE SMOOTH"
);
}
);
width = 556;
},
{
layerId = "E7C4F5EE-4982-479C-BF20-1C8706EFFC5D";
paths = (
{
closed = 1;
nodes = (
"148 714 LINE",
"33 714 LINE",
"33 679 LINE",
"77 679 OFFCURVE",
"84 669 OFFCURVE",
"84 600 CURVE SMOOTH",
"84 0 LINE",
"148 40 LINE"
);
},
{
closed = 1;
nodes = (
"383 441 LINE",
"383 484 LINE",
"132 484 LINE",
"132 441 LINE"
);
},
{
closed = 1;
nodes = (
"221 106 OFFCURVE",
"156 85 OFFCURVE",
"84 42 CURVE",
"84 0 LINE",
"140 36 OFFCURVE",
"207 59 OFFCURVE",
"253 59 CURVE SMOOTH",
"303 59 OFFCURVE",
"324 38 OFFCURVE",
"324 -35 CURVE SMOOTH",
"324 -62 LINE",
"388 -62 LINE",
"388 -36 LINE SMOOTH",
"388 74 OFFCURVE",
"348 106 OFFCURVE",
"273 106 CURVE SMOOTH"
);
}
);
width = 434;
},
{
layerId = "5E7C5774-385D-4E06-B68E-CBE970134A7B";
paths = (
{
closed = 1;
nodes = (
"167 714 LINE",
"50 714 LINE",
"50 686 LINE",
"95 686 OFFCURVE",
"103 675 OFFCURVE",
"103 605 CURVE SMOOTH",
"103 0 LINE",
"167 27 LINE"
);
},
{
closed = 1;
nodes = (
"460 451 LINE",
"460 485 LINE",
"142 485 LINE",
"142 451 LINE"
);
},
{
closed = 1;
nodes = (
"268 94 OFFCURVE",
"186 72 OFFCURVE",
"103 30 CURVE",
"103 0 LINE",
"172 35 OFFCURVE",
"257 59 OFFCURVE",
"313 59 CURVE SMOOTH",
"376 59 OFFCURVE",
"402 38 OFFCURVE",
"402 -35 CURVE SMOOTH",
"402 -62 LINE",
"466 -62 LINE",
"466 -37 LINE SMOOTH",
"466 62 OFFCURVE",
"419 94 OFFCURVE",
"331 94 CURVE SMOOTH"
);
}
);
width = 521;
},
{
layerId = "C91144B6-58F5-45F2-9CE4-7ED6CE127FD4";
paths = (
{
closed = 1;
nodes = (
"114 714 LINE",
"36 714 LINE",
"36 694 LINE",
"82 694 OFFCURVE",
"86 683 OFFCURVE",
"86 609 CURVE SMOOTH",
"86 0 LINE",
"114 30 LINE"
);
},
{
closed = 1;
nodes = (
"339 457 LINE",
"339 482 LINE",
"99 482 LINE",
"99 457 LINE"
);
},
{
closed = 1;
nodes = (
"203 90 OFFCURVE",
"140 67 OFFCURVE",
"86 25 CURVE",
"86 0 LINE",
"139 41 OFFCURVE",
"200 65 OFFCURVE",
"247 65 CURVE SMOOTH",
"295 65 OFFCURVE",
"316 44 OFFCURVE",
"316 -36 CURVE SMOOTH",
"316 -62 LINE",
"344 -62 LINE",
"344 -37 LINE SMOOTH",
"344 63 OFFCURVE",
"309 90 OFFCURVE",
"250 90 CURVE SMOOTH"
);
}
);
width = 392;
},
{
layerId = "464843EB-0DE3-43AD-A7A6-94A12FE2EFF4";
paths = (
{
closed = 1;
nodes = (
"205 714 LINE",
"29 714 LINE",
"29 667 LINE",
"71 667 OFFCURVE",
"82 660 OFFCURVE",
"82 599 CURVE SMOOTH",
"82 0 LINE",
"205 57 LINE"
);
},
{
closed = 1;
nodes = (
"456 433 LINE",
"456 488 LINE",
"187 488 LINE",
"187 433 LINE"
);
},
{
closed = 1;
nodes = (
"252 111 OFFCURVE",
"183 92 OFFCURVE",
"82 48 CURVE",
"82 0 LINE",
"142 28 OFFCURVE",
"219 48 OFFCURVE",
"263 48 CURVE SMOOTH",
"318 48 OFFCURVE",
"337 27 OFFCURVE",
"337 -33 CURVE SMOOTH",
"337 -62 LINE",
"461 -62 LINE",
"461 -34 LINE SMOOTH",
"461 69 OFFCURVE",
"413 111 OFFCURVE",
"313 111 CURVE SMOOTH"
);
}
);
width = 505;
}
);
note = uni0537;
rightKerningGroup = uni0537;
unicode = 0537;
},
{
glyphname = uni0538;
lastChange = "2016-06-23 14:14:42 +0000";
layers = (
{
layerId = "84BA7A8F-8561-401A-9117-1E5C8963A832";
paths = (
{
closed = 1;
nodes = (
"146 724 OFFCURVE",
"82 626 OFFCURVE",
"82 496 CURVE SMOOTH",
"82 0 LINE",
"110 0 LINE",
"110 495 LINE SMOOTH",
"110 608 OFFCURVE",
"162 699 OFFCURVE",
"293 699 CURVE SMOOTH",
"407 699 OFFCURVE",
"474 638 OFFCURVE",
"474 504 CURVE SMOOTH",
"474 358 LINE",
"502 358 LINE",
"502 500 LINE SMOOTH",
"502 663 OFFCURVE",
"419 724 OFFCURVE",
"291 724 CURVE SMOOTH"
);
},
{
closed = 1;
nodes = (
"512 0 LINE",
"512 25 LINE",
"101 25 LINE",
"101 0 LINE"
);
}
);
width = 584;
},
{
layerId = "505CC2C5-1E9F-4C44-A700-7A06363E8A84";
paths = (
{
closed = 1;
nodes = (
"203 724 OFFCURVE",
"100 641 OFFCURVE",
"100 491 CURVE SMOOTH",
"100 0 LINE",
"258 0 LINE",
"258 516 LINE SMOOTH",
"258 608 OFFCURVE",
"302 659 OFFCURVE",
"380 659 CURVE SMOOTH",
"459 659 OFFCURVE",
"503 609 OFFCURVE",
"503 516 CURVE SMOOTH",
"503 349 LINE",
"661 349 LINE",
"661 491 LINE SMOOTH",
"661 640 OFFCURVE",
"558 724 OFFCURVE",
"380 724 CURVE SMOOTH"
);
},
{
closed = 1;
nodes = (
"681 0 LINE",
"681 60 LINE",
"248 60 LINE",
"248 0 LINE"
);
}
);
width = 741;
},
{
layerId = "4BFBD32C-75C4-41CA-8E17-65E778BAAADA";
paths = (
{
closed = 1;
nodes = (
"213 724 OFFCURVE",
"99 645 OFFCURVE",
"99 490 CURVE SMOOTH",
"99 0 LINE",
"293 0 LINE",
"293 522 LINE SMOOTH",
"293 608 OFFCURVE",
"335 648 OFFCURVE",
"398 648 CURVE SMOOTH",
"467 648 OFFCURVE",
"505 601 OFFCURVE",
"505 519 CURVE SMOOTH",
"505 347 LINE",
"699 347 LINE",
"699 489 LINE SMOOTH",
"699 634 OFFCURVE",
"591 724 OFFCURVE",
"399 724 CURVE SMOOTH"
);
},
{
closed = 1;
nodes = (
"722 0 LINE",
"722 70 LINE",
"283 70 LINE",
"283 0 LINE"
);
}
);
width = 782;
},
{
layerId = "F2BD3FAB-8356-49CF-A55B-3E49BBA3F552";
paths = (
{
closed = 1;
nodes = (
"187 724 OFFCURVE",
"101 634 OFFCURVE",
"101 493 CURVE SMOOTH",
"101 0 LINE",
"202 0 LINE",
"202 507 LINE SMOOTH",
"202 608 OFFCURVE",
"250 677 OFFCURVE",
"351 677 CURVE SMOOTH",
"445 677 OFFCURVE",
"499 622 OFFCURVE",
"499 511 CURVE SMOOTH",
"499 353 LINE",
"600 353 LINE",
"600 495 LINE SMOOTH",
"600 650 OFFCURVE",
"506 724 OFFCURVE",
"350 724 CURVE SMOOTH"
);
},
{
closed = 1;
nodes = (
"616 0 LINE",
"616 45 LINE",
"193 45 LINE",
"193 0 LINE"
);
}
);
width = 682;
},
{
layerId = "75A83886-EED5-4C31-9670-660514D8A4F6";
paths = (
{
closed = 1;
nodes = (
"148 724 OFFCURVE",
"78 634 OFFCURVE",
"78 500 CURVE SMOOTH",
"78 0 LINE",
"245 0 LINE",
"245 498 LINE SMOOTH",
"245 603 OFFCURVE",
"278 650 OFFCURVE",
"329 650 CURVE SMOOTH",
"393 650 OFFCURVE",
"419 615 OFFCURVE",
"419 504 CURVE SMOOTH",
"419 420 LINE",
"586 420 LINE",
"586 496 LINE SMOOTH",
"586 660 OFFCURVE",
"491 724 OFFCURVE",
"331 724 CURVE SMOOTH"
);
},
{
closed = 1;
nodes = (
"578 0 LINE",
"578 64 LINE",
"227 64 LINE",
"227 0 LINE"
);
}
);
width = 640;
},
{
layerId = "E7C4F5EE-4982-479C-BF20-1C8706EFFC5D";
paths = (
{
closed = 1;
nodes = (
"142 724 OFFCURVE",
"82 627 OFFCURVE",
"82 510 CURVE SMOOTH",
"82 0 LINE",
"146 0 LINE",
"146 508 LINE SMOOTH",
"146 601 OFFCURVE",
"183 677 OFFCURVE",
"280 677 CURVE SMOOTH",
"361 677 OFFCURVE",
"411 634 OFFCURVE",
"411 504 CURVE SMOOTH",
"411 413 LINE",
"475 413 LINE",
"475 499 LINE SMOOTH",
"475 659 OFFCURVE",
"399 724 OFFCURVE",
"281 724 CURVE SMOOTH"
);
},
{
closed = 1;
nodes = (
"467 0 LINE",
"467 43 LINE",
"132 43 LINE",
"132 0 LINE"
);
}
);
width = 535;
},
{
layerId = "5E7C5774-385D-4E06-B68E-CBE970134A7B";
paths = (
{
closed = 1;
nodes = (
"176 724 OFFCURVE",
"101 630 OFFCURVE",
"101 495 CURVE SMOOTH",
"101 0 LINE",
"165 0 LINE",
"165 501 LINE SMOOTH",
"165 608 OFFCURVE",
"215 688 OFFCURVE",
"331 688 CURVE SMOOTH",
"435 688 OFFCURVE",
"496 630 OFFCURVE",
"496 507 CURVE SMOOTH",
"496 356 LINE",
"560 356 LINE",
"560 498 LINE SMOOTH",
"560 657 OFFCURVE",
"472 724 OFFCURVE",
"330 724 CURVE SMOOTH"
);
},
{
closed = 1;
nodes = (
"573 0 LINE",
"573 35 LINE",
"156 35 LINE",
"156 0 LINE"
);
}
);
width = 639;
},
{
layerId = "C91144B6-58F5-45F2-9CE4-7ED6CE127FD4";
paths = (
{
closed = 1;
nodes = (
"141 724 OFFCURVE",
"84 625 OFFCURVE",
"84 514 CURVE SMOOTH",
"84 0 LINE",
"112 0 LINE",
"112 512 LINE SMOOTH",
"112 600 OFFCURVE",
"151 699 OFFCURVE",
"263 699 CURVE SMOOTH",
"351 699 OFFCURVE",
"409 640 OFFCURVE",
"409 504 CURVE SMOOTH",
"409 410 LINE",
"437 410 LINE",
"437 500 LINE SMOOTH",
"437 659 OFFCURVE",
"367 724 OFFCURVE",
"264 724 CURVE SMOOTH"
);
},
{
closed = 1;
nodes = (
"429 0 LINE",
"429 25 LINE",
"99 25 LINE",
"99 0 LINE"
);
}
);
width = 499;
},
{
layerId = "464843EB-0DE3-43AD-A7A6-94A12FE2EFF4";
paths = (
{
closed = 1;
nodes = (
"145 724 OFFCURVE",
"80 631 OFFCURVE",
"80 504 CURVE SMOOTH",
"80 0 LINE",
"203 0 LINE",
"203 502 LINE SMOOTH",
"203 602 OFFCURVE",
"238 661 OFFCURVE",
"308 661 CURVE SMOOTH",
"380 661 OFFCURVE",
"416 623 OFFCURVE",
"416 504 CURVE SMOOTH",
"416 417 LINE",
"539 417 LINE",
"539 497 LINE SMOOTH",
"539 660 OFFCURVE",
"452 724 OFFCURVE",
"310 724 CURVE SMOOTH"
);
},
{
closed = 1;
nodes = (
"531 0 LINE",
"531 55 LINE",
"187 55 LINE",
"187 0 LINE"
);
}
);
width = 596;
}
);
leftKerningGroup = uni0548;
note = uni0538;
unicode = 0538;
},
{
glyphname = uni0539;
lastChange = "2016-06-23 14:14:42 +0000";
layers = (
{
layerId = "84BA7A8F-8561-401A-9117-1E5C8963A832";
paths = (
{
closed = 1;
nodes = (
"166 20 LINE",
"116 20 OFFCURVE",
"110 31 OFFCURVE",
"110 108 CURVE SMOOTH",
"110 495 LINE SMOOTH",
"110 611 OFFCURVE",
"173 699 OFFCURVE",
"339 699 CURVE SMOOTH",
"485 699 OFFCURVE",
"566 624 OFFCURVE",
"566 448 CURVE",
"594 448 LINE",
"594 648 OFFCURVE",
"497 724 OFFCURVE",
"337 724 CURVE SMOOTH",
"158 724 OFFCURVE",
"82 626 OFFCURVE",
"82 496 CURVE SMOOTH",
"82 0 LINE",
"166 0 LINE"
);
},
{
closed = 1;
nodes = (
"566 430 LINE",
"566 229 OFFCURVE",
"516 163 OFFCURVE",
"424 163 CURVE SMOOTH",
"343 163 OFFCURVE",
"300 211 OFFCURVE",
"300 297 CURVE SMOOTH",
"300 401 OFFCURVE",
"372 430 OFFCURVE",
"474 430 CURVE SMOOTH"
);
},
{
closed = 1;
nodes = (
"474 455 LINE SMOOTH",
"353 455 OFFCURVE",
"272 414 OFFCURVE",
"272 297 CURVE SMOOTH",
"272 188 OFFCURVE",
"330 138 OFFCURVE",
"424 138 CURVE SMOOTH",
"534 138 OFFCURVE",
"594 213 OFFCURVE",
"594 430 CURVE",
"698 430 LINE",
"698 455 LINE"
);
}
);
width = 704;
},
{
layerId = "505CC2C5-1E9F-4C44-A700-7A06363E8A84";
paths = (
{
closed = 1;
nodes = (
"303 51 LINE",
"264 51 OFFCURVE",
"258 61 OFFCURVE",
"258 114 CURVE SMOOTH",
"258 490 LINE SMOOTH",
"258 608 OFFCURVE",
"322 659 OFFCURVE",
"434 659 CURVE SMOOTH",
"548 659 OFFCURVE",
"612 611 OFFCURVE",
"612 457 CURVE",
"770 457 LINE",
"770 640 OFFCURVE",
"647 724 OFFCURVE",
"434 724 CURVE SMOOTH",
"223 724 OFFCURVE",
"100 641 OFFCURVE",
"100 491 CURVE SMOOTH",
"100 0 LINE",
"303 0 LINE"
);
},
{
closed = 1;
nodes = (
"612 421 LINE",
"612 221 OFFCURVE",
"598 187 OFFCURVE",
"544 187 CURVE SMOOTH",
"496 187 OFFCURVE",
"485 223 OFFCURVE",
"485 300 CURVE SMOOTH",
"485 377 OFFCURVE",
"514 421 OFFCURVE",
"571 421 CURVE SMOOTH"
);
},
{
closed = 1;
nodes = (
"544 481 LINE SMOOTH",
"406 481 OFFCURVE",
"340 413 OFFCURVE",
"340 311 CURVE SMOOTH",
"340 194 OFFCURVE",
"400 127 OFFCURVE",
"544 127 CURVE SMOOTH",
"692 127 OFFCURVE",
"770 221 OFFCURVE",
"770 421 CURVE",
"846 421 LINE",
"846 481 LINE"
);
}
);
width = 851;
},
{
layerId = "4BFBD32C-75C4-41CA-8E17-65E778BAAADA";
paths = (
{
closed = 1;
nodes = (
"335 60 LINE",
"299 60 OFFCURVE",
"293 69 OFFCURVE",
"293 116 CURVE SMOOTH",
"293 489 LINE SMOOTH",
"293 608 OFFCURVE",
"357 648 OFFCURVE",
"454 648 CURVE SMOOTH",
"559 648 OFFCURVE",
"619 607 OFFCURVE",
"619 459 CURVE",
"813 459 LINE",
"813 638 OFFCURVE",
"683 724 OFFCURVE",
"455 724 CURVE SMOOTH",
"235 724 OFFCURVE",
"99 645 OFFCURVE",
"99 490 CURVE SMOOTH",
"99 0 LINE",
"335 0 LINE"
);
},
{
closed = 1;
nodes = (
"619 418 LINE",
"619 218 OFFCURVE",
"614 194 OFFCURVE",
"571 194 CURVE SMOOTH",
"539 194 OFFCURVE",
"530 219 OFFCURVE",
"530 301 CURVE SMOOTH",
"530 370 OFFCURVE",
"544 418 OFFCURVE",
"578 418 CURVE SMOOTH"
);
},
{
closed = 1;
nodes = (
"543 488 LINE SMOOTH",
"412 488 OFFCURVE",
"353 413 OFFCURVE",
"353 315 CURVE SMOOTH",
"353 196 OFFCURVE",
"414 124 OFFCURVE",
"571 124 CURVE SMOOTH",
"730 124 OFFCURVE",
"813 225 OFFCURVE",
"813 418 CURVE",
"881 418 LINE",
"881 488 LINE"
);
}
);
width = 885;
},
{
layerId = "F2BD3FAB-8356-49CF-A55B-3E49BBA3F552";
paths = (
{
closed = 1;
nodes = (
"252 37 LINE",
"208 37 OFFCURVE",
"202 48 OFFCURVE",
"202 111 CURVE SMOOTH",
"202 492 LINE SMOOTH",
"202 608 OFFCURVE",
"266 677 OFFCURVE",
"401 677 CURVE SMOOTH",
"529 677 OFFCURVE",
"601 617 OFFCURVE",
"601 453 CURVE",
"702 453 LINE",
"702 644 OFFCURVE",
"590 724 OFFCURVE",
"400 724 CURVE SMOOTH",
"203 724 OFFCURVE",
"101 634 OFFCURVE",
"101 493 CURVE SMOOTH",
"101 0 LINE",
"252 0 LINE"
);
},
{
closed = 1;
nodes = (
"601 425 LINE",
"601 225 OFFCURVE",
"571 176 OFFCURVE",
"501 176 CURVE SMOOTH",
"438 176 OFFCURVE",
"413 219 OFFCURVE",
"413 299 CURVE SMOOTH",
"413 388 OFFCURVE",
"465 425 OFFCURVE",
"529 425 CURVE SMOOTH"
);
},
{
closed = 1;
nodes = (
"521 470 LINE SMOOTH",
"396 470 OFFCURVE",
"319 413 OFFCURVE",
"319 305 CURVE SMOOTH",
"319 191 OFFCURVE",
"378 132 OFFCURVE",
"500 132 CURVE SMOOTH",
"632 132 OFFCURVE",
"702 213 OFFCURVE",
"702 425 CURVE",
"790 425 LINE",
"790 470 LINE"
);
}
);
width = 798;
},
{
layerId = "75A83886-EED5-4C31-9670-660514D8A4F6";
paths = (
{
closed = 1;
nodes = (
"299 56 LINE",
"269 56 OFFCURVE",
"245 63 OFFCURVE",
"245 115 CURVE SMOOTH",
"245 498 LINE SMOOTH",
"245 603 OFFCURVE",
"301 650 OFFCURVE",
"387 650 CURVE SMOOTH",
"496 650 OFFCURVE",
"540 600 OFFCURVE",
"540 474 CURVE",
"707 464 LINE",
"707 643 OFFCURVE",
"589 724 OFFCURVE",
"391 724 CURVE SMOOTH",
"165 724 OFFCURVE",
"78 634 OFFCURVE",
"78 500 CURVE SMOOTH",
"78 0 LINE",
"299 0 LINE"
);
},
{
closed = 1;
nodes = (
"540 419 LINE",
"540 219 OFFCURVE",
"535 189 OFFCURVE",
"495 189 CURVE SMOOTH",
"460 189 OFFCURVE",
"457 223 OFFCURVE",
"457 301 CURVE SMOOTH",
"457 375 OFFCURVE",
"471 419 OFFCURVE",
"504 419 CURVE SMOOTH"
);
},
{
closed = 1;
nodes = (
"474 483 LINE SMOOTH",
"358 483 OFFCURVE",
"305 413 OFFCURVE",
"305 312 CURVE SMOOTH",
"305 194 OFFCURVE",
"359 126 OFFCURVE",
"496 126 CURVE SMOOTH",
"635 126 OFFCURVE",
"707 220 OFFCURVE",
"707 419 CURVE",
"768 419 LINE",
"768 483 LINE"
);
}
);
width = 772;
},
{
layerId = "E7C4F5EE-4982-479C-BF20-1C8706EFFC5D";
paths = (
{
closed = 1;
nodes = (
"201 35 LINE",
"157 35 OFFCURVE",
"146 45 OFFCURVE",
"146 115 CURVE SMOOTH",
"146 508 LINE SMOOTH",
"146 621 OFFCURVE",
"192 677 OFFCURVE",
"302 677 CURVE SMOOTH",
"400 677 OFFCURVE",
"458 630 OFFCURVE",
"458 456 CURVE",
"522 454 LINE",
"522 655 OFFCURVE",
"436 724 OFFCURVE",
"304 724 CURVE SMOOTH",
"150 724 OFFCURVE",
"82 637 OFFCURVE",
"82 510 CURVE SMOOTH",
"82 0 LINE",
"201 0 LINE"
);
},
{
closed = 1;
nodes = (
"458 419 LINE",
"458 218 OFFCURVE",
"430 180 OFFCURVE",
"368 180 CURVE SMOOTH",
"314 180 OFFCURVE",
"290 217 OFFCURVE",
"290 298 CURVE SMOOTH",
"290 394 OFFCURVE",
"338 419 OFFCURVE",
"424 419 CURVE SMOOTH"
);
},
{
closed = 1;
nodes = (
"416 462 LINE SMOOTH",
"292 462 OFFCURVE",
"230 414 OFFCURVE",
"230 301 CURVE SMOOTH",
"230 195 OFFCURVE",
"277 135 OFFCURVE",
"368 135 CURVE SMOOTH",
"468 135 OFFCURVE",
"522 199 OFFCURVE",
"522 419 CURVE",
"589 419 LINE",
"589 462 LINE"
);
}
);
width = 595;
},
{
layerId = "5E7C5774-385D-4E06-B68E-CBE970134A7B";
paths = (
{
closed = 1;
nodes = (
"218 28 LINE",
"171 28 OFFCURVE",
"165 39 OFFCURVE",
"165 109 CURVE SMOOTH",
"165 476 LINE SMOOTH",
"165 618 OFFCURVE",
"228 688 OFFCURVE",
"379 688 CURVE SMOOTH",
"516 688 OFFCURVE",
"593 621 OFFCURVE",
"593 450 CURVE",
"657 450 LINE",
"657 646 OFFCURVE",
"552 724 OFFCURVE",
"378 724 CURVE SMOOTH",
"190 724 OFFCURVE",
"101 640 OFFCURVE",
"101 476 CURVE SMOOTH",
"101 0 LINE",
"218 0 LINE"
);
},
{
closed = 1;
nodes = (
"593 428 LINE",
"593 227 OFFCURVE",
"552 169 OFFCURVE",
"471 169 CURVE SMOOTH",
"399 169 OFFCURVE",
"365 217 OFFCURVE",
"365 298 CURVE SMOOTH",
"365 395 OFFCURVE",
"432 428 OFFCURVE",
"505 428 CURVE SMOOTH"
);
},
{
closed = 1;
nodes = (
"504 462 LINE SMOOTH",
"389 462 OFFCURVE",
"305 414 OFFCURVE",
"305 301 CURVE SMOOTH",
"305 189 OFFCURVE",
"363 135 OFFCURVE",
"471 135 CURVE SMOOTH",
"592 135 OFFCURVE",
"657 208 OFFCURVE",
"657 428 CURVE",
"753 428 LINE",
"753 462 LINE"
);
}
);
width = 761;
},
{
layerId = "C91144B6-58F5-45F2-9CE4-7ED6CE127FD4";
paths = (
{
closed = 1;
nodes = (
"168 20 LINE",
"118 20 OFFCURVE",
"112 31 OFFCURVE",
"112 107 CURVE SMOOTH",
"112 512 LINE SMOOTH",
"112 620 OFFCURVE",
"155 699 OFFCURVE",
"262 699 CURVE SMOOTH",
"367 699 OFFCURVE",
"429 640 OFFCURVE",
"429 450 CURVE",
"457 450 LINE",
"457 659 OFFCURVE",
"383 724 OFFCURVE",
"263 724 CURVE SMOOTH",
"145 724 OFFCURVE",
"84 645 OFFCURVE",
"84 514 CURVE SMOOTH",
"84 0 LINE",
"168 0 LINE"
);
},
{
closed = 1;
nodes = (
"429 430 LINE",
"429 229 OFFCURVE",
"392 163 OFFCURVE",
"323 163 CURVE SMOOTH",
"262 163 OFFCURVE",
"231 215 OFFCURVE",
"231 297 CURVE SMOOTH",
"231 401 OFFCURVE",
"291 430 OFFCURVE",
"367 430 CURVE SMOOTH"
);
},
{
closed = 1;
nodes = (
"366 455 LINE SMOOTH",
"269 455 OFFCURVE",
"204 414 OFFCURVE",
"204 297 CURVE SMOOTH",
"204 188 OFFCURVE",
"248 138 OFFCURVE",
"323 138 CURVE SMOOTH",
"410 138 OFFCURVE",
"457 207 OFFCURVE",
"457 430 CURVE",
"527 430 LINE",
"527 455 LINE"
);
}
);
width = 533;
},
{
layerId = "464843EB-0DE3-43AD-A7A6-94A12FE2EFF4";
paths = (
{
closed = 1;
nodes = (
"258 47 LINE",
"222 47 OFFCURVE",
"203 55 OFFCURVE",
"203 115 CURVE SMOOTH",
"203 502 LINE SMOOTH",
"203 611 OFFCURVE",
"255 661 OFFCURVE",
"351 661 CURVE SMOOTH",
"456 661 OFFCURVE",
"506 613 OFFCURVE",
"506 466 CURVE",
"629 460 LINE",
"629 648 OFFCURVE",
"525 724 OFFCURVE",
"354 724 CURVE SMOOTH",
"159 724 OFFCURVE",
"80 635 OFFCURVE",
"80 504 CURVE SMOOTH",
"80 0 LINE",
"258 0 LINE"
);
},
{
closed = 1;
nodes = (
"506 419 LINE",
"506 219 OFFCURVE",
"491 185 OFFCURVE",
"442 185 CURVE SMOOTH",
"399 185 OFFCURVE",
"387 220 OFFCURVE",
"387 300 CURVE SMOOTH",
"387 383 OFFCURVE",
"415 419 OFFCURVE",
"470 419 CURVE SMOOTH"
);
},
{
closed = 1;
nodes = (
"450 474 LINE SMOOTH",
"330 474 OFFCURVE",
"274 413 OFFCURVE",
"274 307 CURVE SMOOTH",
"274 194 OFFCURVE",
"325 130 OFFCURVE",
"442 130 CURVE SMOOTH",
"565 130 OFFCURVE",
"629 211 OFFCURVE",
"629 419 CURVE",
"693 419 LINE",
"693 474 LINE"
);
}
);
width = 698;
}
);
leftKerningGroup = uni0548;
note = uni0539;
rightKerningGroup = uni0543;
unicode = 0539;
},
{
glyphname = uni053A;
lastChange = "2016-06-23 14:14:42 +0000";
layers = (
{
layerId = "84BA7A8F-8561-401A-9117-1E5C8963A832";
paths = (
{
closed = 1;
nodes = (
"398 -10 OFFCURVE",
"449 73 OFFCURVE",
"449 212 CURVE SMOOTH",
"449 714 LINE",
"355 714 LINE",
"355 694 LINE",
"415 694 OFFCURVE",
"421 683 OFFCURVE",
"421 606 CURVE SMOOTH",
"421 458 LINE",
"320 458 LINE SMOOTH",
"154 458 OFFCURVE",
"46 378 OFFCURVE",
"46 226 CURVE SMOOTH",
"46 69 OFFCURVE",
"118 -10 OFFCURVE",
"252 -10 CURVE SMOOTH"
);
},
{
closed = 1;
nodes = (
"130 15 OFFCURVE",
"74 99 OFFCURVE",
"74 227 CURVE SMOOTH",
"74 366 OFFCURVE",
"176 433 OFFCURVE",
"320 433 CURVE SMOOTH",
"421 433 LINE",
"421 212 LINE SMOOTH",
"421 98 OFFCURVE",
"388 15 OFFCURVE",
"253 15 CURVE SMOOTH"
);
},
{
closed = 1;
nodes = (
"441 433 LINE",
"572 433 LINE",
"572 458 LINE",
"441 458 LINE"
);
}
);
width = 577;
},
{
layerId = "505CC2C5-1E9F-4C44-A700-7A06363E8A84";
paths = (
{
closed = 1;
nodes = (
"495 -10 OFFCURVE",
"588 84 OFFCURVE",
"588 233 CURVE SMOOTH",
"588 714 LINE",
"384 714 LINE",
"384 663 LINE",
"423 663 OFFCURVE",
"430 653 OFFCURVE",
"430 600 CURVE SMOOTH",
"430 466 LINE",
"337 466 LINE SMOOTH",
"160 466 OFFCURVE",
"47 371 OFFCURVE",
"47 232 CURVE SMOOTH",
"47 73 OFFCURVE",
"140 -10 OFFCURVE",
"317 -10 CURVE SMOOTH"
);
},
{
closed = 1;
nodes = (
"249 55 OFFCURVE",
"215 95 OFFCURVE",
"215 232 CURVE SMOOTH",
"215 349 OFFCURVE",
"279 406 OFFCURVE",
"357 406 CURVE SMOOTH",
"430 406 LINE",
"430 208 LINE SMOOTH",
"430 115 OFFCURVE",
"396 55 OFFCURVE",
"322 55 CURVE SMOOTH"
);
},
{
closed = 1;
nodes = (
"578 406 LINE",
"725 406 LINE",
"725 466 LINE",
"578 466 LINE"
);
}
);
width = 730;
},
{
layerId = "4BFBD32C-75C4-41CA-8E17-65E778BAAADA";
paths = (
{
closed = 1;
nodes = (
"520 -10 OFFCURVE",
"624 87 OFFCURVE",
"624 239 CURVE SMOOTH",
"624 714 LINE",
"390 714 LINE",
"390 654 LINE",
"423 654 OFFCURVE",
"430 645 OFFCURVE",
"430 598 CURVE SMOOTH",
"430 468 LINE",
"339 468 LINE SMOOTH",
"159 468 OFFCURVE",
"45 369 OFFCURVE",
"45 234 CURVE SMOOTH",
"45 74 OFFCURVE",
"144 -10 OFFCURVE",
"333 -10 CURVE SMOOTH"
);
},
{
closed = 1;
nodes = (
"280 66 OFFCURVE",
"252 94 OFFCURVE",
"252 233 CURVE SMOOTH",
"252 344 OFFCURVE",
"305 398 OFFCURVE",
"365 398 CURVE SMOOTH",
"430 398 LINE",
"430 207 LINE SMOOTH",
"430 120 OFFCURVE",
"396 66 OFFCURVE",
"339 66 CURVE SMOOTH"
);
},
{
closed = 1;
nodes = (
"614 398 LINE",
"765 398 LINE",
"765 468 LINE",
"614 468 LINE"
);
}
);
width = 769;
},
{
layerId = "F2BD3FAB-8356-49CF-A55B-3E49BBA3F552";
paths = (
{
closed = 1;
nodes = (
"456 -10 OFFCURVE",
"530 79 OFFCURVE",
"530 224 CURVE SMOOTH",
"530 714 LINE",
"375 714 LINE",
"375 677 LINE",
"423 677 OFFCURVE",
"429 666 OFFCURVE",
"429 603 CURVE SMOOTH",
"429 462 LINE",
"333 462 LINE SMOOTH",
"161 462 OFFCURVE",
"50 374 OFFCURVE",
"50 229 CURVE SMOOTH",
"50 71 OFFCURVE",
"134 -10 OFFCURVE",
"292 -10 CURVE SMOOTH"
);
},
{
closed = 1;
nodes = (
"201 37 OFFCURVE",
"157 97 OFFCURVE",
"157 230 CURVE SMOOTH",
"157 356 OFFCURVE",
"238 418 OFFCURVE",
"345 418 CURVE SMOOTH",
"430 418 LINE",
"430 210 LINE SMOOTH",
"430 108 OFFCURVE",
"396 37 OFFCURVE",
"296 37 CURVE SMOOTH"
);
},
{
closed = 1;
nodes = (
"521 418 LINE",
"661 418 LINE",
"661 462 LINE",
"521 462 LINE"
);
}
);
width = 669;
},
{
layerId = "75A83886-EED5-4C31-9670-660514D8A4F6";
paths = (
{
closed = 1;
nodes = (
"451 -10 OFFCURVE",
"550 54 OFFCURVE",
"550 218 CURVE SMOOTH",
"550 714 LINE",
"329 714 LINE",
"329 658 LINE",
"369 658 OFFCURVE",
"383 653 OFFCURVE",
"383 599 CURVE",
"383 465 LINE",
"313 465 LINE SMOOTH",
"119 465 OFFCURVE",
"42 403 OFFCURVE",
"42 232 CURVE SMOOTH",
"42 87 OFFCURVE",
"113 -10 OFFCURVE",
"291 -10 CURVE SMOOTH"
);
},
{
closed = 1;
nodes = (
"242 64 OFFCURVE",
"209 108 OFFCURVE",
"209 234 CURVE SMOOTH",
"209 361 OFFCURVE",
"238 401 OFFCURVE",
"315 401 CURVE SMOOTH",
"383 401 LINE",
"383 227 LINE SMOOTH",
"383 103 OFFCURVE",
"353 64 OFFCURVE",
"293 64 CURVE SMOOTH"
);
},
{
closed = 1;
nodes = (
"533 401 LINE",
"684 401 LINE",
"684 465 LINE",
"533 465 LINE"
);
}
);
width = 688;
},
{
layerId = "E7C4F5EE-4982-479C-BF20-1C8706EFFC5D";
paths = (
{
closed = 1;
nodes = (
"362 -10 OFFCURVE",
"439 55 OFFCURVE",
"439 215 CURVE SMOOTH",
"439 714 LINE",
"324 714 LINE",
"324 679 LINE",
"369 679 OFFCURVE",
"375 669 OFFCURVE",
"375 600 CURVE",
"375 459 LINE",
"244 459 LINE SMOOTH",
"108 459 OFFCURVE",
"46 373 OFFCURVE",
"46 227 CURVE SMOOTH",
"46 95 OFFCURVE",
"107 -10 OFFCURVE",
"244 -10 CURVE SMOOTH"
);
},
{
closed = 1;
nodes = (
"147 37 OFFCURVE",
"110 123 OFFCURVE",
"110 227 CURVE SMOOTH",
"110 340 OFFCURVE",
"146 416 OFFCURVE",
"244 416 CURVE SMOOTH",
"375 416 LINE",
"375 224 LINE SMOOTH",
"375 81 OFFCURVE",
"325 37 OFFCURVE",
"244 37 CURVE SMOOTH"
);
},
{
closed = 1;
nodes = (
"426 416 LINE",
"556 416 LINE",
"556 459 LINE",
"426 459 LINE"
);
}
);
width = 561;
},
{
layerId = "5E7C5774-385D-4E06-B68E-CBE970134A7B";
paths = (
{
closed = 1;
nodes = (
"429 -10 OFFCURVE",
"491 76 OFFCURVE",
"491 218 CURVE SMOOTH",
"491 714 LINE",
"367 714 LINE",
"367 686 LINE",
"421 686 OFFCURVE",
"427 675 OFFCURVE",
"427 605 CURVE SMOOTH",
"427 460 LINE",
"328 460 LINE SMOOTH",
"159 460 OFFCURVE",
"50 376 OFFCURVE",
"50 227 CURVE SMOOTH",
"50 70 OFFCURVE",
"128 -10 OFFCURVE",
"274 -10 CURVE SMOOTH"
);
},
{
closed = 1;
nodes = (
"167 26 OFFCURVE",
"117 98 OFFCURVE",
"117 228 CURVE SMOOTH",
"117 361 OFFCURVE",
"209 426 OFFCURVE",
"334 426 CURVE SMOOTH",
"428 426 LINE",
"428 211 LINE SMOOTH",
"428 103 OFFCURVE",
"394 26 OFFCURVE",
"276 26 CURVE SMOOTH"
);
},
{
closed = 1;
nodes = (
"482 426 LINE",
"617 426 LINE",
"617 460 LINE",
"482 460 LINE"
);
}
);
width = 626;
},
{
layerId = "C91144B6-58F5-45F2-9CE4-7ED6CE127FD4";
paths = (
{
closed = 1;
nodes = (
"331 -10 OFFCURVE",
"401 55 OFFCURVE",
"401 214 CURVE SMOOTH",
"401 714 LINE",
"323 714 LINE",
"323 694 LINE",
"369 694 OFFCURVE",
"373 683 OFFCURVE",
"373 609 CURVE SMOOTH",
"373 457 LINE",
"248 457 LINE SMOOTH",
"105 457 OFFCURVE",
"48 353 OFFCURVE",
"48 225 CURVE SMOOTH",
"48 98 OFFCURVE",
"105 -10 OFFCURVE",
"228 -10 CURVE SMOOTH"
);
},
{
closed = 1;
nodes = (
"115 15 OFFCURVE",
"76 125 OFFCURVE",
"76 225 CURVE SMOOTH",
"76 326 OFFCURVE",
"115 432 OFFCURVE",
"247 432 CURVE SMOOTH",
"373 432 LINE",
"373 223 LINE SMOOTH",
"373 73 OFFCURVE",
"315 15 OFFCURVE",
"227 15 CURVE SMOOTH"
);
},
{
closed = 1;
nodes = (
"388 432 LINE",
"511 432 LINE",
"511 457 LINE",
"388 457 LINE"
);
}
);
width = 517;
},
{
layerId = "464843EB-0DE3-43AD-A7A6-94A12FE2EFF4";
paths = (
{
closed = 1;
nodes = (
"414 -10 OFFCURVE",
"503 54 OFFCURVE",
"503 217 CURVE SMOOTH",
"503 714 LINE",
"327 714 LINE",
"327 667 LINE",
"369 667 OFFCURVE",
"380 660 OFFCURVE",
"380 599 CURVE",
"380 462 LINE",
"284 462 LINE SMOOTH",
"114 462 OFFCURVE",
"44 390 OFFCURVE",
"44 230 CURVE SMOOTH",
"44 90 OFFCURVE",
"110 -10 OFFCURVE",
"271 -10 CURVE SMOOTH"
);
},
{
closed = 1;
nodes = (
"202 53 OFFCURVE",
"167 114 OFFCURVE",
"167 231 CURVE SMOOTH",
"167 352 OFFCURVE",
"199 407 OFFCURVE",
"285 407 CURVE SMOOTH",
"380 407 LINE",
"380 226 LINE SMOOTH",
"380 94 OFFCURVE",
"341 53 OFFCURVE",
"272 53 CURVE SMOOTH"
);
},
{
closed = 1;
nodes = (
"488 407 LINE",
"630 407 LINE",
"630 462 LINE",
"488 462 LINE"
);
}
);
width = 635;
}
);
leftKerningGroup = uni053A;
note = uni053A;
rightKerningGroup = uni053A;
unicode = 053A;
},
{
glyphname = uni053B;
lastChange = "2016-06-23 14:14:42 +0000";
layers = (
{
layerId = "84BA7A8F-8561-401A-9117-1E5C8963A832";
paths = (
{
closed = 1;
nodes = (
"117 433 OFFCURVE",
"177 529 OFFCURVE",
"290 529 CURVE SMOOTH",
"389 529 OFFCURVE",
"451 468 OFFCURVE",
"451 374 CURVE SMOOTH",
"451 267 LINE",
"479 267 LINE",
"479 374 LINE SMOOTH",
"479 493 OFFCURVE",
"402 554 OFFCURVE",
"288 554 CURVE SMOOTH",
"210 554 OFFCURVE",
"150 509 OFFCURVE",
"117 434 CURVE",
"114 434 LINE",
"116 466 OFFCURVE",
"117 499 OFFCURVE",
"117 531 CURVE SMOOTH",
"117 714 LINE",
"33 714 LINE",
"33 694 LINE",
"83 694 OFFCURVE",
"89 688 OFFCURVE",
"89 611 CURVE SMOOTH",
"89 0 LINE",
"173 0 LINE",
"173 20 LINE",
"123 20 OFFCURVE",
"117 26 OFFCURVE",
"117 103 CURVE SMOOTH",
"117 325 LINE"
);
}
);
width = 530;
},
{
layerId = "505CC2C5-1E9F-4C44-A700-7A06363E8A84";
paths = (
{
closed = 1;
nodes = (
"268 414 OFFCURVE",
"311 489 OFFCURVE",
"401 489 CURVE SMOOTH",
"460 489 OFFCURVE",
"494 461 OFFCURVE",
"494 340 CURVE SMOOTH",
"494 274 LINE",
"652 274 LINE",
"652 325 LINE SMOOTH",
"652 489 OFFCURVE",
"591 560 OFFCURVE",
"442 560 CURVE SMOOTH",
"348 560 OFFCURVE",
"305 529 OFFCURVE",
"271 485 CURVE",
"263 484 LINE",
"267 513 OFFCURVE",
"268 543 OFFCURVE",
"268 575 CURVE SMOOTH",
"268 714 LINE",
"64 714 LINE",
"64 663 LINE",
"103 663 OFFCURVE",
"110 653 OFFCURVE",
"110 600 CURVE SMOOTH",
"110 0 LINE",
"314 0 LINE",
"314 51 LINE",
"275 51 OFFCURVE",
"268 61 OFFCURVE",
"268 114 CURVE",
"268 312 LINE SMOOTH"
);
}
);
width = 720;
},
{
layerId = "4BFBD32C-75C4-41CA-8E17-65E778BAAADA";
paths = (
{
closed = 1;
nodes = (
"305 409 OFFCURVE",
"344 478 OFFCURVE",
"427 478 CURVE SMOOTH",
"475 478 OFFCURVE",
"501 459 OFFCURVE",
"501 331 CURVE SMOOTH",
"501 276 LINE",
"695 276 LINE",
"695 311 LINE SMOOTH",
"695 488 OFFCURVE",
"639 562 OFFCURVE",
"480 562 CURVE SMOOTH",
"382 562 OFFCURVE",
"343 535 OFFCURVE",
"309 499 CURVE",
"300 498 LINE",
"304 526 OFFCURVE",
"305 555 OFFCURVE",
"305 587 CURVE SMOOTH",
"305 714 LINE",
"68 714 LINE",
"68 654 LINE",
"104 654 OFFCURVE",
"111 643 OFFCURVE",
"111 597 CURVE SMOOTH",
"111 0 LINE",
"348 0 LINE",
"348 60 LINE",
"313 60 OFFCURVE",
"305 71 OFFCURVE",
"305 117 CURVE SMOOTH",
"305 308 LINE"
);
}
);
width = 752;
},
{
layerId = "F2BD3FAB-8356-49CF-A55B-3E49BBA3F552";
paths = (
{
closed = 1;
nodes = (
"209 422 OFFCURVE",
"260 507 OFFCURVE",
"360 507 CURVE SMOOTH",
"436 507 OFFCURVE",
"483 464 OFFCURVE",
"483 355 CURVE SMOOTH",
"483 271 LINE",
"584 271 LINE",
"584 346 LINE SMOOTH",
"584 491 OFFCURVE",
"516 557 OFFCURVE",
"382 557 CURVE SMOOTH",
"295 557 OFFCURVE",
"245 520 OFFCURVE",
"211 463 CURVE",
"205 462 LINE",
"208 492 OFFCURVE",
"209 524 OFFCURVE",
"209 556 CURVE SMOOTH",
"209 714 LINE",
"58 714 LINE",
"58 677 LINE",
"102 677 OFFCURVE",
"108 668 OFFCURVE",
"108 605 CURVE SMOOTH",
"108 0 LINE",
"260 0 LINE",
"260 37 LINE",
"216 37 OFFCURVE",
"209 46 OFFCURVE",
"209 109 CURVE SMOOTH",
"209 318 LINE"
);
}
);
width = 649;
},
{
layerId = "75A83886-EED5-4C31-9670-660514D8A4F6";
paths = (
{
closed = 1;
nodes = (
"247 403 OFFCURVE",
"278 458 OFFCURVE",
"321 458 CURVE SMOOTH",
"374 458 OFFCURVE",
"389 423 OFFCURVE",
"389 362 CURVE SMOOTH",
"389 276 LINE",
"556 276 LINE",
"556 364 LINE",
"556 498 OFFCURVE",
"494 554 OFFCURVE",
"384 554 CURVE SMOOTH",
"329 554 OFFCURVE",
"283 531 OFFCURVE",
"247 482 CURVE",
"243 482 LINE",
"245 506 OFFCURVE",
"247 530 OFFCURVE",
"247 554 CURVE SMOOTH",
"247 714 LINE",
"26 714 LINE",
"26 658 LINE",
"66 658 OFFCURVE",
"80 653 OFFCURVE",
"80 599 CURVE SMOOTH",
"80 0 LINE",
"301 0 LINE",
"301 56 LINE",
"271 56 OFFCURVE",
"247 63 OFFCURVE",
"247 115 CURVE SMOOTH",
"247 316 LINE SMOOTH"
);
}
);
width = 604;
},
{
layerId = "E7C4F5EE-4982-479C-BF20-1C8706EFFC5D";
paths = (
{
closed = 1;
nodes = (
"148 445 OFFCURVE",
"202 504 OFFCURVE",
"279 504 CURVE SMOOTH",
"349 504 OFFCURVE",
"383 468 OFFCURVE",
"383 375 CURVE SMOOTH",
"383 266 LINE",
"446 266 LINE",
"446 384 LINE",
"446 497 OFFCURVE",
"393 554 OFFCURVE",
"297 554 CURVE SMOOTH",
"240 554 OFFCURVE",
"183 529 OFFCURVE",
"150 467 CURVE",
"146 467 LINE",
"147 489 OFFCURVE",
"148 510 OFFCURVE",
"148 532 CURVE SMOOTH",
"148 714 LINE",
"33 714 LINE",
"33 679 LINE",
"77 679 OFFCURVE",
"84 669 OFFCURVE",
"84 600 CURVE SMOOTH",
"84 0 LINE",
"199 0 LINE",
"199 35 LINE",
"157 35 OFFCURVE",
"148 45 OFFCURVE",
"148 114 CURVE SMOOTH",
"148 373 LINE SMOOTH"
);
}
);
width = 497;
},
{
layerId = "5E7C5774-385D-4E06-B68E-CBE970134A7B";
paths = (
{
closed = 1;
nodes = (
"175 428 OFFCURVE",
"231 518 OFFCURVE",
"337 518 CURVE SMOOTH",
"425 518 OFFCURVE",
"479 466 OFFCURVE",
"479 365 CURVE SMOOTH",
"479 269 LINE",
"543 269 LINE",
"543 360 LINE SMOOTH",
"543 492 OFFCURVE",
"471 555 OFFCURVE",
"347 555 CURVE SMOOTH",
"265 555 OFFCURVE",
"210 514 OFFCURVE",
"176 448 CURVE",
"172 448 LINE",
"174 479 OFFCURVE",
"175 511 OFFCURVE",
"175 543 CURVE SMOOTH",
"175 714 LINE",
"58 714 LINE",
"58 686 LINE",
"105 686 OFFCURVE",
"111 678 OFFCURVE",
"111 608 CURVE SMOOTH",
"111 0 LINE",
"229 0 LINE",
"229 28 LINE",
"182 28 OFFCURVE",
"175 36 OFFCURVE",
"175 106 CURVE SMOOTH",
"175 322 LINE"
);
}
);
width = 608;
},
{
layerId = "C91144B6-58F5-45F2-9CE4-7ED6CE127FD4";
paths = (
{
closed = 1;
nodes = (
"116 460 OFFCURVE",
"176 529 OFFCURVE",
"265 529 CURVE SMOOTH",
"341 529 OFFCURVE",
"382 484 OFFCURVE",
"382 379 CURVE SMOOTH",
"382 263 LINE",
"408 263 LINE",
"408 391 LINE SMOOTH",
"408 496 OFFCURVE",
"360 554 OFFCURVE",
"267 554 CURVE SMOOTH",
"209 554 OFFCURVE",
"149 528 OFFCURVE",
"116 462 CURVE",
"112 462 LINE",
"113 483 OFFCURVE",
"114 503 OFFCURVE",
"114 524 CURVE SMOOTH",
"114 714 LINE",
"36 714 LINE",
"36 694 LINE",
"82 694 OFFCURVE",
"86 683 OFFCURVE",
"86 609 CURVE SMOOTH",
"86 0 LINE",
"164 0 LINE",
"164 20 LINE",
"118 20 OFFCURVE",
"114 31 OFFCURVE",
"114 105 CURVE SMOOTH",
"114 393 LINE"
);
}
);
width = 460;
},
{
layerId = "464843EB-0DE3-43AD-A7A6-94A12FE2EFF4";
paths = (
{
closed = 1;
nodes = (
"205 421 OFFCURVE",
"246 477 OFFCURVE",
"303 477 CURVE SMOOTH",
"364 477 OFFCURVE",
"386 442 OFFCURVE",
"386 367 CURVE SMOOTH",
"386 272 LINE",
"510 272 LINE",
"510 372 LINE",
"510 498 OFFCURVE",
"449 554 OFFCURVE",
"347 554 CURVE SMOOTH",
"292 554 OFFCURVE",
"241 530 OFFCURVE",
"206 476 CURVE",
"202 476 LINE",
"204 499 OFFCURVE",
"205 522 OFFCURVE",
"205 545 CURVE SMOOTH",
"205 714 LINE",
"29 714 LINE",
"29 667 LINE",
"71 667 OFFCURVE",
"82 660 OFFCURVE",
"82 599 CURVE SMOOTH",
"82 0 LINE",
"258 0 LINE",
"258 47 LINE",
"223 47 OFFCURVE",
"205 55 OFFCURVE",
"205 115 CURVE SMOOTH",
"205 340 LINE SMOOTH"
);
}
);
width = 559;
}
);
leftKerningGroup = uni0538;
note = uni053B;
unicode = 053B;
},
{
glyphname = uni053C;
lastChange = "2016-06-23 14:14:42 +0000";
layers = (
{
layerId = "84BA7A8F-8561-401A-9117-1E5C8963A832";
paths = (
{
closed = 1;
nodes = (
"389 87 LINE",
"389 32 OFFCURVE",
"382 25 OFFCURVE",
"330 25 CURVE SMOOTH",
"117 25 LINE",
"117 714 LINE",
"33 714 LINE",
"33 694 LINE",
"83 694 OFFCURVE",
"89 688 OFFCURVE",
"89 611 CURVE SMOOTH",
"89 0 LINE",
"414 0 LINE",
"414 87 LINE"
);
}
);
width = 424;
},
{
layerId = "505CC2C5-1E9F-4C44-A700-7A06363E8A84";
paths = (
{
closed = 1;
nodes = (
"515 109 LINE",
"515 70 OFFCURVE",
"513 61 OFFCURVE",
"471 61 CURVE SMOOTH",
"268 61 LINE",
"268 714 LINE",
"64 714 LINE",
"64 663 LINE",
"103 663 OFFCURVE",
"110 653 OFFCURVE",
"110 600 CURVE SMOOTH",
"110 0 LINE",
"570 0 LINE",
"570 109 LINE"
);
}
);
width = 580;
},
{
layerId = "4BFBD32C-75C4-41CA-8E17-65E778BAAADA";
paths = (
{
closed = 1;
nodes = (
"545 115 LINE",
"545 81 OFFCURVE",
"542 70 OFFCURVE",
"505 70 CURVE SMOOTH",
"305 70 LINE",
"305 714 LINE",
"68 714 LINE",
"68 654 LINE",
"104 654 OFFCURVE",
"111 643 OFFCURVE",
"111 597 CURVE SMOOTH",
"111 0 LINE",
"609 0 LINE",
"609 115 LINE"
);
}
);
width = 618;
},
{
layerId = "F2BD3FAB-8356-49CF-A55B-3E49BBA3F552";
paths = (
{
closed = 1;
nodes = (
"467 99 LINE",
"467 53 OFFCURVE",
"463 45 OFFCURVE",
"417 45 CURVE SMOOTH",
"209 45 LINE",
"209 714 LINE",
"58 714 LINE",
"58 677 LINE",
"102 677 OFFCURVE",
"108 668 OFFCURVE",
"108 605 CURVE SMOOTH",
"108 0 LINE",
"509 0 LINE",
"509 99 LINE"
);
}
);
width = 519;
},
{
layerId = "75A83886-EED5-4C31-9670-660514D8A4F6";
paths = (
{
closed = 1;
nodes = (
"460 111 LINE",
"460 74 OFFCURVE",
"458 64 OFFCURVE",
"424 64 CURVE SMOOTH",
"247 64 LINE",
"247 714 LINE",
"26 714 LINE",
"26 661 LINE",
"68 661 OFFCURVE",
"80 650 OFFCURVE",
"80 599 CURVE SMOOTH",
"80 0 LINE",
"515 0 LINE",
"515 111 LINE"
);
}
);
width = 523;
},
{
layerId = "E7C4F5EE-4982-479C-BF20-1C8706EFFC5D";
paths = (
{
closed = 1;
nodes = (
"351 101 LINE",
"351 51 OFFCURVE",
"346 43 OFFCURVE",
"309 43 CURVE SMOOTH",
"148 43 LINE",
"148 714 LINE",
"33 714 LINE",
"33 679 LINE",
"76 679 OFFCURVE",
"84 672 OFFCURVE",
"84 602 CURVE SMOOTH",
"84 0 LINE",
"386 0 LINE",
"386 101 LINE"
);
}
);
width = 396;
},
{
layerId = "5E7C5774-385D-4E06-B68E-CBE970134A7B";
paths = (
{
closed = 1;
nodes = (
"440 93 LINE",
"440 42 OFFCURVE",
"435 35 OFFCURVE",
"386 35 CURVE SMOOTH",
"175 35 LINE",
"175 714 LINE",
"58 714 LINE",
"58 686 LINE",
"105 686 OFFCURVE",
"111 678 OFFCURVE",
"111 608 CURVE SMOOTH",
"111 0 LINE",
"474 0 LINE",
"474 93 LINE"
);
}
);
width = 484;
},
{
layerId = "C91144B6-58F5-45F2-9CE4-7ED6CE127FD4";
paths = (
{
closed = 1;
nodes = (
"321 87 LINE",
"321 32 OFFCURVE",
"316 25 OFFCURVE",
"277 25 CURVE SMOOTH",
"114 25 LINE",
"114 714 LINE",
"36 714 LINE",
"36 694 LINE",
"79 694 OFFCURVE",
"86 688 OFFCURVE",
"86 611 CURVE SMOOTH",
"86 0 LINE",
"342 0 LINE",
"342 87 LINE"
);
}
);
width = 352;
},
{
layerId = "464843EB-0DE3-43AD-A7A6-94A12FE2EFF4";
paths = (
{
closed = 1;
nodes = (
"414 107 LINE",
"414 64 OFFCURVE",
"411 55 OFFCURVE",
"376 55 CURVE SMOOTH",
"205 55 LINE",
"205 714 LINE",
"29 714 LINE",
"29 669 LINE",
"71 669 OFFCURVE",
"82 659 OFFCURVE",
"82 600 CURVE SMOOTH",
"82 0 LINE",
"461 0 LINE",
"461 107 LINE"
);
}
);
width = 470;
}
);
leftKerningGroup = uni0538;
note = uni053C;
unicode = 053C;
},
{
glyphname = uni053D;
lastChange = "2016-06-23 14:14:42 +0000";
layers = (
{
layerId = "84BA7A8F-8561-401A-9117-1E5C8963A832";
paths = (
{
closed = 1;
nodes = (
"117 714 LINE",
"33 714 LINE",
"33 694 LINE",
"83 694 OFFCURVE",
"89 688 OFFCURVE",
"89 611 CURVE SMOOTH",
"89 0 LINE",
"173 0 LINE",
"173 20 LINE",
"123 20 OFFCURVE",
"117 26 OFFCURVE",
"117 103 CURVE SMOOTH"
);
},
{
closed = 1;
nodes = (
"517 540 OFFCURVE",
"523 533 OFFCURVE",
"523 473 CURVE SMOOTH",
"523 331 LINE SMOOTH",
"523 228 OFFCURVE",
"493 189 OFFCURVE",
"410 189 CURVE SMOOTH",
"344 189 OFFCURVE",
"303 220 OFFCURVE",
"303 331 CURVE SMOOTH",
"303 560 LINE",
"99 560 LINE",
"99 535 LINE",
"275 535 LINE",
"275 331 LINE SMOOTH",
"275 210 OFFCURVE",
"323 164 OFFCURVE",
"410 164 CURVE SMOOTH",
"508 164 OFFCURVE",
"551 217 OFFCURVE",
"551 334 CURVE SMOOTH",
"551 560 LINE",
"465 560 LINE",
"465 540 LINE"
);
}
);
width = 602;
},
{
layerId = "505CC2C5-1E9F-4C44-A700-7A06363E8A84";
paths = (
{
closed = 1;
nodes = (
"268 714 LINE",
"64 714 LINE",
"64 663 LINE",
"103 663 OFFCURVE",
"110 653 OFFCURVE",
"110 600 CURVE SMOOTH",
"110 0 LINE",
"314 0 LINE",
"314 51 LINE",
"275 51 OFFCURVE",
"268 61 OFFCURVE",
"268 114 CURVE SMOOTH"
);
},
{
closed = 1;
nodes = (
"708 507 OFFCURVE",
"724 498 OFFCURVE",
"724 463 CURVE SMOOTH",
"724 339 LINE SMOOTH",
"724 258 OFFCURVE",
"703 220 OFFCURVE",
"644 220 CURVE SMOOTH",
"585 220 OFFCURVE",
"564 258 OFFCURVE",
"564 339 CURVE SMOOTH",
"564 560 LINE",
"245 560 LINE",
"245 499 LINE",
"406 499 LINE",
"406 338 LINE SMOOTH",
"406 218 OFFCURVE",
"507 157 OFFCURVE",
"644 157 CURVE SMOOTH",
"781 157 OFFCURVE",
"882 218 OFFCURVE",
"882 338 CURVE SMOOTH",
"882 560 LINE",
"674 560 LINE",
"674 507 LINE"
);
}
);
width = 944;
},
{
layerId = "4BFBD32C-75C4-41CA-8E17-65E778BAAADA";
paths = (
{
closed = 1;
nodes = (
"305 714 LINE",
"68 714 LINE",
"68 654 LINE",
"104 654 OFFCURVE",
"111 643 OFFCURVE",
"111 597 CURVE SMOOTH",
"111 0 LINE",
"348 0 LINE",
"348 60 LINE",
"313 60 OFFCURVE",
"305 71 OFFCURVE",
"305 117 CURVE SMOOTH"
);
},
{
closed = 1;
nodes = (
"746 498 OFFCURVE",
"765 488 OFFCURVE",
"765 460 CURVE SMOOTH",
"765 341 LINE SMOOTH",
"765 266 OFFCURVE",
"747 229 OFFCURVE",
"694 229 CURVE SMOOTH",
"637 229 OFFCURVE",
"622 269 OFFCURVE",
"622 341 CURVE SMOOTH",
"622 560 LINE",
"281 560 LINE",
"281 490 LINE",
"428 490 LINE",
"428 340 LINE SMOOTH",
"428 220 OFFCURVE",
"534 155 OFFCURVE",
"694 155 CURVE SMOOTH",
"852 155 OFFCURVE",
"959 218 OFFCURVE",
"959 339 CURVE SMOOTH",
"959 560 LINE",
"717 560 LINE",
"717 498 LINE"
);
}
);
width = 1018;
},
{
layerId = "F2BD3FAB-8356-49CF-A55B-3E49BBA3F552";
paths = (
{
closed = 1;
nodes = (
"209 714 LINE",
"58 714 LINE",
"58 677 LINE",
"102 677 OFFCURVE",
"108 668 OFFCURVE",
"108 605 CURVE SMOOTH",
"108 0 LINE",
"260 0 LINE",
"260 37 LINE",
"216 37 OFFCURVE",
"209 46 OFFCURVE",
"209 109 CURVE SMOOTH"
);
},
{
closed = 1;
nodes = (
"631 521 OFFCURVE",
"643 513 OFFCURVE",
"643 467 CURVE SMOOTH",
"643 335 LINE SMOOTH",
"643 245 OFFCURVE",
"618 206 OFFCURVE",
"548 206 CURVE SMOOTH",
"486 206 OFFCURVE",
"457 241 OFFCURVE",
"457 335 CURVE SMOOTH",
"457 560 LINE",
"188 560 LINE",
"188 515 LINE",
"356 515 LINE",
"356 335 LINE SMOOTH",
"356 214 OFFCURVE",
"433 160 OFFCURVE",
"548 160 CURVE SMOOTH",
"668 160 OFFCURVE",
"744 218 OFFCURVE",
"744 336 CURVE SMOOTH",
"744 560 LINE",
"589 560 LINE",
"589 521 LINE"
);
}
);
width = 811;
},
{
layerId = "75A83886-EED5-4C31-9670-660514D8A4F6";
paths = (
{
closed = 1;
nodes = (
"245 714 LINE",
"26 714 LINE",
"26 658 LINE",
"66 658 OFFCURVE",
"78 653 OFFCURVE",
"78 599 CURVE SMOOTH",
"78 0 LINE",
"299 0 LINE",
"299 56 LINE",
"269 56 OFFCURVE",
"245 63 OFFCURVE",
"245 115 CURVE SMOOTH"
);
},
{
closed = 1;
nodes = (
"641 504 OFFCURVE",
"658 494 OFFCURVE",
"658 461 CURVE SMOOTH",
"658 339 LINE SMOOTH",
"658 260 OFFCURVE",
"642 223 OFFCURVE",
"594 223 CURVE SMOOTH",
"544 223 OFFCURVE",
"530 262 OFFCURVE",
"530 339 CURVE SMOOTH",
"530 560 LINE",
"223 560 LINE",
"223 496 LINE",
"363 496 LINE",
"363 338 LINE SMOOTH",
"363 218 OFFCURVE",
"463 157 OFFCURVE",
"594 157 CURVE SMOOTH",
"723 157 OFFCURVE",
"825 218 OFFCURVE",
"825 339 CURVE SMOOTH",
"825 560 LINE",
"615 560 LINE",
"615 504 LINE"
);
}
);
width = 873;
},
{
layerId = "E7C4F5EE-4982-479C-BF20-1C8706EFFC5D";
paths = (
{
closed = 1;
nodes = (
"148 714 LINE",
"33 714 LINE",
"33 679 LINE",
"77 679 OFFCURVE",
"84 669 OFFCURVE",
"84 600 CURVE SMOOTH",
"84 0 LINE",
"199 0 LINE",
"199 35 LINE",
"157 35 OFFCURVE",
"148 45 OFFCURVE",
"148 114 CURVE SMOOTH"
);
},
{
closed = 1;
nodes = (
"481 525 OFFCURVE",
"489 517 OFFCURVE",
"489 464 CURVE SMOOTH",
"489 333 LINE SMOOTH",
"489 236 OFFCURVE",
"468 207 OFFCURVE",
"409 207 CURVE SMOOTH",
"359 207 OFFCURVE",
"333 231 OFFCURVE",
"333 333 CURVE SMOOTH",
"333 560 LINE",
"133 560 LINE",
"133 517 LINE",
"269 517 LINE",
"269 333 LINE SMOOTH",
"269 209 OFFCURVE",
"324 162 OFFCURVE",
"409 162 CURVE SMOOTH",
"500 162 OFFCURVE",
"553 214 OFFCURVE",
"553 335 CURVE SMOOTH",
"553 560 LINE",
"445 560 LINE",
"445 525 LINE"
);
}
);
width = 604;
},
{
layerId = "5E7C5774-385D-4E06-B68E-CBE970134A7B";
paths = (
{
closed = 1;
nodes = (
"175 714 LINE",
"58 714 LINE",
"58 686 LINE",
"105 686 OFFCURVE",
"111 678 OFFCURVE",
"111 608 CURVE SMOOTH",
"111 0 LINE",
"229 0 LINE",
"229 28 LINE",
"182 28 OFFCURVE",
"175 36 OFFCURVE",
"175 106 CURVE SMOOTH"
);
},
{
closed = 1;
nodes = (
"586 531 OFFCURVE",
"595 523 OFFCURVE",
"595 470 CURVE SMOOTH",
"595 333 LINE SMOOTH",
"595 236 OFFCURVE",
"568 197 OFFCURVE",
"491 197 CURVE SMOOTH",
"427 197 OFFCURVE",
"392 230 OFFCURVE",
"392 333 CURVE SMOOTH",
"392 560 LINE",
"156 560 LINE",
"156 525 LINE",
"328 525 LINE",
"328 333 LINE SMOOTH",
"328 212 OFFCURVE",
"390 162 OFFCURVE",
"491 162 CURVE SMOOTH",
"600 162 OFFCURVE",
"659 217 OFFCURVE",
"659 335 CURVE SMOOTH",
"659 560 LINE",
"539 560 LINE",
"539 531 LINE"
);
}
);
width = 726;
},
{
layerId = "C91144B6-58F5-45F2-9CE4-7ED6CE127FD4";
paths = (
{
closed = 1;
nodes = (
"114 714 LINE",
"36 714 LINE",
"36 694 LINE",
"82 694 OFFCURVE",
"86 683 OFFCURVE",
"86 609 CURVE SMOOTH",
"86 0 LINE",
"164 0 LINE",
"164 20 LINE",
"118 20 OFFCURVE",
"114 31 OFFCURVE",
"114 105 CURVE SMOOTH"
);
},
{
closed = 1;
nodes = (
"425 540 OFFCURVE",
"430 533 OFFCURVE",
"430 473 CURVE SMOOTH",
"430 331 LINE SMOOTH",
"430 228 OFFCURVE",
"408 189 OFFCURVE",
"345 189 CURVE SMOOTH",
"295 189 OFFCURVE",
"264 220 OFFCURVE",
"264 331 CURVE SMOOTH",
"264 560 LINE",
"102 560 LINE",
"102 535 LINE",
"236 535 LINE",
"236 331 LINE SMOOTH",
"236 206 OFFCURVE",
"276 164 OFFCURVE",
"345 164 CURVE SMOOTH",
"422 164 OFFCURVE",
"458 213 OFFCURVE",
"458 334 CURVE SMOOTH",
"458 560 LINE",
"386 560 LINE",
"386 540 LINE"
);
}
);
width = 510;
},
{
layerId = "464843EB-0DE3-43AD-A7A6-94A12FE2EFF4";
paths = (
{
closed = 1;
nodes = (
"205 714 LINE",
"29 714 LINE",
"29 667 LINE",
"71 667 OFFCURVE",
"81 660 OFFCURVE",
"81 599 CURVE SMOOTH",
"81 0 LINE",
"257 0 LINE",
"257 47 LINE",
"222 47 OFFCURVE",
"205 55 OFFCURVE",
"205 115 CURVE SMOOTH"
);
},
{
closed = 1;
nodes = (
"574 513 OFFCURVE",
"587 504 OFFCURVE",
"587 462 CURVE SMOOTH",
"587 336 LINE SMOOTH",
"587 250 OFFCURVE",
"569 216 OFFCURVE",
"516 216 CURVE SMOOTH",
"466 216 OFFCURVE",
"447 249 OFFCURVE",
"447 336 CURVE SMOOTH",
"447 560 LINE",
"185 560 LINE",
"185 505 LINE",
"324 505 LINE",
"324 336 LINE SMOOTH",
"324 214 OFFCURVE",
"405 159 OFFCURVE",
"516 159 CURVE SMOOTH",
"629 159 OFFCURVE",
"711 216 OFFCURVE",
"711 337 CURVE SMOOTH",
"711 560 LINE",
"544 560 LINE",
"544 513 LINE"
);
}
);
width = 760;
}
);
leftKerningGroup = uni0538;
note = uni053D;
unicode = 053D;
},
{
glyphname = uni053E;
lastChange = "2016-06-23 14:14:42 +0000";
layers = (
{
layerId = "84BA7A8F-8561-401A-9117-1E5C8963A832";
paths = (
{
closed = 1;
nodes = (
"85 616 OFFCURVE",
"50 651 OFFCURVE",
"50 714 CURVE",
"25 714 LINE",
"25 635 OFFCURVE",
"67 596 OFFCURVE",
"191 563 CURVE SMOOTH",
"417 502 OFFCURVE",
"488 379 OFFCURVE",
"488 230 CURVE SMOOTH",
"488 96 OFFCURVE",
"396 15 OFFCURVE",
"271 15 CURVE SMOOTH",
"115 15 OFFCURVE",
"58 91 OFFCURVE",
"58 244 CURVE SMOOTH",
"58 440 OFFCURVE",
"262 704 OFFCURVE",
"376 704 CURVE SMOOTH",
"413 704 OFFCURVE",
"441 693 OFFCURVE",
"442 620 CURVE",
"456 620 OFFCURVE",
"469 626 OFFCURVE",
"469 646 CURVE SMOOTH",
"469 700 OFFCURVE",
"434 729 OFFCURVE",
"376 729 CURVE SMOOTH",
"245 729 OFFCURVE",
"30 449 OFFCURVE",
"30 244 CURVE SMOOTH",
"30 74 OFFCURVE",
"98 -10 OFFCURVE",
"271 -10 CURVE SMOOTH",
"414 -10 OFFCURVE",
"516 79 OFFCURVE",
"516 230 CURVE SMOOTH",
"516 394 OFFCURVE",
"434 525 OFFCURVE",
"205 585 CURVE SMOOTH"
);
}
);
width = 558;
},
{
layerId = "505CC2C5-1E9F-4C44-A700-7A06363E8A84";
paths = (
{
closed = 1;
nodes = (
"208 625 OFFCURVE",
"186 665 OFFCURVE",
"186 714 CURVE",
"32 714 LINE",
"32 626 OFFCURVE",
"95 576 OFFCURVE",
"235 557 CURVE",
"414 533 OFFCURVE",
"522 428 OFFCURVE",
"522 276 CURVE SMOOTH",
"522 129 OFFCURVE",
"464 55 OFFCURVE",
"371 55 CURVE SMOOTH",
"265 55 OFFCURVE",
"226 139 OFFCURVE",
"226 259 CURVE SMOOTH",
"226 453 OFFCURVE",
"378 652 OFFCURVE",
"512 652 CURVE SMOOTH",
"572 652 OFFCURVE",
"605 617 OFFCURVE",
"605 542 CURVE",
"683 542 OFFCURVE",
"740 576 OFFCURVE",
"740 625 CURVE SMOOTH",
"740 685 OFFCURVE",
"681 724 OFFCURVE",
"575 724 CURVE SMOOTH",
"309 724 OFFCURVE",
"58 458 OFFCURVE",
"58 264 CURVE SMOOTH",
"58 98 OFFCURVE",
"156 -10 OFFCURVE",
"371 -10 CURVE SMOOTH",
"558 -10 OFFCURVE",
"690 112 OFFCURVE",
"690 277 CURVE SMOOTH",
"690 454 OFFCURVE",
"518 572 OFFCURVE",
"295 610 CURVE SMOOTH"
);
}
);
width = 746;
},
{
layerId = "4BFBD32C-75C4-41CA-8E17-65E778BAAADA";
paths = (
{
closed = 1;
nodes = (
"236 611 OFFCURVE",
"218 649 OFFCURVE",
"218 714 CURVE",
"28 714 LINE",
"28 624 OFFCURVE",
"97 554 OFFCURVE",
"241 538 CURVE SMOOTH",
"466 515 OFFCURVE",
"525 442 OFFCURVE",
"525 289 CURVE SMOOTH",
"525 138 OFFCURVE",
"477 66 OFFCURVE",
"393 66 CURVE SMOOTH",
"301 66 OFFCURVE",
"267 152 OFFCURVE",
"267 263 CURVE SMOOTH",
"267 459 OFFCURVE",
"404 638 OFFCURVE",
"544 638 CURVE SMOOTH",
"610 638 OFFCURVE",
"644 596 OFFCURVE",
"644 520 CURVE",
"740 520 OFFCURVE",
"809 562 OFFCURVE",
"809 619 CURVE SMOOTH",
"809 681 OFFCURVE",
"743 723 OFFCURVE",
"624 723 CURVE SMOOTH",
"321 723 OFFCURVE",
"60 460 OFFCURVE",
"60 270 CURVE SMOOTH",
"60 105 OFFCURVE",
"166 -10 OFFCURVE",
"393 -10 CURVE SMOOTH",
"592 -10 OFFCURVE",
"732 121 OFFCURVE",
"732 290 CURVE SMOOTH",
"732 469 OFFCURVE",
"584 556 OFFCURVE",
"314 599 CURVE SMOOTH"
);
}
);
width = 789;
},
{
layerId = "F2BD3FAB-8356-49CF-A55B-3E49BBA3F552";
paths = (
{
closed = 1;
nodes = (
"164 624 OFFCURVE",
"136 659 OFFCURVE",
"136 714 CURVE",
"39 714 LINE",
"39 630 OFFCURVE",
"92 587 OFFCURVE",
"226 564 CURVE SMOOTH",
"425 528 OFFCURVE",
"517 407 OFFCURVE",
"517 256 CURVE SMOOTH",
"517 115 OFFCURVE",
"444 37 OFFCURVE",
"337 37 CURVE SMOOTH",
"209 37 OFFCURVE",
"162 118 OFFCURVE",
"162 252 CURVE SMOOTH",
"162 443 OFFCURVE",
"337 675 OFFCURVE",
"462 675 CURVE SMOOTH",
"512 675 OFFCURVE",
"543 650 OFFCURVE",
"544 576 CURVE",
"594 576 OFFCURVE",
"631 598 OFFCURVE",
"631 634 CURVE SMOOTH",
"631 692 OFFCURVE",
"583 726 OFFCURVE",
"498 726 CURVE SMOOTH",
"291 726 OFFCURVE",
"56 454 OFFCURVE",
"56 255 CURVE SMOOTH",
"56 87 OFFCURVE",
"141 -10 OFFCURVE",
"337 -10 CURVE SMOOTH",
"505 -10 OFFCURVE",
"624 98 OFFCURVE",
"624 256 CURVE SMOOTH",
"624 428 OFFCURVE",
"491 560 OFFCURVE",
"266 603 CURVE SMOOTH"
);
}
);
width = 678;
},
{
layerId = "75A83886-EED5-4C31-9670-660514D8A4F6";
paths = (
{
closed = 1;
nodes = (
"196 609 OFFCURVE",
"179 645 OFFCURVE",
"179 714 CURVE",
"12 714 LINE",
"12 611 OFFCURVE",
"75 559 OFFCURVE",
"201 541 CURVE SMOOTH",
"383 516 OFFCURVE",
"452 433 OFFCURVE",
"452 280 CURVE SMOOTH",
"452 132 OFFCURVE",
"408 58 OFFCURVE",
"333 58 CURVE SMOOTH",
"250 58 OFFCURVE",
"220 143 OFFCURVE",
"220 260 CURVE SMOOTH",
"220 455 OFFCURVE",
"342 648 OFFCURVE",
"465 648 CURVE SMOOTH",
"523 648 OFFCURVE",
"552 611 OFFCURVE",
"552 536 CURVE",
"635 536 OFFCURVE",
"695 572 OFFCURVE",
"695 623 CURVE SMOOTH",
"695 684 OFFCURVE",
"637 724 OFFCURVE",
"533 724 CURVE SMOOTH",
"271 724 OFFCURVE",
"43 471 OFFCURVE",
"43 266 CURVE SMOOTH",
"43 100 OFFCURVE",
"135 -10 OFFCURVE",
"333 -10 CURVE SMOOTH",
"507 -10 OFFCURVE",
"629 95 OFFCURVE",
"629 281 CURVE SMOOTH",
"629 443 OFFCURVE",
"528 546 OFFCURVE",
"264 596 CURVE SMOOTH"
);
}
);
width = 680;
},
{
layerId = "E7C4F5EE-4982-479C-BF20-1C8706EFFC5D";
paths = (
{
closed = 1;
nodes = (
"112 607 OFFCURVE",
"88 645 OFFCURVE",
"88 714 CURVE",
"25 714 LINE",
"25 628 OFFCURVE",
"68 575 OFFCURVE",
"162 542 CURVE SMOOTH",
"343 479 OFFCURVE",
"404 383 OFFCURVE",
"404 243 CURVE SMOOTH",
"404 105 OFFCURVE",
"345 35 OFFCURVE",
"256 35 CURVE SMOOTH",
"147 35 OFFCURVE",
"103 104 OFFCURVE",
"103 248 CURVE SMOOTH",
"103 469 OFFCURVE",
"249 689 OFFCURVE",
"347 689 CURVE SMOOTH",
"384 689 OFFCURVE",
"408 672 OFFCURVE",
"408 598 CURVE",
"440 598 OFFCURVE",
"465 612 OFFCURVE",
"465 640 CURVE SMOOTH",
"465 696 OFFCURVE",
"429 728 OFFCURVE",
"367 728 CURVE SMOOTH",
"195 728 OFFCURVE",
"37 444 OFFCURVE",
"37 250 CURVE SMOOTH",
"37 81 OFFCURVE",
"104 -10 OFFCURVE",
"256 -10 CURVE SMOOTH",
"384 -10 OFFCURVE",
"471 83 OFFCURVE",
"471 243 CURVE SMOOTH",
"471 397 OFFCURVE",
"386 516 OFFCURVE",
"187 582 CURVE SMOOTH"
);
}
);
width = 513;
},
{
layerId = "5E7C5774-385D-4E06-B68E-CBE970134A7B";
paths = (
{
closed = 1;
nodes = (
"131 611 OFFCURVE",
"100 655 OFFCURVE",
"100 714 CURVE",
"39 714 LINE",
"39 633 OFFCURVE",
"86 584 OFFCURVE",
"215 559 CURVE SMOOTH",
"438 515 OFFCURVE",
"509 393 OFFCURVE",
"509 243 CURVE SMOOTH",
"509 105 OFFCURVE",
"427 26 OFFCURVE",
"311 26 CURVE SMOOTH",
"168 26 OFFCURVE",
"116 104 OFFCURVE",
"116 248 CURVE SMOOTH",
"116 446 OFFCURVE",
"306 690 OFFCURVE",
"426 690 CURVE SMOOTH",
"469 690 OFFCURVE",
"498 672 OFFCURVE",
"499 598 CURVE",
"531 598 OFFCURVE",
"556 612 OFFCURVE",
"556 640 CURVE SMOOTH",
"556 696 OFFCURVE",
"515 728 OFFCURVE",
"443 728 CURVE SMOOTH",
"275 728 OFFCURVE",
"50 451 OFFCURVE",
"50 249 CURVE SMOOTH",
"50 80 OFFCURVE",
"126 -10 OFFCURVE",
"311 -10 CURVE SMOOTH",
"466 -10 OFFCURVE",
"576 88 OFFCURVE",
"576 243 CURVE SMOOTH",
"576 411 OFFCURVE",
"479 542 OFFCURVE",
"242 589 CURVE SMOOTH"
);
}
);
width = 627;
},
{
layerId = "C91144B6-58F5-45F2-9CE4-7ED6CE127FD4";
paths = (
{
closed = 1;
nodes = (
"83 598 OFFCURVE",
"56 647 OFFCURVE",
"56 714 CURVE",
"30 714 LINE",
"30 635 OFFCURVE",
"65 581 OFFCURVE",
"149 547 CURVE SMOOTH",
"330 475 OFFCURVE",
"388 359 OFFCURVE",
"388 230 CURVE SMOOTH",
"388 96 OFFCURVE",
"323 15 OFFCURVE",
"224 15 CURVE SMOOTH",
"111 15 OFFCURVE",
"63 91 OFFCURVE",
"63 234 CURVE SMOOTH",
"63 430 OFFCURVE",
"222 704 OFFCURVE",
"316 704 CURVE SMOOTH",
"346 704 OFFCURVE",
"368 693 OFFCURVE",
"368 620 CURVE",
"382 620 OFFCURVE",
"395 626 OFFCURVE",
"395 646 CURVE SMOOTH",
"395 700 OFFCURVE",
"367 729 OFFCURVE",
"319 729 CURVE SMOOTH",
"205 729 OFFCURVE",
"35 439 OFFCURVE",
"35 234 CURVE SMOOTH",
"35 74 OFFCURVE",
"94 -10 OFFCURVE",
"224 -10 CURVE SMOOTH",
"341 -10 OFFCURVE",
"416 79 OFFCURVE",
"416 230 CURVE SMOOTH",
"416 374 OFFCURVE",
"348 499 OFFCURVE",
"160 569 CURVE SMOOTH"
);
}
);
width = 455;
},
{
layerId = "464843EB-0DE3-43AD-A7A6-94A12FE2EFF4";
paths = (
{
closed = 1;
nodes = (
"161 608 OFFCURVE",
"141 645 OFFCURVE",
"141 714 CURVE",
"17 714 LINE",
"17 618 OFFCURVE",
"72 566 OFFCURVE",
"185 541 CURVE SMOOTH",
"366 500 OFFCURVE",
"432 412 OFFCURVE",
"432 264 CURVE SMOOTH",
"432 121 OFFCURVE",
"382 48 OFFCURVE",
"301 48 CURVE SMOOTH",
"207 48 OFFCURVE",
"171 127 OFFCURVE",
"171 255 CURVE SMOOTH",
"171 461 OFFCURVE",
"303 665 OFFCURVE",
"415 665 CURVE SMOOTH",
"465 665 OFFCURVE",
"492 637 OFFCURVE",
"492 562 CURVE",
"553 562 OFFCURVE",
"598 589 OFFCURVE",
"598 630 CURVE SMOOTH",
"598 689 OFFCURVE",
"550 726 OFFCURVE",
"463 726 CURVE SMOOTH",
"239 726 OFFCURVE",
"40 460 OFFCURVE",
"40 259 CURVE SMOOTH",
"40 92 OFFCURVE",
"122 -10 OFFCURVE",
"301 -10 CURVE SMOOTH",
"455 -10 OFFCURVE",
"563 90 OFFCURVE",
"563 265 CURVE SMOOTH",
"563 424 OFFCURVE",
"468 533 OFFCURVE",
"232 590 CURVE SMOOTH"
);
}
);
width = 610;
}
);
leftKerningGroup = uni053E;
note = uni053E;
unicode = 053E;
},
{
glyphname = uni053F;
lastChange = "2016-06-23 14:14:42 +0000";
layers = (
{
layerId = "84BA7A8F-8561-401A-9117-1E5C8963A832";
paths = (
{
closed = 1;
nodes = (
"521 0 LINE",
"521 20 LINE",
"471 20 OFFCURVE",
"465 24 OFFCURVE",
"465 88 CURVE SMOOTH",
"465 477 LINE",
"381 477 LINE",
"381 457 LINE",
"431 457 OFFCURVE",
"437 446 OFFCURVE",
"437 396 CURVE SMOOTH",
"437 389 LINE SMOOTH",
"437 276 OFFCURVE",
"387 185 OFFCURVE",
"263 185 CURVE SMOOTH",
"175 185 OFFCURVE",
"113 246 OFFCURVE",
"113 340 CURVE SMOOTH",
"113 714 LINE",
"29 714 LINE",
"29 694 LINE",
"79 694 OFFCURVE",
"85 683 OFFCURVE",
"85 606 CURVE SMOOTH",
"85 340 LINE SMOOTH",
"85 221 OFFCURVE",
"162 160 OFFCURVE",
"263 160 CURVE SMOOTH",
"354 160 OFFCURVE",
"407 197 OFFCURVE",
"437 265 CURVE",
"440 265 LINE",
"438 233 OFFCURVE",
"437 200 OFFCURVE",
"437 168 CURVE SMOOTH",
"437 0 LINE"
);
}
);
width = 555;
},
{
layerId = "505CC2C5-1E9F-4C44-A700-7A06363E8A84";
paths = (
{
closed = 1;
nodes = (
"688 0 LINE",
"688 51 LINE",
"649 51 OFFCURVE",
"642 60 OFFCURVE",
"642 94 CURVE",
"642 479 LINE",
"438 479 LINE",
"438 428 LINE",
"477 428 OFFCURVE",
"484 419 OFFCURVE",
"484 385 CURVE SMOOTH",
"484 362 LINE SMOOTH",
"484 300 OFFCURVE",
"441 225 OFFCURVE",
"351 225 CURVE SMOOTH",
"292 225 OFFCURVE",
"258 253 OFFCURVE",
"258 374 CURVE SMOOTH",
"258 714 LINE",
"54 714 LINE",
"54 663 LINE",
"93 663 OFFCURVE",
"100 653 OFFCURVE",
"100 620 CURVE SMOOTH",
"100 370 LINE SMOOTH",
"100 219 OFFCURVE",
"166 154 OFFCURVE",
"310 154 CURVE SMOOTH",
"404 154 OFFCURVE",
"447 185 OFFCURVE",
"481 229 CURVE",
"489 230 LINE",
"485 201 OFFCURVE",
"484 171 OFFCURVE",
"484 139 CURVE SMOOTH",
"484 0 LINE"
);
}
);
width = 742;
},
{
layerId = "4BFBD32C-75C4-41CA-8E17-65E778BAAADA";
paths = (
{
closed = 1;
nodes = (
"730 0 LINE",
"730 60 LINE",
"694 60 OFFCURVE",
"687 70 OFFCURVE",
"687 96 CURVE SMOOTH",
"687 480 LINE",
"450 480 LINE",
"450 420 LINE",
"486 420 OFFCURVE",
"493 412 OFFCURVE",
"493 382 CURVE SMOOTH",
"493 355 LINE SMOOTH",
"493 307 OFFCURVE",
"452 236 OFFCURVE",
"371 236 CURVE SMOOTH",
"320 236 OFFCURVE",
"294 255 OFFCURVE",
"294 383 CURVE SMOOTH",
"294 714 LINE",
"57 714 LINE",
"57 654 LINE",
"93 654 OFFCURVE",
"100 645 OFFCURVE",
"100 624 CURVE SMOOTH",
"100 378 LINE SMOOTH",
"100 218 OFFCURVE",
"163 152 OFFCURVE",
"319 152 CURVE SMOOTH",
"414 152 OFFCURVE",
"454 183 OFFCURVE",
"489 220 CURVE",
"499 220 LINE",
"494 192 OFFCURVE",
"493 163 OFFCURVE",
"493 131 CURVE SMOOTH",
"493 0 LINE"
);
}
);
width = 785;
},
{
layerId = "F2BD3FAB-8356-49CF-A55B-3E49BBA3F552";
paths = (
{
closed = 1;
nodes = (
"622 0 LINE",
"622 37 LINE",
"578 37 OFFCURVE",
"571 44 OFFCURVE",
"571 91 CURVE SMOOTH",
"571 478 LINE",
"420 478 LINE",
"420 441 LINE",
"464 441 OFFCURVE",
"470 431 OFFCURVE",
"470 390 CURVE SMOOTH",
"470 374 LINE SMOOTH",
"470 289 OFFCURVE",
"424 207 OFFCURVE",
"319 207 CURVE SMOOTH",
"248 207 OFFCURVE",
"201 250 OFFCURVE",
"201 359 CURVE SMOOTH",
"201 714 LINE",
"50 714 LINE",
"50 677 LINE",
"94 677 OFFCURVE",
"100 666 OFFCURVE",
"100 614 CURVE SMOOTH",
"100 357 LINE SMOOTH",
"100 220 OFFCURVE",
"171 157 OFFCURVE",
"296 157 CURVE SMOOTH",
"389 157 OFFCURVE",
"436 190 OFFCURVE",
"469 245 CURVE",
"474 245 LINE",
"471 215 OFFCURVE",
"470 184 OFFCURVE",
"470 152 CURVE SMOOTH",
"470 0 LINE"
);
}
);
width = 674;
},
{
layerId = "75A83886-EED5-4C31-9670-660514D8A4F6";
paths = (
{
closed = 1;
nodes = (
"606 0 LINE",
"606 56 LINE",
"566 56 OFFCURVE",
"552 61 OFFCURVE",
"552 115 CURVE SMOOTH",
"552 484 LINE",
"334 484 LINE",
"334 428 LINE",
"364 428 OFFCURVE",
"385 421 OFFCURVE",
"385 369 CURVE SMOOTH",
"385 338 LINE SMOOTH",
"385 292 OFFCURVE",
"356 246 OFFCURVE",
"311 246 CURVE SMOOTH",
"257 246 OFFCURVE",
"243 282 OFFCURVE",
"243 342 CURVE SMOOTH",
"243 714 LINE",
"22 714 LINE",
"22 658 LINE",
"52 658 OFFCURVE",
"76 651 OFFCURVE",
"76 599 CURVE SMOOTH",
"76 340 LINE",
"76 206 OFFCURVE",
"140 150 OFFCURVE",
"248 150 CURVE SMOOTH",
"303 150 OFFCURVE",
"351 174 OFFCURVE",
"387 222 CURVE",
"391 222 LINE",
"386 198 OFFCURVE",
"385 174 OFFCURVE",
"385 150 CURVE SMOOTH",
"385 0 LINE"
);
}
);
width = 632;
},
{
layerId = "E7C4F5EE-4982-479C-BF20-1C8706EFFC5D";
paths = (
{
closed = 1;
nodes = (
"493 0 LINE",
"493 35 LINE",
"449 35 OFFCURVE",
"442 45 OFFCURVE",
"442 114 CURVE SMOOTH",
"442 477 LINE",
"328 477 LINE",
"328 441 LINE",
"370 441 OFFCURVE",
"378 431 OFFCURVE",
"378 369 CURVE SMOOTH",
"378 325 LINE SMOOTH",
"378 264 OFFCURVE",
"324 207 OFFCURVE",
"247 207 CURVE SMOOTH",
"177 207 OFFCURVE",
"144 243 OFFCURVE",
"144 337 CURVE SMOOTH",
"144 714 LINE",
"29 714 LINE",
"29 679 LINE",
"71 679 OFFCURVE",
"80 669 OFFCURVE",
"80 600 CURVE",
"80 327 LINE",
"80 215 OFFCURVE",
"133 157 OFFCURVE",
"229 157 CURVE SMOOTH",
"286 157 OFFCURVE",
"343 183 OFFCURVE",
"377 244 CURVE",
"381 244 LINE",
"379 222 OFFCURVE",
"378 201 OFFCURVE",
"378 180 CURVE SMOOTH",
"378 0 LINE"
);
}
);
width = 527;
},
{
layerId = "5E7C5774-385D-4E06-B68E-CBE970134A7B";
paths = (
{
closed = 1;
nodes = (
"581 0 LINE",
"581 28 LINE",
"534 28 OFFCURVE",
"528 34 OFFCURVE",
"528 89 CURVE SMOOTH",
"528 477 LINE",
"411 477 LINE",
"411 449 LINE",
"458 449 OFFCURVE",
"464 439 OFFCURVE",
"464 393 CURVE SMOOTH",
"464 382 LINE SMOOTH",
"464 282 OFFCURVE",
"416 196 OFFCURVE",
"301 196 CURVE SMOOTH",
"222 196 OFFCURVE",
"167 248 OFFCURVE",
"167 349 CURVE SMOOTH",
"167 714 LINE",
"50 714 LINE",
"50 686 LINE",
"97 686 OFFCURVE",
"103 675 OFFCURVE",
"103 610 CURVE SMOOTH",
"103 348 LINE SMOOTH",
"103 221 OFFCURVE",
"177 159 OFFCURVE",
"290 159 CURVE SMOOTH",
"382 159 OFFCURVE",
"432 194 OFFCURVE",
"463 255 CURVE",
"467 255 LINE",
"465 224 OFFCURVE",
"464 192 OFFCURVE",
"464 160 CURVE SMOOTH",
"464 0 LINE"
);
}
);
width = 633;
},
{
layerId = "C91144B6-58F5-45F2-9CE4-7ED6CE127FD4";
paths = (
{
closed = 1;
nodes = (
"454 0 LINE",
"454 20 LINE",
"408 20 OFFCURVE",
"404 31 OFFCURVE",
"404 105 CURVE SMOOTH",
"404 474 LINE",
"326 474 LINE",
"326 454 LINE",
"372 454 OFFCURVE",
"376 443 OFFCURVE",
"376 369 CURVE SMOOTH",
"376 321 LINE SMOOTH",
"376 254 OFFCURVE",
"314 185 OFFCURVE",
"225 185 CURVE SMOOTH",
"149 185 OFFCURVE",
"108 230 OFFCURVE",
"108 335 CURVE SMOOTH",
"108 714 LINE",
"32 714 LINE",
"32 694 LINE",
"78 694 OFFCURVE",
"82 683 OFFCURVE",
"82 609 CURVE",
"82 323 LINE SMOOTH",
"82 218 OFFCURVE",
"130 160 OFFCURVE",
"223 160 CURVE SMOOTH",
"281 160 OFFCURVE",
"341 186 OFFCURVE",
"374 252 CURVE",
"378 252 LINE",
"377 231 OFFCURVE",
"376 211 OFFCURVE",
"376 190 CURVE SMOOTH",
"376 0 LINE"
);
}
);
width = 490;
},
{
layerId = "464843EB-0DE3-43AD-A7A6-94A12FE2EFF4";
paths = (
{
closed = 1;
nodes = (
"559 0 LINE",
"559 47 LINE",
"517 47 OFFCURVE",
"506 54 OFFCURVE",
"506 115 CURVE SMOOTH",
"506 481 LINE",
"331 481 LINE",
"331 433 LINE",
"367 433 OFFCURVE",
"383 425 OFFCURVE",
"383 369 CURVE SMOOTH",
"383 333 LINE SMOOTH",
"383 280 OFFCURVE",
"343 230 OFFCURVE",
"284 230 CURVE SMOOTH",
"224 230 OFFCURVE",
"201 266 OFFCURVE",
"201 340 CURVE SMOOTH",
"201 714 LINE",
"25 714 LINE",
"25 667 LINE",
"60 667 OFFCURVE",
"78 659 OFFCURVE",
"78 599 CURVE",
"78 335 LINE",
"78 210 OFFCURVE",
"139 153 OFFCURVE",
"240 153 CURVE SMOOTH",
"296 153 OFFCURVE",
"348 178 OFFCURVE",
"383 231 CURVE",
"387 231 LINE",
"383 208 OFFCURVE",
"382 185 OFFCURVE",
"382 163 CURVE SMOOTH",
"382 0 LINE"
);
}
);
width = 588;
}
);
leftKerningGroup = uni053F;
note = uni053F;
unicode = 053F;
},
{
glyphname = uni0540;
lastChange = "2016-06-23 14:14:42 +0000";
layers = (
{
layerId = "84BA7A8F-8561-401A-9117-1E5C8963A832";
paths = (
{
closed = 1;
nodes = (
"403 -63 LINE",
"403 -50 LINE SMOOTH",
"403 36 OFFCURVE",
"361 63 OFFCURVE",
"301 67 CURVE SMOOTH",
"43 83 LINE",
"41 58 LINE",
"299 42 LINE SMOOTH",
"344 39 OFFCURVE",
"375 12 OFFCURVE",
"375 -47 CURVE SMOOTH",
"375 -63 LINE"
);
},
{
closed = 1;
nodes = (
"69 436 OFFCURVE",
"166 704 OFFCURVE",
"306 704 CURVE SMOOTH",
"356 704 OFFCURVE",
"384 687 OFFCURVE",
"385 615 CURVE",
"399 615 OFFCURVE",
"412 621 OFFCURVE",
"412 641 CURVE SMOOTH",
"412 694 OFFCURVE",
"377 729 OFFCURVE",
"306 729 CURVE SMOOTH",
"148 729 OFFCURVE",
"41 463 OFFCURVE",
"41 58 CURVE",
"69 58 LINE"
);
}
);
width = 457;
},
{
layerId = "505CC2C5-1E9F-4C44-A700-7A06363E8A84";
paths = (
{
closed = 1;
nodes = (
"603 -62 LINE",
"603 -48 LINE SMOOTH",
"603 58 OFFCURVE",
"544 91 OFFCURVE",
"390 119 CURVE SMOOTH",
"65 179 LINE",
"48 115 LINE",
"376 55 LINE SMOOTH",
"426 46 OFFCURVE",
"445 21 OFFCURVE",
"445 -43 CURVE SMOOTH",
"445 -62 LINE"
);
},
{
closed = 1;
nodes = (
"229 507 OFFCURVE",
"293 659 OFFCURVE",
"375 659 CURVE SMOOTH",
"445 659 OFFCURVE",
"474 616 OFFCURVE",
"474 516 CURVE",
"552 516 OFFCURVE",
"609 550 OFFCURVE",
"609 603 CURVE SMOOTH",
"609 684 OFFCURVE",
"530 724 OFFCURVE",
"395 724 CURVE SMOOTH",
"191 724 OFFCURVE",
"78 569 OFFCURVE",
"48 115 CURVE",
"206 115 LINE"
);
}
);
width = 651;
},
{
layerId = "4BFBD32C-75C4-41CA-8E17-65E778BAAADA";
paths = (
{
closed = 1;
nodes = (
"652 -62 LINE",
"652 -47 LINE SMOOTH",
"652 64 OFFCURVE",
"589 99 OFFCURVE",
"409 133 CURVE SMOOTH",
"65 206 LINE",
"44 131 LINE",
"391 59 LINE SMOOTH",
"443 48 OFFCURVE",
"458 23 OFFCURVE",
"458 -42 CURVE SMOOTH",
"458 -62 LINE"
);
},
{
closed = 1;
nodes = (
"267 527 OFFCURVE",
"322 647 OFFCURVE",
"388 647 CURVE SMOOTH",
"464 647 OFFCURVE",
"493 596 OFFCURVE",
"493 489 CURVE",
"588 489 OFFCURVE",
"658 530 OFFCURVE",
"658 592 CURVE SMOOTH",
"658 681 OFFCURVE",
"566 723 OFFCURVE",
"414 723 CURVE SMOOTH",
"197 723 OFFCURVE",
"82 598 OFFCURVE",
"44 131 CURVE",
"238 131 LINE"
);
}
);
width = 695;
},
{
layerId = "F2BD3FAB-8356-49CF-A55B-3E49BBA3F552";
paths = (
{
closed = 1;
nodes = (
"524 -62 LINE",
"524 -49 LINE SMOOTH",
"524 48 OFFCURVE",
"473 79 OFFCURVE",
"360 96 CURVE SMOOTH",
"64 137 LINE",
"54 90 LINE",
"351 49 LINE SMOOTH",
"399 43 OFFCURVE",
"423 17 OFFCURVE",
"423 -45 CURVE SMOOTH",
"423 -62 LINE"
);
},
{
closed = 1;
nodes = (
"168 476 OFFCURVE",
"246 679 OFFCURVE",
"354 679 CURVE SMOOTH",
"415 679 OFFCURVE",
"444 647 OFFCURVE",
"444 559 CURVE",
"494 559 OFFCURVE",
"532 581 OFFCURVE",
"532 620 CURVE SMOOTH",
"532 688 OFFCURVE",
"472 726 OFFCURVE",
"365 726 CURVE SMOOTH",
"181 726 OFFCURVE",
"71 523 OFFCURVE",
"54 90 CURVE",
"155 90 LINE"
);
}
);
width = 581;
},
{
layerId = "75A83886-EED5-4C31-9670-660514D8A4F6";
paths = (
{
closed = 1;
nodes = (
"570 -62 LINE",
"570 -47 LINE SMOOTH",
"570 60 OFFCURVE",
"515 92 OFFCURVE",
"359 125 CURVE SMOOTH",
"58 188 LINE",
"40 120 LINE",
"345 56 LINE SMOOTH",
"390 46 OFFCURVE",
"403 21 OFFCURVE",
"403 -42 CURVE SMOOTH",
"403 -62 LINE"
);
},
{
closed = 1;
nodes = (
"232 536 OFFCURVE",
"281 656 OFFCURVE",
"360 656 CURVE SMOOTH",
"408 656 OFFCURVE",
"434 610 OFFCURVE",
"434 509 CURVE",
"515 509 OFFCURVE",
"575 544 OFFCURVE",
"575 600 CURVE SMOOTH",
"575 683 OFFCURVE",
"506 724 OFFCURVE",
"380 724 CURVE SMOOTH",
"174 724 OFFCURVE",
"76 592 OFFCURVE",
"40 120 CURVE",
"207 120 LINE"
);
}
);
width = 609;
},
{
layerId = "E7C4F5EE-4982-479C-BF20-1C8706EFFC5D";
paths = (
{
closed = 1;
nodes = (
"392 -63 LINE",
"392 -49 LINE SMOOTH",
"392 42 OFFCURVE",
"353 79 OFFCURVE",
"275 90 CURVE SMOOTH",
"47 118 LINE",
"41 74 LINE",
"269 46 LINE SMOOTH",
"307 41 OFFCURVE",
"328 14 OFFCURVE",
"328 -46 CURVE SMOOTH",
"328 -63 LINE"
);
},
{
closed = 1;
nodes = (
"112 462 OFFCURVE",
"179 683 OFFCURVE",
"277 683 CURVE SMOOTH",
"319 683 OFFCURVE",
"342 658 OFFCURVE",
"342 579 CURVE",
"373 579 OFFCURVE",
"398 601 OFFCURVE",
"398 630 CURVE SMOOTH",
"398 691 OFFCURVE",
"359 728 OFFCURVE",
"283 728 CURVE SMOOTH",
"134 728 OFFCURVE",
"51 496 OFFCURVE",
"41 74 CURVE",
"105 74 LINE"
);
}
);
width = 443;
},
{
layerId = "5E7C5774-385D-4E06-B68E-CBE970134A7B";
paths = (
{
closed = 1;
nodes = (
"469 -63 LINE",
"469 -50 LINE SMOOTH",
"469 42 OFFCURVE",
"423 71 OFFCURVE",
"337 81 CURVE SMOOTH",
"60 110 LINE",
"54 74 LINE",
"331 45 LINE SMOOTH",
"378 41 OFFCURVE",
"405 14 OFFCURVE",
"405 -46 CURVE SMOOTH",
"405 -63 LINE"
);
},
{
closed = 1;
nodes = (
"124 456 OFFCURVE",
"212 692 OFFCURVE",
"336 692 CURVE SMOOTH",
"392 692 OFFCURVE",
"420 667 OFFCURVE",
"421 587 CURVE",
"452 587 OFFCURVE",
"478 601 OFFCURVE",
"478 631 CURVE SMOOTH",
"478 691 OFFCURVE",
"430 728 OFFCURVE",
"342 728 CURVE SMOOTH",
"171 728 OFFCURVE",
"62 493 OFFCURVE",
"54 74 CURVE",
"118 74 LINE"
);
}
);
width = 527;
},
{
layerId = "C91144B6-58F5-45F2-9CE4-7ED6CE127FD4";
paths = (
{
closed = 1;
nodes = (
"330 -63 LINE",
"330 -50 LINE SMOOTH",
"330 36 OFFCURVE",
"297 63 OFFCURVE",
"246 67 CURVE SMOOTH",
"44 83 LINE",
"42 58 LINE",
"243 42 LINE SMOOTH",
"278 39 OFFCURVE",
"302 12 OFFCURVE",
"302 -47 CURVE SMOOTH",
"302 -63 LINE"
);
},
{
closed = 1;
nodes = (
"71 436 OFFCURVE",
"144 704 OFFCURVE",
"249 704 CURVE SMOOTH",
"288 704 OFFCURVE",
"310 687 OFFCURVE",
"311 615 CURVE",
"324 615 OFFCURVE",
"337 621 OFFCURVE",
"337 641 CURVE SMOOTH",
"337 694 OFFCURVE",
"308 729 OFFCURVE",
"250 729 CURVE SMOOTH",
"121 729 OFFCURVE",
"43 463 OFFCURVE",
"42 58 CURVE",
"70 58 LINE"
);
}
);
width = 385;
},
{
layerId = "464843EB-0DE3-43AD-A7A6-94A12FE2EFF4";
paths = (
{
closed = 1;
nodes = (
"495 -62 LINE",
"495 -48 LINE SMOOTH",
"495 52 OFFCURVE",
"447 87 OFFCURVE",
"324 110 CURVE SMOOTH",
"53 159 LINE",
"40 101 LINE",
"313 52 LINE SMOOTH",
"355 44 OFFCURVE",
"372 18 OFFCURVE",
"372 -44 CURVE SMOOTH",
"372 -62 LINE"
);
},
{
closed = 1;
nodes = (
"182 505 OFFCURVE",
"238 667 OFFCURVE",
"325 667 CURVE SMOOTH",
"371 667 OFFCURVE",
"395 630 OFFCURVE",
"395 538 CURVE",
"455 538 OFFCURVE",
"501 568 OFFCURVE",
"501 613 CURVE SMOOTH",
"501 686 OFFCURVE",
"444 726 OFFCURVE",
"339 726 CURVE SMOOTH",
"157 726 OFFCURVE",
"66 552 OFFCURVE",
"40 101 CURVE",
"164 101 LINE"
);
}
);
width = 539;
}
);
leftKerningGroup = uni0540;
note = uni0540;
rightKerningGroup = uni0540;
unicode = 0540;
},
{
glyphname = uni0541;
lastChange = "2016-06-23 14:14:42 +0000";
layers = (
{
layerId = "84BA7A8F-8561-401A-9117-1E5C8963A832";
paths = (
{
closed = 1;
nodes = (
"130 348 OFFCURVE",
"67 421 OFFCURVE",
"67 526 CURVE SMOOTH",
"67 637 OFFCURVE",
"140 703 OFFCURVE",
"270 703 CURVE SMOOTH",
"399 703 OFFCURVE",
"463 614 OFFCURVE",
"463 469 CURVE SMOOTH",
"463 455 OFFCURVE",
"463 439 OFFCURVE",
"461 421 CURVE",
"416 381 OFFCURVE",
"336 348 OFFCURVE",
"254 348 CURVE SMOOTH"
);
},
{
closed = 1;
nodes = (
"430 191 OFFCURVE",
"299 15 OFFCURVE",
"153 15 CURVE SMOOTH",
"96 15 OFFCURVE",
"62 46 OFFCURVE",
"62 93 CURVE SMOOTH",
"62 145 OFFCURVE",
"103 184 OFFCURVE",
"168 184 CURVE SMOOTH",
"302 184 OFFCURVE",
"344 -10 OFFCURVE",
"477 -10 CURVE SMOOTH",
"498 -10 OFFCURVE",
"508 -1 OFFCURVE",
"508 15 CURVE",
"342 15 OFFCURVE",
"335 209 OFFCURVE",
"168 209 CURVE SMOOTH",
"86 209 OFFCURVE",
"34 160 OFFCURVE",
"34 93 CURVE SMOOTH",
"34 31 OFFCURVE",
"80 -10 OFFCURVE",
"153 -10 CURVE SMOOTH",
"340 -10 OFFCURVE",
"491 230 OFFCURVE",
"491 467 CURVE SMOOTH",
"491 634 OFFCURVE",
"416 728 OFFCURVE",
"270 728 CURVE SMOOTH",
"124 728 OFFCURVE",
"39 649 OFFCURVE",
"39 526 CURVE SMOOTH",
"39 410 OFFCURVE",
"108 323 OFFCURVE",
"253 323 CURVE SMOOTH",
"342 323 OFFCURVE",
"420 356 OFFCURVE",
"457 389 CURVE"
);
}
);
width = 535;
},
{
layerId = "505CC2C5-1E9F-4C44-A700-7A06363E8A84";
paths = (
{
closed = 1;
nodes = (
"255 370 OFFCURVE",
"209 419 OFFCURVE",
"209 512 CURVE SMOOTH",
"209 603 OFFCURVE",
"258 658 OFFCURVE",
"321 658 CURVE SMOOTH",
"387 658 OFFCURVE",
"433 608 OFFCURVE",
"433 483 CURVE SMOOTH",
"433 460 OFFCURVE",
"431 427 OFFCURVE",
"428 404 CURVE",
"407 386 OFFCURVE",
"360 370 OFFCURVE",
"321 370 CURVE SMOOTH"
);
},
{
closed = 1;
nodes = (
"408 200 OFFCURVE",
"347 55 OFFCURVE",
"258 55 CURVE SMOOTH",
"223 55 OFFCURVE",
"197 77 OFFCURVE",
"197 115 CURVE SMOOTH",
"197 152 OFFCURVE",
"223 177 OFFCURVE",
"258 177 CURVE SMOOTH",
"350 177 OFFCURVE",
"374 -10 OFFCURVE",
"555 -10 CURVE SMOOTH",
"598 -10 OFFCURVE",
"624 19 OFFCURVE",
"625 64 CURVE",
"408 64 OFFCURVE",
"419 239 OFFCURVE",
"237 239 CURVE SMOOTH",
"129 239 OFFCURVE",
"57 187 OFFCURVE",
"57 107 CURVE SMOOTH",
"57 33 OFFCURVE",
"114 -10 OFFCURVE",
"237 -10 CURVE SMOOTH",
"421 -10 OFFCURVE",
"600 179 OFFCURVE",
"600 457 CURVE SMOOTH",
"600 653 OFFCURVE",
"470 723 OFFCURVE",
"321 723 CURVE SMOOTH",
"160 723 OFFCURVE",
"42 641 OFFCURVE",
"42 509 CURVE SMOOTH",
"42 382 OFFCURVE",
"162 308 OFFCURVE",
"282 308 CURVE SMOOTH",
"346 308 OFFCURVE",
"389 314 OFFCURVE",
"421 328 CURVE"
);
}
);
width = 657;
},
{
layerId = "4BFBD32C-75C4-41CA-8E17-65E778BAAADA";
paths = (
{
closed = 1;
nodes = (
"285 376 OFFCURVE",
"244 418 OFFCURVE",
"244 508 CURVE SMOOTH",
"244 594 OFFCURVE",
"286 646 OFFCURVE",
"331 646 CURVE SMOOTH",
"379 646 OFFCURVE",
"420 606 OFFCURVE",
"420 487 CURVE SMOOTH",
"420 461 OFFCURVE",
"418 424 OFFCURVE",
"415 399 CURVE",
"400 387 OFFCURVE",
"362 376 OFFCURVE",
"335 376 CURVE SMOOTH"
);
},
{
closed = 1;
nodes = (
"398 206 OFFCURVE",
"356 66 OFFCURVE",
"283 66 CURVE SMOOTH",
"254 66 OFFCURVE",
"231 86 OFFCURVE",
"231 121 CURVE SMOOTH",
"231 154 OFFCURVE",
"252 177 OFFCURVE",
"279 177 CURVE SMOOTH",
"359 177 OFFCURVE",
"378 -10 OFFCURVE",
"573 -10 CURVE SMOOTH",
"622 -10 OFFCURVE",
"652 25 OFFCURVE",
"654 78 CURVE",
"420 78 OFFCURVE",
"438 247 OFFCURVE",
"224 247 CURVE SMOOTH",
"137 247 OFFCURVE",
"60 206 OFFCURVE",
"60 127 CURVE SMOOTH",
"60 34 OFFCURVE",
"120 -10 OFFCURVE",
"256 -10 CURVE SMOOTH",
"444 -10 OFFCURVE",
"626 199 OFFCURVE",
"626 454 CURVE SMOOTH",
"626 658 OFFCURVE",
"481 722 OFFCURVE",
"331 722 CURVE SMOOTH",
"166 722 OFFCURVE",
"39 639 OFFCURVE",
"39 504 CURVE SMOOTH",
"39 374 OFFCURVE",
"160 304 OFFCURVE",
"304 304 CURVE SMOOTH",
"343 304 OFFCURVE",
"377 306 OFFCURVE",
"407 315 CURVE"
);
}
);
width = 681;
},
{
layerId = "F2BD3FAB-8356-49CF-A55B-3E49BBA3F552";
paths = (
{
closed = 1;
nodes = (
"206 360 OFFCURVE",
"153 420 OFFCURVE",
"153 518 CURVE SMOOTH",
"153 618 OFFCURVE",
"213 678 OFFCURVE",
"305 678 CURVE SMOOTH",
"399 678 OFFCURVE",
"452 611 OFFCURVE",
"452 477 CURVE SMOOTH",
"452 458 OFFCURVE",
"451 432 OFFCURVE",
"449 411 CURVE",
"417 384 OFFCURVE",
"356 360 OFFCURVE",
"298 360 CURVE SMOOTH"
);
},
{
closed = 1;
nodes = (
"424 186 OFFCURVE",
"332 37 OFFCURVE",
"211 37 CURVE SMOOTH",
"164 37 OFFCURVE",
"144 63 OFFCURVE",
"144 105 CURVE SMOOTH",
"144 149 OFFCURVE",
"167 180 OFFCURVE",
"214 180 CURVE SMOOTH",
"335 180 OFFCURVE",
"367 -10 OFFCURVE",
"527 -10 CURVE SMOOTH",
"560 -10 OFFCURVE",
"579 10 OFFCURVE",
"580 43 CURVE",
"389 43 OFFCURVE",
"388 226 OFFCURVE",
"213 226 CURVE SMOOTH",
"116 226 OFFCURVE",
"53 175 OFFCURVE",
"53 101 CURVE SMOOTH",
"53 32 OFFCURVE",
"105 -10 OFFCURVE",
"206 -10 CURVE SMOOTH",
"392 -10 OFFCURVE",
"559 201 OFFCURVE",
"559 461 CURVE SMOOTH",
"559 645 OFFCURVE",
"453 725 OFFCURVE",
"305 725 CURVE SMOOTH",
"151 725 OFFCURVE",
"47 645 OFFCURVE",
"47 516 CURVE SMOOTH",
"47 394 OFFCURVE",
"145 315 OFFCURVE",
"276 315 CURVE SMOOTH",
"351 315 OFFCURVE",
"409 332 OFFCURVE",
"443 355 CURVE"
);
}
);
width = 620;
},
{
layerId = "75A83886-EED5-4C31-9670-660514D8A4F6";
paths = (
{
closed = 1;
nodes = (
"231 370 OFFCURVE",
"200 413 OFFCURVE",
"200 507 CURVE SMOOTH",
"200 600 OFFCURVE",
"233 655 OFFCURVE",
"281 655 CURVE SMOOTH",
"331 655 OFFCURVE",
"365 612 OFFCURVE",
"365 485 CURVE SMOOTH",
"365 463 OFFCURVE",
"363 417 OFFCURVE",
"360 393 CURVE",
"338 374 OFFCURVE",
"305 370 OFFCURVE",
"283 370 CURVE SMOOTH"
);
},
{
closed = 1;
nodes = (
"339 150 OFFCURVE",
"313 54 OFFCURVE",
"234 54 CURVE",
"208 54 OFFCURVE",
"194 80 OFFCURVE",
"194 117 CURVE SMOOTH",
"194 152 OFFCURVE",
"213 178 OFFCURVE",
"238 178 CURVE SMOOTH",
"310 178 OFFCURVE",
"327 -10 OFFCURVE",
"498 -10 CURVE SMOOTH",
"541 -10 OFFCURVE",
"567 22 OFFCURVE",
"568 70 CURVE",
"364 70 OFFCURVE",
"378 241 OFFCURVE",
"213 241 CURVE SMOOTH",
"114 241 OFFCURVE",
"47 196 OFFCURVE",
"47 117 CURVE SMOOTH",
"47 34 OFFCURVE",
"100 -10 OFFCURVE",
"218 -10 CURVE SMOOTH",
"427 -10 OFFCURVE",
"535 211 OFFCURVE",
"535 444 CURVE SMOOTH",
"535 657 OFFCURVE",
"421 723 OFFCURVE",
"281 723 CURVE SMOOTH",
"136 723 OFFCURVE",
"30 641 OFFCURVE",
"30 506 CURVE SMOOTH",
"30 378 OFFCURVE",
"140 306 OFFCURVE",
"266 306 CURVE SMOOTH",
"296 306 OFFCURVE",
"328 309 OFFCURVE",
"355 317 CURVE"
);
}
);
width = 586;
},
{
layerId = "E7C4F5EE-4982-479C-BF20-1C8706EFFC5D";
paths = (
{
closed = 1;
nodes = (
"144 362 OFFCURVE",
"100 418 OFFCURVE",
"100 520 CURVE SMOOTH",
"100 627 OFFCURVE",
"149 682 OFFCURVE",
"223 682 CURVE SMOOTH",
"312 682 OFFCURVE",
"358 615 OFFCURVE",
"358 475 CURVE SMOOTH",
"358 457 OFFCURVE",
"357 435 OFFCURVE",
"356 418 CURVE",
"333 388 OFFCURVE",
"280 362 OFFCURVE",
"219 362 CURVE SMOOTH"
);
},
{
closed = 1;
nodes = (
"337 180 OFFCURVE",
"270 35 OFFCURVE",
"164 35 CURVE",
"125 35 OFFCURVE",
"98 55 OFFCURVE",
"98 99 CURVE SMOOTH",
"98 147 OFFCURVE",
"129 174 OFFCURVE",
"172 174 CURVE SMOOTH",
"266 174 OFFCURVE",
"290 -10 OFFCURVE",
"412 -10 CURVE SMOOTH",
"436 -10 OFFCURVE",
"449 11 OFFCURVE",
"449 35 CURVE",
"304 35 OFFCURVE",
"304 219 OFFCURVE",
"165 219 CURVE SMOOTH",
"91 219 OFFCURVE",
"39 169 OFFCURVE",
"39 99 CURVE SMOOTH",
"39 32 OFFCURVE",
"85 -10 OFFCURVE",
"160 -10 CURVE SMOOTH",
"324 -10 OFFCURVE",
"426 221 OFFCURVE",
"426 456 CURVE SMOOTH",
"426 638 OFFCURVE",
"345 727 OFFCURVE",
"223 727 CURVE SMOOTH",
"111 727 OFFCURVE",
"34 647 OFFCURVE",
"34 520 CURVE SMOOTH",
"34 400 OFFCURVE",
"106 317 OFFCURVE",
"214 317 CURVE SMOOTH",
"278 317 OFFCURVE",
"324 337 OFFCURVE",
"353 361 CURVE"
);
}
);
width = 476;
},
{
layerId = "5E7C5774-385D-4E06-B68E-CBE970134A7B";
paths = (
{
closed = 1;
nodes = (
"174 354 OFFCURVE",
"116 421 OFFCURVE",
"116 522 CURVE SMOOTH",
"116 628 OFFCURVE",
"183 691 OFFCURVE",
"294 691 CURVE SMOOTH",
"406 691 OFFCURVE",
"464 613 OFFCURVE",
"464 473 CURVE SMOOTH",
"464 456 OFFCURVE",
"464 436 OFFCURVE",
"462 416 CURVE",
"423 382 OFFCURVE",
"352 354 OFFCURVE",
"282 354 CURVE SMOOTH"
);
},
{
closed = 1;
nodes = (
"434 193 OFFCURVE",
"322 26 OFFCURVE",
"192 26 CURVE SMOOTH",
"142 26 OFFCURVE",
"109 54 OFFCURVE",
"109 99 CURVE SMOOTH",
"109 147 OFFCURVE",
"147 182 OFFCURVE",
"203 182 CURVE SMOOTH",
"325 182 OFFCURVE",
"362 -10 OFFCURVE",
"509 -10 CURVE SMOOTH",
"536 -10 OFFCURVE",
"550 4 OFFCURVE",
"551 29 CURVE",
"376 29 OFFCURVE",
"368 217 OFFCURVE",
"197 217 CURVE SMOOTH",
"108 217 OFFCURVE",
"50 167 OFFCURVE",
"50 97 CURVE SMOOTH",
"50 31 OFFCURVE",
"99 -10 OFFCURVE",
"186 -10 CURVE SMOOTH",
"373 -10 OFFCURVE",
"532 216 OFFCURVE",
"532 464 CURVE SMOOTH",
"532 639 OFFCURVE",
"441 727 OFFCURVE",
"294 727 CURVE SMOOTH",
"144 727 OFFCURVE",
"50 647 OFFCURVE",
"50 521 CURVE SMOOTH",
"50 402 OFFCURVE",
"133 319 OFFCURVE",
"271 319 CURVE SMOOTH",
"353 319 OFFCURVE",
"422 344 OFFCURVE",
"457 372 CURVE"
);
}
);
width = 590;
},
{
layerId = "C91144B6-58F5-45F2-9CE4-7ED6CE127FD4";
paths = (
{
closed = 1;
nodes = (
"111 346 OFFCURVE",
"63 420 OFFCURVE",
"63 525 CURVE SMOOTH",
"63 637 OFFCURVE",
"118 703 OFFCURVE",
"203 703 CURVE SMOOTH",
"308 703 OFFCURVE",
"359 604 OFFCURVE",
"359 459 CURVE SMOOTH",
"359 443 OFFCURVE",
"358 429 OFFCURVE",
"357 415 CURVE",
"334 381 OFFCURVE",
"272 346 OFFCURVE",
"197 346 CURVE SMOOTH"
);
},
{
closed = 1;
nodes = (
"338 191 OFFCURVE",
"254 15 OFFCURVE",
"139 15 CURVE SMOOTH",
"96 15 OFFCURVE",
"64 46 OFFCURVE",
"64 93 CURVE SMOOTH",
"64 145 OFFCURVE",
"90 184 OFFCURVE",
"147 184 CURVE SMOOTH",
"250 184 OFFCURVE",
"277 -10 OFFCURVE",
"382 -10 CURVE SMOOTH",
"399 -10 OFFCURVE",
"407 -1 OFFCURVE",
"407 15 CURVE",
"283 15 OFFCURVE",
"278 209 OFFCURVE",
"148 209 CURVE SMOOTH",
"77 209 OFFCURVE",
"36 160 OFFCURVE",
"36 93 CURVE SMOOTH",
"36 31 OFFCURVE",
"80 -10 OFFCURVE",
"139 -10 CURVE SMOOTH",
"288 -10 OFFCURVE",
"387 224 OFFCURVE",
"387 460 CURVE SMOOTH",
"387 631 OFFCURVE",
"318 728 OFFCURVE",
"203 728 CURVE SMOOTH",
"102 728 OFFCURVE",
"35 649 OFFCURVE",
"35 525 CURVE SMOOTH",
"35 408 OFFCURVE",
"94 321 OFFCURVE",
"195 321 CURVE SMOOTH",
"271 321 OFFCURVE",
"325 347 OFFCURVE",
"354 377 CURVE"
);
}
);
width = 437;
},
{
layerId = "464843EB-0DE3-43AD-A7A6-94A12FE2EFF4";
paths = (
{
closed = 1;
nodes = (
"194 367 OFFCURVE",
"158 415 OFFCURVE",
"158 512 CURVE SMOOTH",
"158 611 OFFCURVE",
"198 666 OFFCURVE",
"257 666 CURVE SMOOTH",
"323 666 OFFCURVE",
"362 613 OFFCURVE",
"362 481 CURVE SMOOTH",
"362 460 OFFCURVE",
"360 425 OFFCURVE",
"358 404 CURVE",
"336 380 OFFCURVE",
"295 367 OFFCURVE",
"256 367 CURVE SMOOTH"
);
},
{
closed = 1;
nodes = (
"338 163 OFFCURVE",
"295 46 OFFCURVE",
"205 46 CURVE",
"173 46 OFFCURVE",
"154 70 OFFCURVE",
"154 109 CURVE SMOOTH",
"154 150 OFFCURVE",
"178 176 OFFCURVE",
"210 176 CURVE SMOOTH",
"292 176 OFFCURVE",
"311 -10 OFFCURVE",
"462 -10 CURVE SMOOTH",
"497 -10 OFFCURVE",
"517 17 OFFCURVE",
"518 55 CURVE",
"339 55 OFFCURVE",
"347 232 OFFCURVE",
"193 232 CURVE SMOOTH",
"104 232 OFFCURVE",
"44 185 OFFCURVE",
"44 109 CURVE SMOOTH",
"44 33 OFFCURVE",
"94 -10 OFFCURVE",
"194 -10 CURVE SMOOTH",
"384 -10 OFFCURVE",
"489 215 OFFCURVE",
"489 449 CURVE SMOOTH",
"489 649 OFFCURVE",
"389 725 OFFCURVE",
"257 725 CURVE SMOOTH",
"126 725 OFFCURVE",
"32 644 OFFCURVE",
"32 512 CURVE SMOOTH",
"32 387 OFFCURVE",
"126 311 OFFCURVE",
"244 311 CURVE SMOOTH",
"288 311 OFFCURVE",
"326 321 OFFCURVE",
"354 335 CURVE"
);
}
);
width = 540;
}
);
leftKerningGroup = uni0541;
note = uni0541;
rightKerningGroup = uni0536;
unicode = 0541;
},
{
glyphname = uni0542;
lastChange = "2016-06-23 14:14:42 +0000";
layers = (
{
layerId = "84BA7A8F-8561-401A-9117-1E5C8963A832";
paths = (
{
closed = 1;
nodes = (
"647 0 LINE",
"647 25 LINE",
"476 25 LINE",
"476 0 LINE"
);
},
{
closed = 1;
nodes = (
"160 724 OFFCURVE",
"72 663 OFFCURVE",
"72 500 CURVE SMOOTH",
"72 349 LINE",
"100 349 LINE",
"100 504 LINE SMOOTH",
"100 638 OFFCURVE",
"172 699 OFFCURVE",
"286 699 CURVE SMOOTH",
"407 699 OFFCURVE",
"466 608 OFFCURVE",
"466 495 CURVE SMOOTH",
"466 0 LINE",
"494 0 LINE",
"494 496 LINE SMOOTH",
"494 626 OFFCURVE",
"423 724 OFFCURVE",
"288 724 CURVE SMOOTH"
);
}
);
width = 652;
},
{
layerId = "505CC2C5-1E9F-4C44-A700-7A06363E8A84";
paths = (
{
closed = 1;
nodes = (
"800 0 LINE",
"800 60 LINE",
"601 60 LINE",
"601 0 LINE"
);
},
{
closed = 1;
nodes = (
"163 724 OFFCURVE",
"60 641 OFFCURVE",
"60 491 CURVE SMOOTH",
"60 344 LINE",
"218 344 LINE",
"218 516 LINE SMOOTH",
"218 608 OFFCURVE",
"262 659 OFFCURVE",
"340 659 CURVE SMOOTH",
"419 659 OFFCURVE",
"463 609 OFFCURVE",
"463 516 CURVE SMOOTH",
"463 0 LINE",
"621 0 LINE",
"621 491 LINE SMOOTH",
"621 640 OFFCURVE",
"518 724 OFFCURVE",
"340 724 CURVE SMOOTH"
);
}
);
width = 805;
},
{
layerId = "4BFBD32C-75C4-41CA-8E17-65E778BAAADA";
paths = (
{
closed = 1;
nodes = (
"846 0 LINE",
"846 70 LINE",
"639 70 LINE",
"639 0 LINE"
);
},
{
closed = 1;
nodes = (
"167 724 OFFCURVE",
"60 635 OFFCURVE",
"60 489 CURVE SMOOTH",
"60 343 LINE",
"254 343 LINE",
"254 519 LINE SMOOTH",
"254 600 OFFCURVE",
"290 648 OFFCURVE",
"358 648 CURVE SMOOTH",
"426 648 OFFCURVE",
"465 609 OFFCURVE",
"465 522 CURVE SMOOTH",
"465 0 LINE",
"659 0 LINE",
"659 490 LINE SMOOTH",
"659 644 OFFCURVE",
"548 724 OFFCURVE",
"358 724 CURVE SMOOTH"
);
}
);
width = 851;
},
{
layerId = "F2BD3FAB-8356-49CF-A55B-3E49BBA3F552";
paths = (
{
closed = 1;
nodes = (
"734 0 LINE",
"734 45 LINE",
"547 45 LINE",
"547 0 LINE"
);
},
{
closed = 1;
nodes = (
"162 724 OFFCURVE",
"66 651 OFFCURVE",
"66 495 CURVE SMOOTH",
"66 346 LINE",
"167 346 LINE",
"167 511 LINE SMOOTH",
"167 621 OFFCURVE",
"223 677 OFFCURVE",
"317 677 CURVE SMOOTH",
"414 677 OFFCURVE",
"465 609 OFFCURVE",
"465 507 CURVE SMOOTH",
"465 0 LINE",
"566 0 LINE",
"566 493 LINE SMOOTH",
"566 634 OFFCURVE",
"477 724 OFFCURVE",
"318 724 CURVE SMOOTH"
);
}
);
width = 739;
},
{
layerId = "75A83886-EED5-4C31-9670-660514D8A4F6";
paths = (
{
closed = 1;
nodes = (
"726 0 LINE",
"726 64 LINE",
"545 64 LINE",
"545 0 LINE"
);
},
{
closed = 1;
nodes = (
"120 724 OFFCURVE",
"54 634 OFFCURVE",
"54 500 CURVE SMOOTH",
"54 340 LINE",
"221 340 LINE",
"221 498 LINE SMOOTH",
"221 603 OFFCURVE",
"254 650 OFFCURVE",
"305 650 CURVE SMOOTH",
"369 650 OFFCURVE",
"395 615 OFFCURVE",
"395 504 CURVE SMOOTH",
"395 0 LINE",
"562 0 LINE",
"562 496 LINE SMOOTH",
"562 660 OFFCURVE",
"463 724 OFFCURVE",
"303 724 CURVE SMOOTH"
);
}
);
width = 730;
},
{
layerId = "E7C4F5EE-4982-479C-BF20-1C8706EFFC5D";
paths = (
{
closed = 1;
nodes = (
"578 0 LINE",
"578 43 LINE",
"438 43 LINE",
"438 0 LINE"
);
},
{
closed = 1;
nodes = (
"119 724 OFFCURVE",
"60 627 OFFCURVE",
"60 510 CURVE SMOOTH",
"60 362 LINE",
"124 362 LINE",
"124 508 LINE SMOOTH",
"124 601 OFFCURVE",
"161 677 OFFCURVE",
"258 677 CURVE SMOOTH",
"339 677 OFFCURVE",
"389 634 OFFCURVE",
"389 504 CURVE SMOOTH",
"389 0 LINE",
"453 0 LINE",
"453 499 LINE SMOOTH",
"453 659 OFFCURVE",
"376 724 OFFCURVE",
"258 724 CURVE SMOOTH"
);
}
);
width = 583;
},
{
layerId = "5E7C5774-385D-4E06-B68E-CBE970134A7B";
paths = (
{
closed = 1;
nodes = (
"687 0 LINE",
"687 35 LINE",
"508 35 LINE",
"508 0 LINE"
);
},
{
closed = 1;
nodes = (
"158 724 OFFCURVE",
"66 657 OFFCURVE",
"66 498 CURVE SMOOTH",
"66 348 LINE",
"130 348 LINE",
"130 507 LINE SMOOTH",
"130 630 OFFCURVE",
"194 688 OFFCURVE",
"298 688 CURVE SMOOTH",
"407 688 OFFCURVE",
"462 608 OFFCURVE",
"462 501 CURVE SMOOTH",
"462 0 LINE",
"526 0 LINE",
"526 495 LINE SMOOTH",
"526 630 OFFCURVE",
"447 724 OFFCURVE",
"300 724 CURVE SMOOTH"
);
}
);
width = 692;
},
{
layerId = "C91144B6-58F5-45F2-9CE4-7ED6CE127FD4";
paths = (
{
closed = 1;
nodes = (
"525 0 LINE",
"525 25 LINE",
"400 25 LINE",
"400 0 LINE"
);
},
{
closed = 1;
nodes = (
"119 724 OFFCURVE",
"62 625 OFFCURVE",
"62 514 CURVE SMOOTH",
"62 370 LINE",
"90 370 LINE",
"90 512 LINE SMOOTH",
"90 600 OFFCURVE",
"129 699 OFFCURVE",
"241 699 CURVE SMOOTH",
"329 699 OFFCURVE",
"387 640 OFFCURVE",
"387 504 CURVE SMOOTH",
"387 0 LINE",
"415 0 LINE",
"415 500 LINE SMOOTH",
"415 659 OFFCURVE",
"345 724 OFFCURVE",
"242 724 CURVE SMOOTH"
);
}
);
width = 531;
},
{
layerId = "464843EB-0DE3-43AD-A7A6-94A12FE2EFF4";
paths = (
{
closed = 1;
nodes = (
"664 0 LINE",
"664 55 LINE",
"500 55 LINE",
"500 0 LINE"
);
},
{
closed = 1;
nodes = (
"120 724 OFFCURVE",
"57 631 OFFCURVE",
"57 504 CURVE SMOOTH",
"57 349 LINE",
"180 349 LINE",
"180 502 LINE SMOOTH",
"180 602 OFFCURVE",
"215 661 OFFCURVE",
"285 661 CURVE SMOOTH",
"356 661 OFFCURVE",
"392 623 OFFCURVE",
"392 504 CURVE SMOOTH",
"392 0 LINE",
"516 0 LINE",
"516 497 LINE SMOOTH",
"516 660 OFFCURVE",
"426 724 OFFCURVE",
"284 724 CURVE SMOOTH"
);
}
);
width = 668;
}
);
leftKerningGroup = uni0534;
note = uni0542;
unicode = 0542;
},
{
glyphname = uni0543;
lastChange = "2016-06-23 14:14:42 +0000";
layers = (
{
layerId = "84BA7A8F-8561-401A-9117-1E5C8963A832";
paths = (
{
closed = 1;
nodes = (
"578 455 OFFCURVE",
"495 618 OFFCURVE",
"42 618 CURVE",
"42 591 LINE",
"463 591 OFFCURVE",
"550 452 OFFCURVE",
"550 25 CURVE",
"269 25 LINE SMOOTH",
"137 25 OFFCURVE",
"84 69 OFFCURVE",
"84 178 CURVE SMOOTH",
"84 361 OFFCURVE",
"281 704 OFFCURVE",
"465 704 CURVE SMOOTH",
"519 704 OFFCURVE",
"547 677 OFFCURVE",
"548 595 CURVE",
"562 595 OFFCURVE",
"575 601 OFFCURVE",
"575 621 CURVE SMOOTH",
"575 684 OFFCURVE",
"540 729 OFFCURVE",
"463 729 CURVE SMOOTH",
"268 729 OFFCURVE",
"56 378 OFFCURVE",
"56 179 CURVE SMOOTH",
"56 54 OFFCURVE",
"116 0 OFFCURVE",
"269 0 CURVE SMOOTH",
"578 0 LINE"
);
}
);
width = 630;
},
{
layerId = "505CC2C5-1E9F-4C44-A700-7A06363E8A84";
paths = (
{
closed = 1;
nodes = (
"658 459 OFFCURVE",
"511 628 OFFCURVE",
"62 628 CURVE",
"62 563 LINE",
"423 563 OFFCURVE",
"500 413 OFFCURVE",
"500 65 CURVE",
"349 65 LINE",
"257 65 OFFCURVE",
"204 109 OFFCURVE",
"204 219 CURVE SMOOTH",
"204 450 OFFCURVE",
"358 650 OFFCURVE",
"488 650 CURVE SMOOTH",
"528 650 OFFCURVE",
"551 617 OFFCURVE",
"551 542 CURVE",
"629 542 OFFCURVE",
"686 576 OFFCURVE",
"686 625 CURVE SMOOTH",
"686 685 OFFCURVE",
"627 724 OFFCURVE",
"531 724 CURVE SMOOTH",
"287 724 OFFCURVE",
"36 398 OFFCURVE",
"36 224 CURVE SMOOTH",
"36 68 OFFCURVE",
"135 0 OFFCURVE",
"350 0 CURVE SMOOTH",
"658 0 LINE"
);
}
);
width = 718;
},
{
layerId = "4BFBD32C-75C4-41CA-8E17-65E778BAAADA";
paths = (
{
closed = 1;
nodes = (
"679 460 OFFCURVE",
"514 631 OFFCURVE",
"66 631 CURVE",
"66 555 LINE",
"410 555 OFFCURVE",
"485 402 OFFCURVE",
"485 76 CURVE",
"370 76 LINE SMOOTH",
"289 76 OFFCURVE",
"236 120 OFFCURVE",
"236 230 CURVE SMOOTH",
"236 475 OFFCURVE",
"378 635 OFFCURVE",
"493 635 CURVE SMOOTH",
"529 635 OFFCURVE",
"550 600 OFFCURVE",
"550 527 CURVE",
"646 527 OFFCURVE",
"715 569 OFFCURVE",
"715 626 CURVE SMOOTH",
"715 685 OFFCURVE",
"650 723 OFFCURVE",
"548 723 CURVE SMOOTH",
"291 723 OFFCURVE",
"29 404 OFFCURVE",
"29 236 CURVE SMOOTH",
"29 72 OFFCURVE",
"138 0 OFFCURVE",
"370 0 CURVE SMOOTH",
"679 0 LINE"
);
}
);
width = 734;
},
{
layerId = "F2BD3FAB-8356-49CF-A55B-3E49BBA3F552";
paths = (
{
closed = 1;
nodes = (
"625 457 OFFCURVE",
"506 624 OFFCURVE",
"55 624 CURVE",
"55 575 LINE",
"443 575 OFFCURVE",
"524 430 OFFCURVE",
"524 47 CURVE",
"316 47 LINE SMOOTH",
"207 47 OFFCURVE",
"154 91 OFFCURVE",
"154 201 CURVE SMOOTH",
"154 411 OFFCURVE",
"326 674 OFFCURVE",
"480 674 CURVE SMOOTH",
"526 674 OFFCURVE",
"551 643 OFFCURVE",
"552 565 CURVE",
"602 565 OFFCURVE",
"640 587 OFFCURVE",
"640 623 CURVE SMOOTH",
"640 685 OFFCURVE",
"591 726 OFFCURVE",
"503 726 CURVE SMOOTH",
"281 726 OFFCURVE",
"47 389 OFFCURVE",
"47 204 CURVE SMOOTH",
"47 62 OFFCURVE",
"128 0 OFFCURVE",
"316 0 CURVE",
"625 0 LINE"
);
}
);
width = 693;
},
{
layerId = "75A83886-EED5-4C31-9670-660514D8A4F6";
paths = (
{
closed = 1;
nodes = (
"596 458 OFFCURVE",
"453 629 OFFCURVE",
"58 629 CURVE",
"58 565 LINE",
"363 565 OFFCURVE",
"430 406 OFFCURVE",
"430 64 CURVE",
"323 64 LINE",
"251 64 OFFCURVE",
"202 112 OFFCURVE",
"202 222 CURVE SMOOTH",
"202 424 OFFCURVE",
"299 646 OFFCURVE",
"421 646 CURVE SMOOTH",
"467 646 OFFCURVE",
"486 612 OFFCURVE",
"486 538 CURVE",
"568 538 OFFCURVE",
"627 574 OFFCURVE",
"627 626 CURVE SMOOTH",
"627 685 OFFCURVE",
"570 724 OFFCURVE",
"482 724 CURVE SMOOTH",
"273 724 OFFCURVE",
"26 434 OFFCURVE",
"26 227 CURVE SMOOTH",
"26 69 OFFCURVE",
"121 0 OFFCURVE",
"323 0 CURVE",
"596 0 LINE"
);
}
);
width = 647;
},
{
layerId = "E7C4F5EE-4982-479C-BF20-1C8706EFFC5D";
paths = (
{
closed = 1;
nodes = (
"490 456 OFFCURVE",
"404 621 OFFCURVE",
"44 621 CURVE",
"44 578 LINE",
"360 578 OFFCURVE",
"427 428 OFFCURVE",
"427 43 CURVE",
"244 43 LINE",
"151 43 OFFCURVE",
"109 80 OFFCURVE",
"109 189 CURVE SMOOTH",
"109 412 OFFCURVE",
"250 683 OFFCURVE",
"378 683 CURVE SMOOTH",
"421 683 OFFCURVE",
"442 660 OFFCURVE",
"442 580 CURVE",
"474 580 OFFCURVE",
"499 594 OFFCURVE",
"499 622 CURVE SMOOTH",
"499 684 OFFCURVE",
"462 728 OFFCURVE",
"395 728 CURVE SMOOTH",
"228 728 OFFCURVE",
"42 433 OFFCURVE",
"42 191 CURVE SMOOTH",
"42 58 OFFCURVE",
"102 0 OFFCURVE",
"244 0 CURVE",
"490 0 LINE"
);
}
);
width = 551;
},
{
layerId = "5E7C5774-385D-4E06-B68E-CBE970134A7B";
paths = (
{
closed = 1;
nodes = (
"604 456 OFFCURVE",
"503 621 OFFCURVE",
"51 621 CURVE",
"51 583 LINE",
"456 583 OFFCURVE",
"540 441 OFFCURVE",
"540 36 CURVE",
"295 36 LINE SMOOTH",
"174 36 OFFCURVE",
"121 80 OFFCURVE",
"121 189 CURVE SMOOTH",
"121 386 OFFCURVE",
"306 689 OFFCURVE",
"475 689 CURVE SMOOTH",
"525 689 OFFCURVE",
"552 660 OFFCURVE",
"553 580 CURVE",
"584 580 OFFCURVE",
"610 594 OFFCURVE",
"610 622 CURVE SMOOTH",
"610 684 OFFCURVE",
"568 728 OFFCURVE",
"485 728 CURVE SMOOTH",
"277 728 OFFCURVE",
"54 383 OFFCURVE",
"54 191 CURVE SMOOTH",
"54 58 OFFCURVE",
"125 0 OFFCURVE",
"295 0 CURVE SMOOTH",
"604 0 LINE"
);
}
);
width = 664;
},
{
layerId = "C91144B6-58F5-45F2-9CE4-7ED6CE127FD4";
paths = (
{
closed = 1;
nodes = (
"453 455 OFFCURVE",
"386 618 OFFCURVE",
"38 618 CURVE",
"38 593 LINE",
"359 593 OFFCURVE",
"425 452 OFFCURVE",
"425 25 CURVE",
"216 25 LINE SMOOTH",
"116 25 OFFCURVE",
"75 69 OFFCURVE",
"75 178 CURVE SMOOTH",
"75 371 OFFCURVE",
"232 704 OFFCURVE",
"363 704 CURVE SMOOTH",
"404 704 OFFCURVE",
"426 677 OFFCURVE",
"426 595 CURVE",
"440 595 OFFCURVE",
"453 601 OFFCURVE",
"453 621 CURVE SMOOTH",
"453 684 OFFCURVE",
"424 729 OFFCURVE",
"364 729 CURVE SMOOTH",
"212 729 OFFCURVE",
"47 378 OFFCURVE",
"47 179 CURVE SMOOTH",
"47 54 OFFCURVE",
"95 0 OFFCURVE",
"216 0 CURVE SMOOTH",
"453 0 LINE"
);
}
);
width = 517;
},
{
layerId = "464843EB-0DE3-43AD-A7A6-94A12FE2EFF4";
paths = (
{
closed = 1;
nodes = (
"551 457 OFFCURVE",
"432 626 OFFCURVE",
"52 626 CURVE",
"52 570 LINE",
"362 570 OFFCURVE",
"429 415 OFFCURVE",
"429 55 CURVE",
"290 55 LINE",
"209 55 OFFCURVE",
"163 99 OFFCURVE",
"163 208 CURVE SMOOTH",
"163 419 OFFCURVE",
"278 662 OFFCURVE",
"403 662 CURVE SMOOTH",
"448 662 OFFCURVE",
"468 632 OFFCURVE",
"468 556 CURVE",
"529 556 OFFCURVE",
"573 582 OFFCURVE",
"573 624 CURVE SMOOTH",
"573 685 OFFCURVE",
"525 726 OFFCURVE",
"445 726 CURVE SMOOTH",
"254 726 OFFCURVE",
"33 434 OFFCURVE",
"33 212 CURVE SMOOTH",
"33 64 OFFCURVE",
"113 0 OFFCURVE",
"290 0 CURVE",
"551 0 LINE"
);
}
);
width = 607;
}
);
note = uni0543;
unicode = 0543;
},
{
glyphname = uni0544;
lastChange = "2016-06-23 14:14:42 +0000";
layers = (
{
layerId = "84BA7A8F-8561-401A-9117-1E5C8963A832";
paths = (
{
closed = 1;
nodes = (
"464 694 LINE",
"514 694 OFFCURVE",
"520 683 OFFCURVE",
"520 606 CURVE SMOOTH",
"520 219 LINE SMOOTH",
"520 106 OFFCURVE",
"458 15 OFFCURVE",
"317 15 CURVE SMOOTH",
"193 15 OFFCURVE",
"117 76 OFFCURVE",
"117 210 CURVE SMOOTH",
"117 714 LINE",
"33 714 LINE",
"33 694 LINE",
"83 694 OFFCURVE",
"89 683 OFFCURVE",
"89 606 CURVE SMOOTH",
"89 214 LINE SMOOTH",
"89 51 OFFCURVE",
"181 -10 OFFCURVE",
"319 -10 CURVE SMOOTH",
"474 -10 OFFCURVE",
"548 88 OFFCURVE",
"548 218 CURVE SMOOTH",
"548 714 LINE",
"464 714 LINE"
);
},
{
closed = 1;
nodes = (
"611 689 OFFCURVE",
"621 674 OFFCURVE",
"621 608 CURVE",
"640 608 OFFCURVE",
"651 619 OFFCURVE",
"651 638 CURVE SMOOTH",
"651 687 OFFCURVE",
"624 714 OFFCURVE",
"572 714 CURVE SMOOTH",
"534 714 LINE",
"534 689 LINE",
"565 689 LINE"
);
}
);
width = 668;
},
{
layerId = "505CC2C5-1E9F-4C44-A700-7A06363E8A84";
paths = (
{
closed = 1;
nodes = (
"458 663 LINE",
"497 663 OFFCURVE",
"503 653 OFFCURVE",
"503 600 CURVE SMOOTH",
"503 198 LINE SMOOTH",
"503 106 OFFCURVE",
"459 55 OFFCURVE",
"381 55 CURVE SMOOTH",
"302 55 OFFCURVE",
"258 105 OFFCURVE",
"258 198 CURVE SMOOTH",
"258 714 LINE",
"54 714 LINE",
"54 663 LINE",
"93 663 OFFCURVE",
"100 653 OFFCURVE",
"100 600 CURVE SMOOTH",
"100 223 LINE SMOOTH",
"100 74 OFFCURVE",
"203 -10 OFFCURVE",
"381 -10 CURVE SMOOTH",
"558 -10 OFFCURVE",
"661 73 OFFCURVE",
"661 223 CURVE SMOOTH",
"661 714 LINE",
"458 714 LINE"
);
},
{
closed = 1;
nodes = (
"715 649 OFFCURVE",
"736 608 OFFCURVE",
"736 513 CURVE",
"808 513 OFFCURVE",
"846 552 OFFCURVE",
"846 607 CURVE SMOOTH",
"846 683 OFFCURVE",
"791 714 OFFCURVE",
"674 714 CURVE SMOOTH",
"612 714 LINE",
"612 649 LINE",
"669 649 LINE"
);
}
);
width = 826;
},
{
layerId = "4BFBD32C-75C4-41CA-8E17-65E778BAAADA";
paths = (
{
closed = 1;
nodes = (
"454 654 LINE",
"489 654 OFFCURVE",
"495 645 OFFCURVE",
"495 598 CURVE SMOOTH",
"495 192 LINE SMOOTH",
"495 106 OFFCURVE",
"456 66 OFFCURVE",
"396 66 CURVE SMOOTH",
"329 66 OFFCURVE",
"294 113 OFFCURVE",
"294 195 CURVE SMOOTH",
"294 714 LINE",
"57 714 LINE",
"57 654 LINE",
"93 654 OFFCURVE",
"100 645 OFFCURVE",
"100 598 CURVE SMOOTH",
"100 225 LINE SMOOTH",
"100 80 OFFCURVE",
"206 -10 OFFCURVE",
"395 -10 CURVE SMOOTH",
"578 -10 OFFCURVE",
"689 69 OFFCURVE",
"689 224 CURVE SMOOTH",
"689 714 LINE",
"454 714 LINE"
);
},
{
closed = 1;
nodes = (
"741 638 OFFCURVE",
"765 610 OFFCURVE",
"765 487 CURVE",
"852 487 OFFCURVE",
"897 533 OFFCURVE",
"897 598 CURVE SMOOTH",
"897 682 OFFCURVE",
"835 714 OFFCURVE",
"700 714 CURVE SMOOTH",
"631 714 LINE",
"631 638 LINE",
"695 638 LINE"
);
}
);
width = 871;
},
{
layerId = "F2BD3FAB-8356-49CF-A55B-3E49BBA3F552";
paths = (
{
closed = 1;
nodes = (
"466 677 LINE",
"510 677 OFFCURVE",
"516 666 OFFCURVE",
"516 603 CURVE SMOOTH",
"516 207 LINE SMOOTH",
"516 106 OFFCURVE",
"464 37 OFFCURVE",
"358 37 CURVE SMOOTH",
"259 37 OFFCURVE",
"201 92 OFFCURVE",
"201 203 CURVE SMOOTH",
"201 714 LINE",
"50 714 LINE",
"50 677 LINE",
"94 677 OFFCURVE",
"100 666 OFFCURVE",
"100 603 CURVE SMOOTH",
"100 219 LINE SMOOTH",
"100 64 OFFCURVE",
"199 -10 OFFCURVE",
"359 -10 CURVE SMOOTH",
"526 -10 OFFCURVE",
"617 80 OFFCURVE",
"617 221 CURVE SMOOTH",
"617 714 LINE",
"466 714 LINE"
);
},
{
closed = 1;
nodes = (
"675 667 OFFCURVE",
"691 637 OFFCURVE",
"691 555 CURVE",
"740 555 OFFCURVE",
"766 581 OFFCURVE",
"766 621 CURVE SMOOTH",
"766 685 OFFCURVE",
"723 714 OFFCURVE",
"634 714 CURVE SMOOTH",
"583 714 LINE",
"583 667 LINE",
"629 667 LINE"
);
}
);
width = 754;
},
{
layerId = "75A83886-EED5-4C31-9670-660514D8A4F6";
paths = (
{
closed = 1;
nodes = (
"367 658 LINE",
"397 658 OFFCURVE",
"421 651 OFFCURVE",
"421 599 CURVE SMOOTH",
"421 216 LINE SMOOTH",
"421 111 OFFCURVE",
"388 64 OFFCURVE",
"337 64 CURVE SMOOTH",
"273 64 OFFCURVE",
"247 99 OFFCURVE",
"247 210 CURVE SMOOTH",
"247 714 LINE",
"26 714 LINE",
"26 658 LINE",
"66 658 OFFCURVE",
"80 653 OFFCURVE",
"80 599 CURVE SMOOTH",
"80 218 LINE SMOOTH",
"80 54 OFFCURVE",
"176 -10 OFFCURVE",
"336 -10 CURVE SMOOTH",
"519 -10 OFFCURVE",
"588 80 OFFCURVE",
"588 214 CURVE SMOOTH",
"588 714 LINE",
"367 714 LINE"
);
},
{
closed = 1;
nodes = (
"651 646 OFFCURVE",
"672 614 OFFCURVE",
"672 506 CURVE",
"747 506 OFFCURVE",
"786 546 OFFCURVE",
"786 605 CURVE SMOOTH",
"786 682 OFFCURVE",
"732 714 OFFCURVE",
"615 714 CURVE SMOOTH",
"555 714 LINE",
"555 646 LINE",
"610 646 LINE"
);
}
);
width = 802;
},
{
layerId = "E7C4F5EE-4982-479C-BF20-1C8706EFFC5D";
paths = (
{
closed = 1;
nodes = (
"358 679 LINE",
"403 679 OFFCURVE",
"413 669 OFFCURVE",
"413 599 CURVE SMOOTH",
"413 216 LINE SMOOTH",
"413 123 OFFCURVE",
"376 37 OFFCURVE",
"280 37 CURVE SMOOTH",
"198 37 OFFCURVE",
"148 90 OFFCURVE",
"148 220 CURVE SMOOTH",
"148 714 LINE",
"33 714 LINE",
"33 679 LINE",
"77 679 OFFCURVE",
"84 669 OFFCURVE",
"84 600 CURVE SMOOTH",
"84 215 LINE SMOOTH",
"84 55 OFFCURVE",
"161 -10 OFFCURVE",
"279 -10 CURVE SMOOTH",
"417 -10 OFFCURVE",
"477 87 OFFCURVE",
"477 204 CURVE SMOOTH",
"477 714 LINE",
"358 714 LINE"
);
},
{
closed = 1;
nodes = (
"537 669 OFFCURVE",
"548 649 OFFCURVE",
"548 573 CURVE",
"580 573 OFFCURVE",
"598 600 OFFCURVE",
"598 629 CURVE SMOOTH",
"598 686 OFFCURVE",
"568 714 OFFCURVE",
"505 714 CURVE SMOOTH",
"467 714 LINE",
"467 669 LINE",
"500 669 LINE"
);
}
);
width = 615;
},
{
layerId = "5E7C5774-385D-4E06-B68E-CBE970134A7B";
paths = (
{
closed = 1;
nodes = (
"474 686 LINE",
"521 686 OFFCURVE",
"527 675 OFFCURVE",
"527 605 CURVE SMOOTH",
"527 213 LINE SMOOTH",
"527 106 OFFCURVE",
"470 26 OFFCURVE",
"346 26 CURVE SMOOTH",
"234 26 OFFCURVE",
"167 84 OFFCURVE",
"167 207 CURVE SMOOTH",
"167 714 LINE",
"50 714 LINE",
"50 686 LINE",
"97 686 OFFCURVE",
"103 675 OFFCURVE",
"103 605 CURVE SMOOTH",
"103 216 LINE SMOOTH",
"103 57 OFFCURVE",
"198 -10 OFFCURVE",
"347 -10 CURVE SMOOTH",
"508 -10 OFFCURVE",
"591 84 OFFCURVE",
"591 219 CURVE SMOOTH",
"591 714 LINE",
"474 714 LINE"
);
},
{
closed = 1;
nodes = (
"651 678 OFFCURVE",
"664 656 OFFCURVE",
"664 582 CURVE",
"698 582 OFFCURVE",
"717 600 OFFCURVE",
"717 630 CURVE SMOOTH",
"717 686 OFFCURVE",
"682 714 OFFCURVE",
"611 714 CURVE SMOOTH",
"567 714 LINE",
"567 678 LINE",
"605 678 LINE"
);
}
);
width = 704;
},
{
layerId = "C91144B6-58F5-45F2-9CE4-7ED6CE127FD4";
paths = (
{
closed = 1;
nodes = (
"355 694 LINE",
"405 694 OFFCURVE",
"411 683 OFFCURVE",
"411 607 CURVE SMOOTH",
"411 202 LINE SMOOTH",
"411 114 OFFCURVE",
"372 15 OFFCURVE",
"260 15 CURVE SMOOTH",
"172 15 OFFCURVE",
"114 74 OFFCURVE",
"114 210 CURVE SMOOTH",
"114 714 LINE",
"36 714 LINE",
"36 694 LINE",
"82 694 OFFCURVE",
"86 683 OFFCURVE",
"86 609 CURVE SMOOTH",
"86 214 LINE SMOOTH",
"86 55 OFFCURVE",
"156 -10 OFFCURVE",
"259 -10 CURVE SMOOTH",
"382 -10 OFFCURVE",
"439 89 OFFCURVE",
"439 200 CURVE SMOOTH",
"439 714 LINE",
"355 714 LINE"
);
},
{
closed = 1;
nodes = (
"497 689 OFFCURVE",
"505 674 OFFCURVE",
"505 608 CURVE",
"522 608 OFFCURVE",
"532 619 OFFCURVE",
"532 638 CURVE SMOOTH",
"532 687 OFFCURVE",
"510 714 OFFCURVE",
"466 714 CURVE SMOOTH",
"436 714 LINE",
"436 689 LINE",
"461 689 LINE"
);
}
);
width = 550;
},
{
layerId = "464843EB-0DE3-43AD-A7A6-94A12FE2EFF4";
paths = (
{
closed = 1;
nodes = (
"363 667 LINE",
"400 667 OFFCURVE",
"418 659 OFFCURVE",
"418 599 CURVE SMOOTH",
"418 216 LINE SMOOTH",
"418 116 OFFCURVE",
"383 53 OFFCURVE",
"313 53 CURVE SMOOTH",
"242 53 OFFCURVE",
"205 95 OFFCURVE",
"205 214 CURVE SMOOTH",
"205 714 LINE",
"29 714 LINE",
"29 667 LINE",
"71 667 OFFCURVE",
"82 660 OFFCURVE",
"82 599 CURVE SMOOTH",
"82 217 LINE SMOOTH",
"82 54 OFFCURVE",
"170 -10 OFFCURVE",
"312 -10 CURVE SMOOTH",
"476 -10 OFFCURVE",
"541 83 OFFCURVE",
"541 210 CURVE SMOOTH",
"541 714 LINE",
"363 714 LINE"
);
},
{
closed = 1;
nodes = (
"603 656 OFFCURVE",
"620 629 OFFCURVE",
"620 534 CURVE",
"677 534 OFFCURVE",
"707 569 OFFCURVE",
"707 615 CURVE SMOOTH",
"707 684 OFFCURVE",
"663 714 OFFCURVE",
"569 714 CURVE SMOOTH",
"518 714 LINE",
"518 656 LINE",
"564 656 LINE"
);
}
);
width = 723;
}
);
leftKerningGroup = uni0531;
note = uni0544;
rightKerningGroup = uni0544;
unicode = 0544;
},
{
glyphname = uni0545;
lastChange = "2016-06-23 14:14:42 +0000";
layers = (
{
layerId = "84BA7A8F-8561-401A-9117-1E5C8963A832";
paths = (
{
closed = 1;
nodes = (
"419 -9 OFFCURVE",
"520 70 OFFCURVE",
"520 198 CURVE SMOOTH",
"520 323 OFFCURVE",
"436 372 OFFCURVE",
"355 381 CURVE",
"426 397 OFFCURVE",
"485 445 OFFCURVE",
"485 548 CURVE SMOOTH",
"485 654 OFFCURVE",
"412 726 OFFCURVE",
"293 726 CURVE SMOOTH",
"139 726 OFFCURVE",
"95 636 OFFCURVE",
"95 575 CURVE SMOOTH",
"95 554 OFFCURVE",
"104 544 OFFCURVE",
"122 544 CURVE",
"122 621 OFFCURVE",
"152 701 OFFCURVE",
"293 701 CURVE SMOOTH",
"398 701 OFFCURVE",
"457 636 OFFCURVE",
"457 548 CURVE SMOOTH",
"457 449 OFFCURVE",
"397 394 OFFCURVE",
"286 394 CURVE SMOOTH",
"39 394 LINE",
"39 369 LINE",
"286 369 LINE SMOOTH",
"409 369 OFFCURVE",
"492 312 OFFCURVE",
"492 201 CURVE SMOOTH",
"492 82 OFFCURVE",
"396 16 OFFCURVE",
"275 16 CURVE SMOOTH",
"161 16 OFFCURVE",
"75 58 OFFCURVE",
"75 178 CURVE",
"55 178 OFFCURVE",
"47 169 OFFCURVE",
"47 155 CURVE SMOOTH",
"47 44 OFFCURVE",
"140 -9 OFFCURVE",
"276 -9 CURVE SMOOTH"
);
}
);
width = 561;
},
{
layerId = "505CC2C5-1E9F-4C44-A700-7A06363E8A84";
paths = (
{
closed = 1;
nodes = (
"488 -11 OFFCURVE",
"640 56 OFFCURVE",
"640 210 CURVE SMOOTH",
"640 334 OFFCURVE",
"525 378 OFFCURVE",
"443 386 CURVE",
"540 407 OFFCURVE",
"614 453 OFFCURVE",
"614 557 CURVE SMOOTH",
"614 673 OFFCURVE",
"506 724 OFFCURVE",
"346 724 CURVE SMOOTH",
"191 724 OFFCURVE",
"95 662 OFFCURVE",
"95 591 CURVE SMOOTH",
"95 523 OFFCURVE",
"152 508 OFFCURVE",
"225 508 CURVE",
"225 595 OFFCURVE",
"254 663 OFFCURVE",
"339 663 CURVE SMOOTH",
"418 663 OFFCURVE",
"452 620 OFFCURVE",
"452 546 CURVE SMOOTH",
"452 448 OFFCURVE",
"400 412 OFFCURVE",
"300 412 CURVE SMOOTH",
"50 412 LINE",
"50 350 LINE",
"302 350 LINE SMOOTH",
"425 350 OFFCURVE",
"476 293 OFFCURVE",
"476 204 CURVE SMOOTH",
"476 104 OFFCURVE",
"418 53 OFFCURVE",
"323 53 CURVE SMOOTH",
"221 53 OFFCURVE",
"192 121 OFFCURVE",
"190 225 CURVE",
"120 225 OFFCURVE",
"60 191 OFFCURVE",
"60 138 CURVE SMOOTH",
"60 61 OFFCURVE",
"132 -11 OFFCURVE",
"337 -11 CURVE SMOOTH"
);
}
);
width = 682;
},
{
layerId = "4BFBD32C-75C4-41CA-8E17-65E778BAAADA";
paths = (
{
closed = 1;
nodes = (
"501 -12 OFFCURVE",
"667 52 OFFCURVE",
"667 213 CURVE SMOOTH",
"667 337 OFFCURVE",
"544 380 OFFCURVE",
"461 387 CURVE",
"566 410 OFFCURVE",
"644 455 OFFCURVE",
"644 559 CURVE SMOOTH",
"644 678 OFFCURVE",
"526 723 OFFCURVE",
"355 723 CURVE SMOOTH",
"199 723 OFFCURVE",
"89 669 OFFCURVE",
"89 595 CURVE SMOOTH",
"89 514 OFFCURVE",
"159 498 OFFCURVE",
"247 498 CURVE",
"247 588 OFFCURVE",
"276 647 OFFCURVE",
"346 647 CURVE SMOOTH",
"417 647 OFFCURVE",
"445 616 OFFCURVE",
"445 545 CURVE SMOOTH",
"445 448 OFFCURVE",
"395 416 OFFCURVE",
"298 416 CURVE SMOOTH",
"47 416 LINE",
"47 346 LINE",
"300 346 LINE SMOOTH",
"423 346 OFFCURVE",
"466 288 OFFCURVE",
"466 205 CURVE SMOOTH",
"466 110 OFFCURVE",
"418 64 OFFCURVE",
"330 64 CURVE SMOOTH",
"232 64 OFFCURVE",
"218 138 OFFCURVE",
"216 238 CURVE",
"132 238 OFFCURVE",
"58 197 OFFCURVE",
"58 133 CURVE SMOOTH",
"58 66 OFFCURVE",
"124 -12 OFFCURVE",
"348 -12 CURVE SMOOTH"
);
}
);
width = 708;
},
{
layerId = "F2BD3FAB-8356-49CF-A55B-3E49BBA3F552";
paths = (
{
closed = 1;
nodes = (
"467 -10 OFFCURVE",
"596 62 OFFCURVE",
"596 205 CURVE SMOOTH",
"596 329 OFFCURVE",
"495 375 OFFCURVE",
"413 384 CURVE",
"499 403 OFFCURVE",
"566 449 OFFCURVE",
"566 553 CURVE SMOOTH",
"566 665 OFFCURVE",
"474 725 OFFCURVE",
"332 725 CURVE SMOOTH",
"177 725 OFFCURVE",
"104 651 OFFCURVE",
"104 584 CURVE SMOOTH",
"104 537 OFFCURVE",
"140 524 OFFCURVE",
"189 524 CURVE",
"189 606 OFFCURVE",
"218 680 OFFCURVE",
"328 680 CURVE SMOOTH",
"418 680 OFFCURVE",
"463 627 OFFCURVE",
"463 547 CURVE SMOOTH",
"463 448 OFFCURVE",
"408 404 OFFCURVE",
"303 404 CURVE SMOOTH",
"54 404 LINE",
"54 358 LINE",
"304 358 LINE SMOOTH",
"427 358 OFFCURVE",
"492 301 OFFCURVE",
"492 203 CURVE SMOOTH",
"492 94 OFFCURVE",
"417 37 OFFCURVE",
"311 37 CURVE SMOOTH",
"204 37 OFFCURVE",
"150 93 OFFCURVE",
"148 204 CURVE",
"100 204 OFFCURVE",
"63 181 OFFCURVE",
"63 145 CURVE SMOOTH",
"63 54 OFFCURVE",
"144 -10 OFFCURVE",
"319 -10 CURVE SMOOTH"
);
}
);
width = 641;
},
{
layerId = "75A83886-EED5-4C31-9670-660514D8A4F6";
paths = (
{
closed = 1;
nodes = (
"413 -11 OFFCURVE",
"540 50 OFFCURVE",
"540 203 CURVE SMOOTH",
"540 328 OFFCURVE",
"433 381 OFFCURVE",
"369 386 CURVE",
"450 407 OFFCURVE",
"518 451 OFFCURVE",
"518 549 CURVE SMOOTH",
"518 665 OFFCURVE",
"430 724 OFFCURVE",
"282 724 CURVE SMOOTH",
"136 724 OFFCURVE",
"64 658 OFFCURVE",
"64 591 CURVE SMOOTH",
"64 518 OFFCURVE",
"131 504 OFFCURVE",
"203 504 CURVE",
"203 598 OFFCURVE",
"220 660 OFFCURVE",
"281 660 CURVE SMOOTH",
"329 660 OFFCURVE",
"348 618 OFFCURVE",
"348 544 CURVE SMOOTH",
"348 444 OFFCURVE",
"317 412 OFFCURVE",
"226 412 CURVE SMOOTH",
"30 412 LINE",
"30 347 LINE",
"231 347 LINE SMOOTH",
"336 347 OFFCURVE",
"363 289 OFFCURVE",
"363 196 CURVE SMOOTH",
"363 102 OFFCURVE",
"335 55 OFFCURVE",
"272 55 CURVE SMOOTH",
"195 55 OFFCURVE",
"157 122 OFFCURVE",
"157 235 CURVE",
"77 235 OFFCURVE",
"23 199 OFFCURVE",
"23 140 CURVE SMOOTH",
"23 58 OFFCURVE",
"104 -11 OFFCURVE",
"267 -11 CURVE SMOOTH"
);
}
);
width = 579;
},
{
layerId = "E7C4F5EE-4982-479C-BF20-1C8706EFFC5D";
paths = (
{
closed = 1;
nodes = (
"356 -11 OFFCURVE",
"446 56 OFFCURVE",
"446 198 CURVE SMOOTH",
"446 323 OFFCURVE",
"379 370 OFFCURVE",
"315 382 CURVE",
"387 408 OFFCURVE",
"424 459 OFFCURVE",
"424 559 CURVE SMOOTH",
"424 671 OFFCURVE",
"354 724 OFFCURVE",
"250 724 CURVE SMOOTH",
"116 724 OFFCURVE",
"80 641 OFFCURVE",
"80 594 CURVE SMOOTH",
"80 553 OFFCURVE",
"103 540 OFFCURVE",
"130 540 CURVE",
"130 615 OFFCURVE",
"146 679 OFFCURVE",
"250 679 CURVE SMOOTH",
"322 679 OFFCURVE",
"362 642 OFFCURVE",
"362 553 CURVE SMOOTH",
"362 454 OFFCURVE",
"322 402 OFFCURVE",
"245 402 CURVE SMOOTH",
"39 402 LINE",
"39 359 LINE",
"244 359 LINE SMOOTH",
"334 359 OFFCURVE",
"385 305 OFFCURVE",
"385 196 CURVE SMOOTH",
"385 75 OFFCURVE",
"323 34 OFFCURVE",
"236 34 CURVE SMOOTH",
"130 34 OFFCURVE",
"93 103 OFFCURVE",
"93 191 CURVE",
"59 191 OFFCURVE",
"43 171 OFFCURVE",
"43 133 CURVE SMOOTH",
"43 75 OFFCURVE",
"94 -11 OFFCURVE",
"234 -11 CURVE SMOOTH"
);
}
);
width = 487;
},
{
layerId = "5E7C5774-385D-4E06-B68E-CBE970134A7B";
paths = (
{
closed = 1;
nodes = (
"450 -9 OFFCURVE",
"565 66 OFFCURVE",
"565 201 CURVE SMOOTH",
"565 326 OFFCURVE",
"473 373 OFFCURVE",
"391 382 CURVE",
"470 400 OFFCURVE",
"533 447 OFFCURVE",
"533 550 CURVE SMOOTH",
"533 659 OFFCURVE",
"450 726 OFFCURVE",
"320 726 CURVE SMOOTH",
"165 726 OFFCURVE",
"107 643 OFFCURVE",
"107 579 CURVE SMOOTH",
"107 546 OFFCURVE",
"129 534 OFFCURVE",
"163 534 CURVE",
"163 614 OFFCURVE",
"192 691 OFFCURVE",
"318 691 CURVE SMOOTH",
"415 691 OFFCURVE",
"468 632 OFFCURVE",
"468 548 CURVE SMOOTH",
"468 449 OFFCURVE",
"410 399 OFFCURVE",
"302 399 CURVE SMOOTH",
"54 399 LINE",
"54 364 LINE",
"302 364 LINE SMOOTH",
"425 364 OFFCURVE",
"500 307 OFFCURVE",
"500 202 CURVE SMOOTH",
"500 88 OFFCURVE",
"414 26 OFFCURVE",
"300 26 CURVE SMOOTH",
"190 26 OFFCURVE",
"120 75 OFFCURVE",
"119 191 CURVE",
"85 191 OFFCURVE",
"62 175 OFFCURVE",
"62 150 CURVE SMOOTH",
"62 49 OFFCURVE",
"150 -9 OFFCURVE",
"305 -9 CURVE SMOOTH"
);
}
);
width = 610;
},
{
layerId = "C91144B6-58F5-45F2-9CE4-7ED6CE127FD4";
paths = (
{
closed = 1;
nodes = (
"336 -11 OFFCURVE",
"415 58 OFFCURVE",
"415 196 CURVE SMOOTH",
"415 321 OFFCURVE",
"360 366 OFFCURVE",
"296 381 CURVE",
"366 409 OFFCURVE",
"393 462 OFFCURVE",
"393 563 CURVE SMOOTH",
"393 673 OFFCURVE",
"327 724 OFFCURVE",
"239 724 CURVE SMOOTH",
"109 724 OFFCURVE",
"83 635 OFFCURVE",
"83 595 CURVE SMOOTH",
"83 565 OFFCURVE",
"93 552 OFFCURVE",
"104 552 CURVE",
"104 621 OFFCURVE",
"120 699 OFFCURVE",
"239 699 CURVE SMOOTH",
"319 699 OFFCURVE",
"365 651 OFFCURVE",
"365 556 CURVE SMOOTH",
"365 457 OFFCURVE",
"323 393 OFFCURVE",
"251 393 CURVE SMOOTH",
"42 393 LINE",
"42 368 LINE",
"249 368 LINE SMOOTH",
"332 368 OFFCURVE",
"387 310 OFFCURVE",
"387 196 CURVE SMOOTH",
"387 65 OFFCURVE",
"317 14 OFFCURVE",
"223 14 CURVE SMOOTH",
"107 14 OFFCURVE",
"71 97 OFFCURVE",
"71 176 CURVE",
"53 176 OFFCURVE",
"48 161 OFFCURVE",
"48 130 CURVE SMOOTH",
"48 81 OFFCURVE",
"90 -11 OFFCURVE",
"222 -11 CURVE SMOOTH"
);
}
);
width = 459;
},
{
layerId = "464843EB-0DE3-43AD-A7A6-94A12FE2EFF4";
paths = (
{
closed = 1;
nodes = (
"389 -11 OFFCURVE",
"501 53 OFFCURVE",
"501 201 CURVE SMOOTH",
"501 326 OFFCURVE",
"410 376 OFFCURVE",
"346 384 CURVE",
"424 407 OFFCURVE",
"479 454 OFFCURVE",
"479 553 CURVE SMOOTH",
"479 668 OFFCURVE",
"398 724 OFFCURVE",
"269 724 CURVE SMOOTH",
"128 724 OFFCURVE",
"71 651 OFFCURVE",
"71 592 CURVE SMOOTH",
"71 533 OFFCURVE",
"119 519 OFFCURVE",
"172 519 CURVE",
"172 605 OFFCURVE",
"189 668 OFFCURVE",
"268 668 CURVE SMOOTH",
"326 668 OFFCURVE",
"354 628 OFFCURVE",
"354 548 CURVE SMOOTH",
"354 448 OFFCURVE",
"319 408 OFFCURVE",
"234 408 CURVE SMOOTH",
"34 408 LINE",
"34 352 LINE",
"236 352 LINE SMOOTH",
"335 352 OFFCURVE",
"372 296 OFFCURVE",
"372 196 CURVE SMOOTH",
"372 91 OFFCURVE",
"330 46 OFFCURVE",
"257 46 CURVE SMOOTH",
"168 46 OFFCURVE",
"130 114 OFFCURVE",
"130 217 CURVE",
"69 217 OFFCURVE",
"31 187 OFFCURVE",
"31 137 CURVE SMOOTH",
"31 65 OFFCURVE",
"100 -11 OFFCURVE",
"253 -11 CURVE SMOOTH"
);
}
);
width = 540;
}
);
leftKerningGroup = uni0545;
note = uni0545;
rightKerningGroup = uni0551;
unicode = 0545;
},
{
glyphname = uni0546;
lastChange = "2016-06-23 14:14:42 +0000";
layers = (
{
layerId = "84BA7A8F-8561-401A-9117-1E5C8963A832";
paths = (
{
closed = 1;
nodes = (
"381 -10 OFFCURVE",
"463 51 OFFCURVE",
"463 214 CURVE SMOOTH",
"463 415 LINE",
"435 415 LINE",
"435 210 LINE SMOOTH",
"435 76 OFFCURVE",
"369 15 OFFCURVE",
"265 15 CURVE SMOOTH",
"144 15 OFFCURVE",
"97 96 OFFCURVE",
"97 228 CURVE SMOOTH",
"97 377 OFFCURVE",
"131 497 OFFCURVE",
"196 633 CURVE",
"162 621 LINE",
"106 506 OFFCURVE",
"69 372 OFFCURVE",
"69 228 CURVE SMOOTH",
"69 78 OFFCURVE",
"128 -10 OFFCURVE",
"263 -10 CURVE SMOOTH"
);
},
{
closed = 1;
nodes = (
"90 633 OFFCURVE",
"62 661 OFFCURVE",
"62 754 CURVE",
"43 754 OFFCURVE",
"34 739 OFFCURVE",
"34 724 CURVE SMOOTH",
"34 651 OFFCURVE",
"81 608 OFFCURVE",
"181 608 CURVE",
"196 633 LINE"
);
}
);
width = 535;
},
{
layerId = "505CC2C5-1E9F-4C44-A700-7A06363E8A84";
paths = (
{
closed = 1;
nodes = (
"512 -10 OFFCURVE",
"610 74 OFFCURVE",
"610 223 CURVE SMOOTH",
"610 415 LINE",
"452 415 LINE",
"452 220 LINE SMOOTH",
"452 105 OFFCURVE",
"413 55 OFFCURVE",
"334 55 CURVE SMOOTH",
"256 55 OFFCURVE",
"218 100 OFFCURVE",
"218 227 CURVE SMOOTH",
"218 356 OFFCURVE",
"266 515 OFFCURVE",
"336 635 CURVE",
"253 610 LINE",
"139 488 OFFCURVE",
"50 359 OFFCURVE",
"50 228 CURVE SMOOTH",
"50 68 OFFCURVE",
"157 -10 OFFCURVE",
"334 -10 CURVE SMOOTH"
);
},
{
closed = 1;
nodes = (
"201 635 OFFCURVE",
"176 685 OFFCURVE",
"176 764 CURVE",
"90 764 OFFCURVE",
"36 725 OFFCURVE",
"36 672 CURVE SMOOTH",
"36 603 OFFCURVE",
"98 570 OFFCURVE",
"272 570 CURVE",
"336 635 LINE"
);
}
);
width = 670;
},
{
layerId = "4BFBD32C-75C4-41CA-8E17-65E778BAAADA";
paths = (
{
closed = 1;
nodes = (
"545 -10 OFFCURVE",
"647 80 OFFCURVE",
"647 225 CURVE SMOOTH",
"647 415 LINE",
"453 415 LINE",
"453 223 LINE SMOOTH",
"453 113 OFFCURVE",
"421 66 OFFCURVE",
"349 66 CURVE SMOOTH",
"283 66 OFFCURVE",
"248 101 OFFCURVE",
"248 227 CURVE SMOOTH",
"248 350 OFFCURVE",
"300 520 OFFCURVE",
"371 636 CURVE",
"274 607 LINE",
"144 483 OFFCURVE",
"41 355 OFFCURVE",
"41 228 CURVE SMOOTH",
"41 65 OFFCURVE",
"161 -10 OFFCURVE",
"350 -10 CURVE SMOOTH"
);
},
{
closed = 1;
nodes = (
"228 636 OFFCURVE",
"204 692 OFFCURVE",
"204 767 CURVE",
"99 767 OFFCURVE",
"33 721 OFFCURVE",
"33 658 CURVE SMOOTH",
"33 590 OFFCURVE",
"99 560 OFFCURVE",
"294 560 CURVE",
"371 636 LINE"
);
}
);
width = 707;
},
{
layerId = "F2BD3FAB-8356-49CF-A55B-3E49BBA3F552";
paths = (
{
closed = 1;
nodes = (
"460 -10 OFFCURVE",
"551 64 OFFCURVE",
"551 219 CURVE SMOOTH",
"551 415 LINE",
"450 415 LINE",
"450 216 LINE SMOOTH",
"450 92 OFFCURVE",
"399 37 OFFCURVE",
"309 37 CURVE SMOOTH",
"213 37 OFFCURVE",
"171 98 OFFCURVE",
"171 227 CURVE SMOOTH",
"171 365 OFFCURVE",
"212 507 OFFCURVE",
"280 634 CURVE",
"219 615 LINE",
"130 496 OFFCURVE",
"64 365 OFFCURVE",
"64 228 CURVE SMOOTH",
"64 72 OFFCURVE",
"150 -10 OFFCURVE",
"309 -10 CURVE SMOOTH"
);
},
{
closed = 1;
nodes = (
"158 634 OFFCURVE",
"132 674 OFFCURVE",
"132 760 CURVE",
"75 760 OFFCURVE",
"41 731 OFFCURVE",
"41 695 CURVE SMOOTH",
"41 624 OFFCURVE",
"96 587 OFFCURVE",
"238 587 CURVE",
"280 634 LINE"
);
}
);
width = 617;
},
{
layerId = "75A83886-EED5-4C31-9670-660514D8A4F6";
paths = (
{
closed = 1;
nodes = (
"477 -10 OFFCURVE",
"572 54 OFFCURVE",
"572 218 CURVE SMOOTH",
"572 414 LINE",
"405 414 LINE",
"405 210 LINE SMOOTH",
"405 99 OFFCURVE",
"379 64 OFFCURVE",
"315 64 CURVE SMOOTH",
"264 64 OFFCURVE",
"231 111 OFFCURVE",
"231 216 CURVE SMOOTH",
"231 354 OFFCURVE",
"266 493 OFFCURVE",
"324 631 CURVE",
"226 611 LINE",
"111 461 OFFCURVE",
"55 351 OFFCURVE",
"55 214 CURVE SMOOTH",
"55 80 OFFCURVE",
"134 -10 OFFCURVE",
"317 -10 CURVE SMOOTH"
);
},
{
closed = 1;
nodes = (
"198 631 OFFCURVE",
"177 677 OFFCURVE",
"177 765 CURVE",
"87 765 OFFCURVE",
"30 724 OFFCURVE",
"30 668 CURVE SMOOTH",
"30 599 OFFCURVE",
"87 567 OFFCURVE",
"257 567 CURVE",
"324 631 LINE"
);
}
);
width = 626;
},
{
layerId = "E7C4F5EE-4982-479C-BF20-1C8706EFFC5D";
paths = (
{
closed = 1;
nodes = (
"380 -10 OFFCURVE",
"456 55 OFFCURVE",
"456 215 CURVE SMOOTH",
"456 414 LINE",
"392 414 LINE",
"392 210 LINE SMOOTH",
"392 80 OFFCURVE",
"343 37 OFFCURVE",
"261 37 CURVE SMOOTH",
"165 37 OFFCURVE",
"127 102 OFFCURVE",
"127 206 CURVE SMOOTH",
"127 349 OFFCURVE",
"157 490 OFFCURVE",
"208 632 CURVE",
"159 619 LINE",
"96 476 OFFCURVE",
"61 344 OFFCURVE",
"61 204 CURVE SMOOTH",
"61 76 OFFCURVE",
"124 -10 OFFCURVE",
"262 -10 CURVE SMOOTH"
);
},
{
closed = 1;
nodes = (
"113 632 OFFCURVE",
"93 670 OFFCURVE",
"93 765 CURVE",
"56 765 OFFCURVE",
"34 744 OFFCURVE",
"34 715 CURVE SMOOTH",
"34 639 OFFCURVE",
"76 591 OFFCURVE",
"180 591 CURVE",
"207 632 LINE"
);
}
);
width = 516;
},
{
layerId = "5E7C5774-385D-4E06-B68E-CBE970134A7B";
paths = (
{
closed = 1;
nodes = (
"423 -10 OFFCURVE",
"510 57 OFFCURVE",
"510 216 CURVE SMOOTH",
"510 415 LINE",
"446 415 LINE",
"446 213 LINE SMOOTH",
"446 84 OFFCURVE",
"387 26 OFFCURVE",
"290 26 CURVE SMOOTH",
"181 26 OFFCURVE",
"137 97 OFFCURVE",
"137 228 CURVE SMOOTH",
"137 371 OFFCURVE",
"174 502 OFFCURVE",
"241 633 CURVE",
"194 618 LINE",
"121 501 OFFCURVE",
"70 369 OFFCURVE",
"70 228 CURVE SMOOTH",
"70 75 OFFCURVE",
"142 -10 OFFCURVE",
"289 -10 CURVE SMOOTH"
);
},
{
closed = 1;
nodes = (
"127 633 OFFCURVE",
"100 667 OFFCURVE",
"100 757 CURVE",
"62 757 OFFCURVE",
"41 735 OFFCURVE",
"41 710 CURVE SMOOTH",
"41 638 OFFCURVE",
"92 598 OFFCURVE",
"213 598 CURVE",
"241 633 LINE"
);
}
);
width = 576;
},
{
layerId = "C91144B6-58F5-45F2-9CE4-7ED6CE127FD4";
paths = (
{
closed = 1;
nodes = (
"346 -10 OFFCURVE",
"416 55 OFFCURVE",
"416 214 CURVE SMOOTH",
"416 414 LINE",
"388 414 LINE",
"388 210 LINE SMOOTH",
"388 74 OFFCURVE",
"330 15 OFFCURVE",
"242 15 CURVE SMOOTH",
"130 15 OFFCURVE",
"91 99 OFFCURVE",
"91 202 CURVE SMOOTH",
"91 347 OFFCURVE",
"119 489 OFFCURVE",
"167 633 CURVE",
"135 622 LINE",
"90 481 OFFCURVE",
"63 341 OFFCURVE",
"63 200 CURVE SMOOTH",
"63 74 OFFCURVE",
"120 -10 OFFCURVE",
"243 -10 CURVE SMOOTH"
);
},
{
closed = 1;
nodes = (
"84 633 OFFCURVE",
"64 667 OFFCURVE",
"64 765 CURVE",
"46 765 OFFCURVE",
"36 751 OFFCURVE",
"36 731 CURVE SMOOTH",
"36 653 OFFCURVE",
"73 608 OFFCURVE",
"154 608 CURVE",
"167 633 LINE"
);
}
);
width = 478;
},
{
layerId = "464843EB-0DE3-43AD-A7A6-94A12FE2EFF4";
paths = (
{
closed = 1;
nodes = (
"436 -10 OFFCURVE",
"523 54 OFFCURVE",
"523 217 CURVE SMOOTH",
"523 414 LINE",
"400 414 LINE",
"400 210 LINE SMOOTH",
"400 91 OFFCURVE",
"364 53 OFFCURVE",
"292 53 CURVE SMOOTH",
"222 53 OFFCURVE",
"187 107 OFFCURVE",
"187 212 CURVE SMOOTH",
"187 352 OFFCURVE",
"220 492 OFFCURVE",
"275 631 CURVE",
"198 614 LINE",
"105 467 OFFCURVE",
"58 348 OFFCURVE",
"58 210 CURVE SMOOTH",
"58 78 OFFCURVE",
"130 -10 OFFCURVE",
"294 -10 CURVE SMOOTH"
);
},
{
closed = 1;
nodes = (
"162 631 OFFCURVE",
"142 674 OFFCURVE",
"142 765 CURVE",
"74 765 OFFCURVE",
"32 732 OFFCURVE",
"32 688 CURVE SMOOTH",
"32 616 OFFCURVE",
"82 577 OFFCURVE",
"225 577 CURVE",
"275 631 LINE"
);
}
);
width = 580;
}
);
leftKerningGroup = uni0546;
note = uni0546;
unicode = 0546;
},
{
glyphname = uni0547;
lastChange = "2016-06-23 14:14:42 +0000";
layers = (
{
layerId = "84BA7A8F-8561-401A-9117-1E5C8963A832";
paths = (
{
closed = 1;
nodes = (
"75 693 OFFCURVE",
"118 700 OFFCURVE",
"146 700 CURVE SMOOTH",
"276 700 OFFCURVE",
"308 597 OFFCURVE",
"443 597 CURVE SMOOTH",
"533 597 OFFCURVE",
"568 643 OFFCURVE",
"568 714 CURVE",
"540 714 LINE",
"540 658 OFFCURVE",
"516 622 OFFCURVE",
"442 622 CURVE SMOOTH",
"325 622 OFFCURVE",
"288 725 OFFCURVE",
"146 725 CURVE SMOOTH",
"109 725 OFFCURVE",
"70 716 OFFCURVE",
"29 698 CURVE",
"30 673 LINE"
);
},
{
closed = 1;
nodes = (
"322 639 LINE",
"117 501 OFFCURVE",
"51 346 OFFCURVE",
"51 235 CURVE SMOOTH",
"51 91 OFFCURVE",
"123 -11 OFFCURVE",
"273 -11 CURVE SMOOTH",
"406 -11 OFFCURVE",
"498 65 OFFCURVE",
"498 213 CURVE SMOOTH",
"498 295 LINE",
"470 295 LINE",
"470 209 LINE SMOOTH",
"470 80 OFFCURVE",
"394 14 OFFCURVE",
"275 14 CURVE SMOOTH",
"139 14 OFFCURVE",
"79 105 OFFCURVE",
"79 233 CURVE SMOOTH",
"79 347 OFFCURVE",
"145 491 OFFCURVE",
"350 629 CURVE"
);
}
);
width = 584;
},
{
layerId = "505CC2C5-1E9F-4C44-A700-7A06363E8A84";
paths = (
{
closed = 1;
nodes = (
"61 641 OFFCURVE",
"99 651 OFFCURVE",
"138 651 CURVE SMOOTH",
"343 651 OFFCURVE",
"346 511 OFFCURVE",
"506 511 CURVE SMOOTH",
"596 511 OFFCURVE",
"652 595 OFFCURVE",
"652 714 CURVE",
"582 714 LINE",
"582 671 OFFCURVE",
"547 643 OFFCURVE",
"494 643 CURVE SMOOTH",
"382 643 OFFCURVE",
"317 719 OFFCURVE",
"157 719 CURVE SMOOTH",
"123 719 OFFCURVE",
"65 709 OFFCURVE",
"34 699 CURVE",
"34 634 LINE"
);
},
{
closed = 1;
nodes = (
"315 620 LINE",
"167 508 OFFCURVE",
"48 394 OFFCURVE",
"48 228 CURVE SMOOTH",
"48 78 OFFCURVE",
"161 -10 OFFCURVE",
"332 -10 CURVE SMOOTH",
"506 -10 OFFCURVE",
"604 74 OFFCURVE",
"604 201 CURVE SMOOTH",
"604 295 LINE",
"446 295 LINE",
"446 198 LINE SMOOTH",
"446 105 OFFCURVE",
"405 55 OFFCURVE",
"331 55 CURVE SMOOTH",
"257 55 OFFCURVE",
"216 100 OFFCURVE",
"216 227 CURVE SMOOTH",
"216 386 OFFCURVE",
"288 503 OFFCURVE",
"398 603 CURVE"
);
}
);
width = 688;
},
{
layerId = "4BFBD32C-75C4-41CA-8E17-65E778BAAADA";
paths = (
{
closed = 1;
nodes = (
"53 627 OFFCURVE",
"90 637 OFFCURVE",
"132 637 CURVE SMOOTH",
"357 637 OFFCURVE",
"352 487 OFFCURVE",
"519 487 CURVE SMOOTH",
"609 487 OFFCURVE",
"671 582 OFFCURVE",
"671 714 CURVE",
"590 714 LINE",
"590 675 OFFCURVE",
"551 649 OFFCURVE",
"504 649 CURVE SMOOTH",
"394 649 OFFCURVE",
"321 717 OFFCURVE",
"156 717 CURVE SMOOTH",
"123 717 OFFCURVE",
"60 707 OFFCURVE",
"31 699 CURVE",
"31 623 LINE"
);
},
{
closed = 1;
nodes = (
"319 615 LINE",
"134 485 OFFCURVE",
"43 394 OFFCURVE",
"43 226 CURVE SMOOTH",
"43 74 OFFCURVE",
"167 -10 OFFCURVE",
"344 -10 CURVE SMOOTH",
"530 -10 OFFCURVE",
"629 76 OFFCURVE",
"629 198 CURVE SMOOTH",
"629 295 LINE",
"435 295 LINE",
"435 195 LINE SMOOTH",
"435 112 OFFCURVE",
"404 66 OFFCURVE",
"342 66 CURVE SMOOTH",
"286 66 OFFCURVE",
"250 99 OFFCURVE",
"250 225 CURVE SMOOTH",
"250 397 OFFCURVE",
"308 504 OFFCURVE",
"407 596 CURVE"
);
}
);
width = 708;
},
{
layerId = "F2BD3FAB-8356-49CF-A55B-3E49BBA3F552";
paths = (
{
closed = 1;
nodes = (
"73 664 OFFCURVE",
"114 672 OFFCURVE",
"148 672 CURVE SMOOTH",
"320 672 OFFCURVE",
"336 549 OFFCURVE",
"485 549 CURVE SMOOTH",
"575 549 OFFCURVE",
"621 616 OFFCURVE",
"621 714 CURVE",
"570 714 LINE",
"570 665 OFFCURVE",
"540 634 OFFCURVE",
"477 634 CURVE SMOOTH",
"363 634 OFFCURVE",
"310 722 OFFCURVE",
"158 722 CURVE SMOOTH",
"123 722 OFFCURVE",
"73 712 OFFCURVE",
"38 699 CURVE",
"38 651 LINE"
);
},
{
closed = 1;
nodes = (
"325 628 LINE",
"152 505 OFFCURVE",
"56 373 OFFCURVE",
"56 231 CURVE SMOOTH",
"56 84 OFFCURVE",
"151 -10 OFFCURVE",
"313 -10 CURVE SMOOTH",
"469 -10 OFFCURVE",
"564 70 OFFCURVE",
"564 206 CURVE SMOOTH",
"564 295 LINE",
"463 295 LINE",
"463 203 LINE SMOOTH",
"463 94 OFFCURVE",
"407 37 OFFCURVE",
"313 37 CURVE SMOOTH",
"212 37 OFFCURVE",
"163 102 OFFCURVE",
"163 230 CURVE SMOOTH",
"163 369 OFFCURVE",
"232 498 OFFCURVE",
"384 614 CURVE"
);
}
);
width = 656;
},
{
layerId = "75A83886-EED5-4C31-9670-660514D8A4F6";
paths = (
{
closed = 1;
nodes = (
"48 637 OFFCURVE",
"80 646 OFFCURVE",
"117 646 CURVE SMOOTH",
"314 646 OFFCURVE",
"301 504 OFFCURVE",
"447 504 CURVE SMOOTH",
"527 504 OFFCURVE",
"581 591 OFFCURVE",
"581 714 CURVE",
"512 714 LINE",
"512 672 OFFCURVE",
"476 645 OFFCURVE",
"434 645 CURVE SMOOTH",
"337 645 OFFCURVE",
"283 719 OFFCURVE",
"138 719 CURVE SMOOTH",
"109 719 OFFCURVE",
"54 709 OFFCURVE",
"28 699 CURVE",
"28 631 LINE"
);
},
{
closed = 1;
nodes = (
"275 617 LINE",
"134 492 OFFCURVE",
"45 351 OFFCURVE",
"45 214 CURVE SMOOTH",
"45 80 OFFCURVE",
"124 -10 OFFCURVE",
"307 -10 CURVE SMOOTH",
"467 -10 OFFCURVE",
"562 54 OFFCURVE",
"562 218 CURVE SMOOTH",
"562 296 LINE",
"395 296 LINE",
"395 210 LINE SMOOTH",
"395 99 OFFCURVE",
"369 64 OFFCURVE",
"305 64 CURVE SMOOTH",
"254 64 OFFCURVE",
"221 111 OFFCURVE",
"221 216 CURVE SMOOTH",
"221 354 OFFCURVE",
"268 471 OFFCURVE",
"356 596 CURVE"
);
}
);
width = 613;
},
{
layerId = "E7C4F5EE-4982-479C-BF20-1C8706EFFC5D";
paths = (
{
closed = 1;
nodes = (
"59 672 OFFCURVE",
"92 681 OFFCURVE",
"118 681 CURVE SMOOTH",
"242 681 OFFCURVE",
"260 573 OFFCURVE",
"375 573 CURVE SMOOTH",
"447 573 OFFCURVE",
"483 630 OFFCURVE",
"483 714 CURVE",
"445 714 LINE",
"445 662 OFFCURVE",
"424 628 OFFCURVE",
"371 628 CURVE SMOOTH",
"282 628 OFFCURVE",
"243 723 OFFCURVE",
"124 723 CURVE SMOOTH",
"96 723 OFFCURVE",
"60 714 OFFCURVE",
"30 698 CURVE",
"30 656 LINE"
);
},
{
closed = 1;
nodes = (
"258 633 LINE",
"134 505 OFFCURVE",
"52 351 OFFCURVE",
"52 204 CURVE SMOOTH",
"52 76 OFFCURVE",
"115 -10 OFFCURVE",
"253 -10 CURVE SMOOTH",
"371 -10 OFFCURVE",
"447 55 OFFCURVE",
"447 215 CURVE SMOOTH",
"447 295 LINE",
"383 295 LINE",
"383 210 LINE SMOOTH",
"383 80 OFFCURVE",
"334 37 OFFCURVE",
"252 37 CURVE SMOOTH",
"156 37 OFFCURVE",
"118 102 OFFCURVE",
"118 206 CURVE SMOOTH",
"118 356 OFFCURVE",
"196 500 OFFCURVE",
"297 620 CURVE"
);
}
);
width = 499;
},
{
layerId = "5E7C5774-385D-4E06-B68E-CBE970134A7B";
paths = (
{
closed = 1;
nodes = (
"79 679 OFFCURVE",
"121 686 OFFCURVE",
"152 686 CURVE SMOOTH",
"302 686 OFFCURVE",
"326 573 OFFCURVE",
"468 573 CURVE SMOOTH",
"558 573 OFFCURVE",
"599 630 OFFCURVE",
"599 714 CURVE",
"559 714 LINE",
"559 661 OFFCURVE",
"532 628 OFFCURVE",
"464 628 CURVE SMOOTH",
"348 628 OFFCURVE",
"303 724 OFFCURVE",
"156 724 CURVE SMOOTH",
"120 724 OFFCURVE",
"76 714 OFFCURVE",
"38 698 CURVE",
"39 662 LINE"
);
},
{
closed = 1;
nodes = (
"328 634 LINE",
"139 503 OFFCURVE",
"58 359 OFFCURVE",
"58 233 CURVE SMOOTH",
"58 88 OFFCURVE",
"141 -11 OFFCURVE",
"297 -11 CURVE SMOOTH",
"442 -11 OFFCURVE",
"535 67 OFFCURVE",
"535 210 CURVE SMOOTH",
"535 295 LINE",
"471 295 LINE",
"471 206 LINE SMOOTH",
"471 87 OFFCURVE",
"405 25 OFFCURVE",
"298 25 CURVE SMOOTH",
"180 25 OFFCURVE",
"125 104 OFFCURVE",
"125 232 CURVE SMOOTH",
"125 358 OFFCURVE",
"192 494 OFFCURVE",
"371 622 CURVE"
);
}
);
width = 634;
},
{
layerId = "C91144B6-58F5-45F2-9CE4-7ED6CE127FD4";
paths = (
{
closed = 1;
nodes = (
"64 691 OFFCURVE",
"97 700 OFFCURVE",
"119 700 CURVE SMOOTH",
"218 700 OFFCURVE",
"246 597 OFFCURVE",
"351 597 CURVE SMOOTH",
"420 597 OFFCURVE",
"449 643 OFFCURVE",
"449 714 CURVE",
"422 714 LINE",
"422 658 OFFCURVE",
"406 622 OFFCURVE",
"350 622 CURVE SMOOTH",
"263 622 OFFCURVE",
"230 725 OFFCURVE",
"120 725 CURVE SMOOTH",
"92 725 OFFCURVE",
"61 716 OFFCURVE",
"30 698 CURVE",
"31 671 LINE"
);
},
{
closed = 1;
nodes = (
"252 639 LINE",
"133 509 OFFCURVE",
"54 351 OFFCURVE",
"54 200 CURVE SMOOTH",
"54 74 OFFCURVE",
"111 -10 OFFCURVE",
"234 -10 CURVE SMOOTH",
"337 -10 OFFCURVE",
"407 55 OFFCURVE",
"407 214 CURVE SMOOTH",
"407 294 LINE",
"379 294 LINE",
"379 210 LINE SMOOTH",
"379 74 OFFCURVE",
"321 15 OFFCURVE",
"233 15 CURVE SMOOTH",
"121 15 OFFCURVE",
"82 99 OFFCURVE",
"82 202 CURVE SMOOTH",
"82 357 OFFCURVE",
"170 510 OFFCURVE",
"276 628 CURVE"
);
}
);
width = 459;
},
{
layerId = "464843EB-0DE3-43AD-A7A6-94A12FE2EFF4";
paths = (
{
closed = 1;
nodes = (
"53 652 OFFCURVE",
"85 661 OFFCURVE",
"117 661 CURVE SMOOTH",
"284 661 OFFCURVE",
"284 533 OFFCURVE",
"417 533 CURVE SMOOTH",
"493 533 OFFCURVE",
"540 607 OFFCURVE",
"540 714 CURVE",
"484 714 LINE",
"484 668 OFFCURVE",
"454 638 OFFCURVE",
"408 638 CURVE SMOOTH",
"314 638 OFFCURVE",
"266 721 OFFCURVE",
"132 721 CURVE SMOOTH",
"104 721 OFFCURVE",
"57 711 OFFCURVE",
"29 699 CURVE",
"29 642 LINE"
);
},
{
closed = 1;
nodes = (
"268 624 LINE",
"134 497 OFFCURVE",
"48 351 OFFCURVE",
"48 210 CURVE SMOOTH",
"48 78 OFFCURVE",
"120 -10 OFFCURVE",
"284 -10 CURVE SMOOTH",
"427 -10 OFFCURVE",
"514 54 OFFCURVE",
"514 217 CURVE SMOOTH",
"514 296 LINE",
"390 296 LINE",
"390 210 LINE SMOOTH",
"390 91 OFFCURVE",
"354 53 OFFCURVE",
"283 53 CURVE SMOOTH",
"213 53 OFFCURVE",
"178 107 OFFCURVE",
"178 212 CURVE SMOOTH",
"178 355 OFFCURVE",
"238 483 OFFCURVE",
"331 606 CURVE"
);
}
);
width = 565;
}
);
leftKerningGroup = uni0547;
note = uni0547;
unicode = 0547;
},
{
glyphname = uni0548;
lastChange = "2016-06-23 14:14:42 +0000";
layers = (
{
layerId = "84BA7A8F-8561-401A-9117-1E5C8963A832";
paths = (
{
closed = 1;
nodes = (
"166 20 LINE",
"116 20 OFFCURVE",
"110 31 OFFCURVE",
"110 108 CURVE SMOOTH",
"110 495 LINE SMOOTH",
"110 608 OFFCURVE",
"172 699 OFFCURVE",
"313 699 CURVE SMOOTH",
"437 699 OFFCURVE",
"513 638 OFFCURVE",
"513 504 CURVE SMOOTH",
"513 0 LINE",
"597 0 LINE",
"597 20 LINE",
"547 20 OFFCURVE",
"541 31 OFFCURVE",
"541 108 CURVE SMOOTH",
"541 500 LINE SMOOTH",
"541 663 OFFCURVE",
"449 724 OFFCURVE",
"311 724 CURVE SMOOTH",
"156 724 OFFCURVE",
"82 626 OFFCURVE",
"82 496 CURVE SMOOTH",
"82 0 LINE",
"166 0 LINE"
);
}
);
width = 631;
},
{
layerId = "505CC2C5-1E9F-4C44-A700-7A06363E8A84";
paths = (
{
closed = 1;
nodes = (
"303 51 LINE",
"264 51 OFFCURVE",
"258 61 OFFCURVE",
"258 114 CURVE SMOOTH",
"258 516 LINE SMOOTH",
"258 608 OFFCURVE",
"302 659 OFFCURVE",
"380 659 CURVE SMOOTH",
"459 659 OFFCURVE",
"503 609 OFFCURVE",
"503 516 CURVE SMOOTH",
"503 0 LINE",
"707 0 LINE",
"707 51 LINE",
"668 51 OFFCURVE",
"661 61 OFFCURVE",
"661 114 CURVE SMOOTH",
"661 491 LINE SMOOTH",
"661 640 OFFCURVE",
"558 724 OFFCURVE",
"380 724 CURVE SMOOTH",
"203 724 OFFCURVE",
"100 641 OFFCURVE",
"100 491 CURVE SMOOTH",
"100 0 LINE",
"303 0 LINE"
);
}
);
width = 761;
},
{
layerId = "4BFBD32C-75C4-41CA-8E17-65E778BAAADA";
paths = (
{
closed = 1;
nodes = (
"335 60 LINE",
"299 60 OFFCURVE",
"293 69 OFFCURVE",
"293 116 CURVE SMOOTH",
"293 522 LINE SMOOTH",
"293 608 OFFCURVE",
"332 648 OFFCURVE",
"393 648 CURVE SMOOTH",
"459 648 OFFCURVE",
"494 601 OFFCURVE",
"494 519 CURVE SMOOTH",
"494 0 LINE",
"731 0 LINE",
"731 60 LINE",
"696 60 OFFCURVE",
"688 69 OFFCURVE",
"688 116 CURVE SMOOTH",
"688 489 LINE SMOOTH",
"688 634 OFFCURVE",
"582 724 OFFCURVE",
"393 724 CURVE SMOOTH",
"210 724 OFFCURVE",
"99 645 OFFCURVE",
"99 490 CURVE SMOOTH",
"99 0 LINE",
"335 0 LINE"
);
}
);
width = 788;
},
{
layerId = "F2BD3FAB-8356-49CF-A55B-3E49BBA3F552";
paths = (
{
closed = 1;
nodes = (
"252 37 LINE",
"208 37 OFFCURVE",
"202 48 OFFCURVE",
"202 111 CURVE SMOOTH",
"202 507 LINE SMOOTH",
"202 608 OFFCURVE",
"254 677 OFFCURVE",
"360 677 CURVE SMOOTH",
"458 677 OFFCURVE",
"516 622 OFFCURVE",
"516 511 CURVE SMOOTH",
"516 0 LINE",
"668 0 LINE",
"668 37 LINE",
"624 37 OFFCURVE",
"617 48 OFFCURVE",
"617 111 CURVE SMOOTH",
"617 495 LINE SMOOTH",
"617 650 OFFCURVE",
"519 724 OFFCURVE",
"359 724 CURVE SMOOTH",
"191 724 OFFCURVE",
"101 634 OFFCURVE",
"101 493 CURVE SMOOTH",
"101 0 LINE",
"252 0 LINE"
);
}
);
width = 718;
},
{
layerId = "75A83886-EED5-4C31-9670-660514D8A4F6";
paths = (
{
closed = 1;
nodes = (
"299 56 LINE",
"269 56 OFFCURVE",
"245 63 OFFCURVE",
"245 115 CURVE SMOOTH",
"245 498 LINE SMOOTH",
"245 603 OFFCURVE",
"278 650 OFFCURVE",
"329 650 CURVE SMOOTH",
"393 650 OFFCURVE",
"419 615 OFFCURVE",
"419 504 CURVE SMOOTH",
"419 0 LINE",
"640 0 LINE",
"640 56 LINE",
"600 56 OFFCURVE",
"586 61 OFFCURVE",
"586 115 CURVE SMOOTH",
"586 496 LINE SMOOTH",
"586 660 OFFCURVE",
"487 724 OFFCURVE",
"327 724 CURVE SMOOTH",
"144 724 OFFCURVE",
"78 634 OFFCURVE",
"78 500 CURVE SMOOTH",
"78 0 LINE",
"299 0 LINE"
);
}
);
width = 666;
},
{
layerId = "E7C4F5EE-4982-479C-BF20-1C8706EFFC5D";
paths = (
{
closed = 1;
nodes = (
"201 35 LINE",
"157 35 OFFCURVE",
"146 45 OFFCURVE",
"146 115 CURVE SMOOTH",
"146 508 LINE SMOOTH",
"146 601 OFFCURVE",
"183 677 OFFCURVE",
"280 677 CURVE SMOOTH",
"361 677 OFFCURVE",
"411 634 OFFCURVE",
"411 504 CURVE SMOOTH",
"411 0 LINE",
"526 0 LINE",
"526 35 LINE",
"482 35 OFFCURVE",
"475 45 OFFCURVE",
"475 114 CURVE SMOOTH",
"475 499 LINE SMOOTH",
"475 659 OFFCURVE",
"398 724 OFFCURVE",
"280 724 CURVE SMOOTH",
"141 724 OFFCURVE",
"82 627 OFFCURVE",
"82 510 CURVE SMOOTH",
"82 0 LINE",
"201 0 LINE"
);
}
);
width = 560;
},
{
layerId = "5E7C5774-385D-4E06-B68E-CBE970134A7B";
paths = (
{
closed = 1;
nodes = (
"218 28 LINE",
"171 28 OFFCURVE",
"165 39 OFFCURVE",
"165 109 CURVE SMOOTH",
"165 501 LINE SMOOTH",
"165 608 OFFCURVE",
"222 688 OFFCURVE",
"346 688 CURVE SMOOTH",
"457 688 OFFCURVE",
"524 630 OFFCURVE",
"524 507 CURVE SMOOTH",
"524 0 LINE",
"642 0 LINE",
"642 28 LINE",
"595 28 OFFCURVE",
"588 39 OFFCURVE",
"588 109 CURVE SMOOTH",
"588 498 LINE SMOOTH",
"588 657 OFFCURVE",
"493 724 OFFCURVE",
"344 724 CURVE SMOOTH",
"183 724 OFFCURVE",
"101 630 OFFCURVE",
"101 495 CURVE SMOOTH",
"101 0 LINE",
"218 0 LINE"
);
}
);
width = 692;
},
{
layerId = "C91144B6-58F5-45F2-9CE4-7ED6CE127FD4";
paths = (
{
closed = 1;
nodes = (
"168 20 LINE",
"118 20 OFFCURVE",
"112 31 OFFCURVE",
"112 107 CURVE SMOOTH",
"112 512 LINE SMOOTH",
"112 600 OFFCURVE",
"151 699 OFFCURVE",
"263 699 CURVE SMOOTH",
"351 699 OFFCURVE",
"409 640 OFFCURVE",
"409 504 CURVE SMOOTH",
"409 0 LINE",
"487 0 LINE",
"487 20 LINE",
"441 20 OFFCURVE",
"437 31 OFFCURVE",
"437 105 CURVE SMOOTH",
"437 500 LINE SMOOTH",
"437 659 OFFCURVE",
"367 724 OFFCURVE",
"264 724 CURVE SMOOTH",
"141 724 OFFCURVE",
"84 625 OFFCURVE",
"84 514 CURVE SMOOTH",
"84 0 LINE",
"168 0 LINE"
);
}
);
width = 523;
},
{
layerId = "464843EB-0DE3-43AD-A7A6-94A12FE2EFF4";
paths = (
{
closed = 1;
nodes = (
"258 47 LINE",
"222 47 OFFCURVE",
"203 55 OFFCURVE",
"203 115 CURVE SMOOTH",
"203 502 LINE SMOOTH",
"203 602 OFFCURVE",
"238 661 OFFCURVE",
"308 661 CURVE SMOOTH",
"380 661 OFFCURVE",
"416 623 OFFCURVE",
"416 504 CURVE SMOOTH",
"416 0 LINE",
"592 0 LINE",
"592 47 LINE",
"550 47 OFFCURVE",
"539 54 OFFCURVE",
"539 115 CURVE SMOOTH",
"539 497 LINE SMOOTH",
"539 660 OFFCURVE",
"450 724 OFFCURVE",
"307 724 CURVE SMOOTH",
"143 724 OFFCURVE",
"80 631 OFFCURVE",
"80 504 CURVE SMOOTH",
"80 0 LINE",
"258 0 LINE"
);
}
);
width = 621;
}
);
leftKerningGroup = uni0548;
note = uni0548;
unicode = 0548;
},
{
glyphname = uni0549;
lastChange = "2016-06-23 14:14:42 +0000";
layers = (
{
layerId = "84BA7A8F-8561-401A-9117-1E5C8963A832";
paths = (
{
closed = 1;
nodes = (
"229 88 LINE",
"434 226 OFFCURVE",
"492 367 OFFCURVE",
"492 478 CURVE SMOOTH",
"492 622 OFFCURVE",
"420 724 OFFCURVE",
"270 724 CURVE SMOOTH",
"137 724 OFFCURVE",
"45 663 OFFCURVE",
"45 500 CURVE SMOOTH",
"45 478 LINE",
"73 478 LINE",
"73 504 LINE SMOOTH",
"73 648 OFFCURVE",
"149 699 OFFCURVE",
"268 699 CURVE SMOOTH",
"404 699 OFFCURVE",
"464 608 OFFCURVE",
"464 480 CURVE SMOOTH",
"464 366 OFFCURVE",
"406 236 OFFCURVE",
"201 98 CURVE"
);
},
{
closed = 1;
nodes = (
"483 14 LINE",
"291 26 OFFCURVE",
"164 120 OFFCURVE",
"51 255 CURVE",
"25 238 LINE",
"139 104 OFFCURVE",
"288 1 OFFCURVE",
"483 -11 CURVE"
);
}
);
width = 534;
},
{
layerId = "505CC2C5-1E9F-4C44-A700-7A06363E8A84";
paths = (
{
closed = 1;
nodes = (
"318 109 LINE",
"481 180 OFFCURVE",
"618 308 OFFCURVE",
"618 486 CURVE SMOOTH",
"618 636 OFFCURVE",
"505 724 OFFCURVE",
"328 724 CURVE SMOOTH",
"150 724 OFFCURVE",
"47 640 OFFCURVE",
"47 513 CURVE SMOOTH",
"47 479 LINE",
"205 479 LINE",
"205 516 LINE SMOOTH",
"205 609 OFFCURVE",
"249 659 OFFCURVE",
"328 659 CURVE SMOOTH",
"406 659 OFFCURVE",
"450 614 OFFCURVE",
"450 487 CURVE SMOOTH",
"450 328 OFFCURVE",
"378 201 OFFCURVE",
"268 151 CURVE"
);
},
{
closed = 1;
nodes = (
"598 60 LINE",
"435 62 OFFCURVE",
"274 177 OFFCURVE",
"201 333 CURVE",
"32 255 LINE",
"164 96 OFFCURVE",
"378 -2 OFFCURVE",
"598 -10 CURVE"
);
}
);
width = 666;
},
{
layerId = "4BFBD32C-75C4-41CA-8E17-65E778BAAADA";
paths = (
{
closed = 1;
nodes = (
"336 115 LINE",
"487 167 OFFCURVE",
"646 292 OFFCURVE",
"646 488 CURVE SMOOTH",
"646 640 OFFCURVE",
"522 724 OFFCURVE",
"338 724 CURVE SMOOTH",
"147 724 OFFCURVE",
"41 634 OFFCURVE",
"41 517 CURVE SMOOTH",
"41 479 LINE",
"235 479 LINE",
"235 519 LINE SMOOTH",
"235 598 OFFCURVE",
"270 648 OFFCURVE",
"338 648 CURVE SMOOTH",
"400 648 OFFCURVE",
"440 616 OFFCURVE",
"440 489 CURVE SMOOTH",
"440 317 OFFCURVE",
"364 191 OFFCURVE",
"280 166 CURVE"
);
},
{
closed = 1;
nodes = (
"624 73 LINE",
"469 73 OFFCURVE",
"299 193 OFFCURVE",
"237 355 CURVE",
"28 260 LINE",
"165 94 OFFCURVE",
"397 -3 OFFCURVE",
"624 -10 CURVE"
);
}
);
width = 691;
},
{
layerId = "F2BD3FAB-8356-49CF-A55B-3E49BBA3F552";
paths = (
{
closed = 1;
nodes = (
"289 100 LINE",
"470 200 OFFCURVE",
"573 334 OFFCURVE",
"573 482 CURVE SMOOTH",
"573 630 OFFCURVE",
"478 724 OFFCURVE",
"312 724 CURVE SMOOTH",
"154 724 OFFCURVE",
"56 650 OFFCURVE",
"56 507 CURVE SMOOTH",
"56 479 LINE",
"157 479 LINE",
"157 511 LINE SMOOTH",
"157 626 OFFCURVE",
"215 677 OFFCURVE",
"312 677 CURVE SMOOTH",
"415 677 OFFCURVE",
"466 611 OFFCURVE",
"466 484 CURVE SMOOTH",
"466 345 OFFCURVE",
"400 216 OFFCURVE",
"249 128 CURVE"
);
},
{
closed = 1;
nodes = (
"558 40 LINE",
"382 46 OFFCURVE",
"236 152 OFFCURVE",
"145 299 CURVE",
"39 248 LINE",
"163 100 OFFCURVE",
"349 -1 OFFCURVE",
"558 -10 CURVE"
);
}
);
width = 627;
},
{
layerId = "75A83886-EED5-4C31-9670-660514D8A4F6";
paths = (
{
closed = 1;
nodes = (
"301 113 LINE",
"479 215 OFFCURVE",
"562 363 OFFCURVE",
"562 500 CURVE SMOOTH",
"562 634 OFFCURVE",
"483 724 OFFCURVE",
"300 724 CURVE SMOOTH",
"140 724 OFFCURVE",
"45 660 OFFCURVE",
"45 496 CURVE SMOOTH",
"45 474 LINE",
"212 474 LINE",
"212 504 LINE SMOOTH",
"212 615 OFFCURVE",
"238 650 OFFCURVE",
"302 650 CURVE SMOOTH",
"353 650 OFFCURVE",
"386 603 OFFCURVE",
"386 498 CURVE SMOOTH",
"386 360 OFFCURVE",
"350 266 OFFCURVE",
"244 156 CURVE"
);
},
{
closed = 1;
nodes = (
"548 64 LINE",
"410 65 OFFCURVE",
"262 182 OFFCURVE",
"205 339 CURVE",
"26 256 LINE",
"146 96 OFFCURVE",
"349 -3 OFFCURVE",
"548 -10 CURVE"
);
}
);
width = 607;
},
{
layerId = "E7C4F5EE-4982-479C-BF20-1C8706EFFC5D";
paths = (
{
closed = 1;
nodes = (
"212 91 LINE",
"352 208 OFFCURVE",
"435 363 OFFCURVE",
"435 510 CURVE SMOOTH",
"435 638 OFFCURVE",
"373 724 OFFCURVE",
"234 724 CURVE SMOOTH",
"116 724 OFFCURVE",
"40 659 OFFCURVE",
"40 499 CURVE SMOOTH",
"40 478 LINE",
"104 478 LINE",
"104 504 LINE SMOOTH",
"104 634 OFFCURVE",
"154 677 OFFCURVE",
"235 677 CURVE SMOOTH",
"332 677 OFFCURVE",
"369 612 OFFCURVE",
"369 508 CURVE SMOOTH",
"369 358 OFFCURVE",
"291 222 OFFCURVE",
"180 111 CURVE"
);
},
{
closed = 1;
nodes = (
"425 35 LINE",
"296 42 OFFCURVE",
"168 143 OFFCURVE",
"90 283 CURVE",
"25 243 LINE",
"122 102 OFFCURVE",
"261 1 OFFCURVE",
"425 -10 CURVE"
);
}
);
width = 477;
},
{
layerId = "5E7C5774-385D-4E06-B68E-CBE970134A7B";
paths = (
{
closed = 1;
nodes = (
"266 94 LINE",
"459 213 OFFCURVE",
"540 351 OFFCURVE",
"540 480 CURVE SMOOTH",
"540 626 OFFCURVE",
"456 724 OFFCURVE",
"298 724 CURVE SMOOTH",
"153 724 OFFCURVE",
"58 657 OFFCURVE",
"58 503 CURVE SMOOTH",
"58 478 LINE",
"122 478 LINE",
"122 507 LINE SMOOTH",
"122 637 OFFCURVE",
"189 688 OFFCURVE",
"297 688 CURVE SMOOTH",
"417 688 OFFCURVE",
"473 609 OFFCURVE",
"473 482 CURVE SMOOTH",
"473 356 OFFCURVE",
"411 226 OFFCURVE",
"232 113 CURVE"
);
},
{
closed = 1;
nodes = (
"527 27 LINE",
"343 36 OFFCURVE",
"207 136 OFFCURVE",
"104 277 CURVE",
"39 243 LINE",
"158 102 OFFCURVE",
"325 0 OFFCURVE",
"527 -11 CURVE"
);
}
);
width = 593;
},
{
layerId = "C91144B6-58F5-45F2-9CE4-7ED6CE127FD4";
paths = (
{
closed = 1;
nodes = (
"181 83 LINE",
"307 206 OFFCURVE",
"391 363 OFFCURVE",
"391 514 CURVE SMOOTH",
"391 640 OFFCURVE",
"334 724 OFFCURVE",
"211 724 CURVE SMOOTH",
"108 724 OFFCURVE",
"38 659 OFFCURVE",
"38 500 CURVE SMOOTH",
"38 480 LINE",
"66 480 LINE",
"66 504 LINE SMOOTH",
"66 640 OFFCURVE",
"124 699 OFFCURVE",
"212 699 CURVE SMOOTH",
"324 699 OFFCURVE",
"363 615 OFFCURVE",
"363 512 CURVE SMOOTH",
"363 357 OFFCURVE",
"270 207 OFFCURVE",
"158 95 CURVE"
);
},
{
closed = 1;
nodes = (
"382 15 LINE",
"255 24 OFFCURVE",
"134 118 OFFCURVE",
"49 253 CURVE",
"24 238 LINE",
"113 104 OFFCURVE",
"230 2 OFFCURVE",
"382 -10 CURVE"
);
}
);
width = 431;
},
{
layerId = "464843EB-0DE3-43AD-A7A6-94A12FE2EFF4";
paths = (
{
closed = 1;
nodes = (
"264 104 LINE",
"426 212 OFFCURVE",
"509 363 OFFCURVE",
"509 504 CURVE SMOOTH",
"509 636 OFFCURVE",
"437 724 OFFCURVE",
"272 724 CURVE SMOOTH",
"130 724 OFFCURVE",
"43 660 OFFCURVE",
"43 497 CURVE SMOOTH",
"43 476 LINE",
"167 476 LINE",
"167 504 LINE SMOOTH",
"167 623 OFFCURVE",
"203 661 OFFCURVE",
"274 661 CURVE SMOOTH",
"344 661 OFFCURVE",
"379 607 OFFCURVE",
"379 502 CURVE SMOOTH",
"379 359 OFFCURVE",
"325 248 OFFCURVE",
"217 137 CURVE"
);
},
{
closed = 1;
nodes = (
"496 52 LINE",
"362 55 OFFCURVE",
"223 166 OFFCURVE",
"157 315 CURVE",
"26 251 LINE",
"136 99 OFFCURVE",
"312 -1 OFFCURVE",
"496 -10 CURVE"
);
}
);
width = 552;
}
);
leftKerningGroup = uni0549;
note = uni0549;
unicode = 0549;
},
{
glyphname = uni054A;
lastChange = "2016-06-23 14:14:42 +0000";
layers = (
{
layerId = "84BA7A8F-8561-401A-9117-1E5C8963A832";
paths = (
{
closed = 1;
nodes = (
"529 495 LINE SMOOTH",
"529 663 OFFCURVE",
"427 724 OFFCURVE",
"289 724 CURVE SMOOTH",
"134 724 OFFCURVE",
"51 626 OFFCURVE",
"51 496 CURVE SMOOTH",
"51 320 LINE",
"79 320 LINE",
"79 495 LINE SMOOTH",
"79 608 OFFCURVE",
"150 699 OFFCURVE",
"291 699 CURVE SMOOTH",
"415 699 OFFCURVE",
"501 638 OFFCURVE",
"501 496 CURVE SMOOTH",
"501 0 LINE",
"585 0 LINE",
"585 20 LINE",
"535 20 OFFCURVE",
"529 31 OFFCURVE",
"529 108 CURVE SMOOTH"
);
},
{
closed = 1;
nodes = (
"276 178 LINE",
"304 178 LINE",
"304 705 LINE",
"276 705 LINE"
);
}
);
width = 618;
},
{
layerId = "505CC2C5-1E9F-4C44-A700-7A06363E8A84";
paths = (
{
closed = 1;
nodes = (
"802 491 LINE SMOOTH",
"802 640 OFFCURVE",
"666 724 OFFCURVE",
"430 724 CURVE SMOOTH",
"196 724 OFFCURVE",
"60 641 OFFCURVE",
"60 491 CURVE SMOOTH",
"60 324 LINE",
"218 324 LINE",
"218 516 LINE SMOOTH",
"218 618 OFFCURVE",
"294 659 OFFCURVE",
"430 659 CURVE SMOOTH",
"567 659 OFFCURVE",
"644 619 OFFCURVE",
"644 516 CURVE SMOOTH",
"644 0 LINE",
"848 0 LINE",
"848 51 LINE",
"809 51 OFFCURVE",
"802 61 OFFCURVE",
"802 114 CURVE SMOOTH"
);
},
{
closed = 1;
nodes = (
"352 162 LINE",
"510 162 LINE",
"510 670 LINE",
"352 670 LINE"
);
}
);
width = 902;
},
{
layerId = "4BFBD32C-75C4-41CA-8E17-65E778BAAADA";
paths = (
{
closed = 1;
nodes = (
"868 490 LINE SMOOTH",
"868 634 OFFCURVE",
"723 724 OFFCURVE",
"460 724 CURVE SMOOTH",
"204 724 OFFCURVE",
"53 645 OFFCURVE",
"53 490 CURVE SMOOTH",
"53 325 LINE",
"247 325 LINE",
"247 522 LINE SMOOTH",
"247 608 OFFCURVE",
"304 648 OFFCURVE",
"459 648 CURVE SMOOTH",
"620 648 OFFCURVE",
"674 601 OFFCURVE",
"674 522 CURVE SMOOTH",
"674 0 LINE",
"911 0 LINE",
"911 60 LINE",
"875 60 OFFCURVE",
"868 69 OFFCURVE",
"868 116 CURVE SMOOTH"
);
},
{
closed = 1;
nodes = (
"364 158 LINE",
"558 158 LINE",
"558 660 LINE",
"364 660 LINE"
);
}
);
width = 968;
},
{
layerId = "F2BD3FAB-8356-49CF-A55B-3E49BBA3F552";
paths = (
{
closed = 1;
nodes = (
"697 493 LINE SMOOTH",
"697 656 OFFCURVE",
"576 724 OFFCURVE",
"383 724 CURVE SMOOTH",
"184 724 OFFCURVE",
"71 634 OFFCURVE",
"71 493 CURVE SMOOTH",
"71 322 LINE",
"172 322 LINE",
"172 507 LINE SMOOTH",
"172 618 OFFCURVE",
"236 677 OFFCURVE",
"384 677 CURVE SMOOTH",
"525 677 OFFCURVE",
"596 622 OFFCURVE",
"596 507 CURVE SMOOTH",
"596 0 LINE",
"748 0 LINE",
"748 37 LINE",
"704 37 OFFCURVE",
"697 48 OFFCURVE",
"697 111 CURVE SMOOTH"
);
},
{
closed = 1;
nodes = (
"333 169 LINE",
"434 169 LINE",
"434 685 LINE",
"333 685 LINE"
);
}
);
width = 797;
},
{
layerId = "75A83886-EED5-4C31-9670-660514D8A4F6";
paths = (
{
closed = 1;
nodes = (
"712 496 LINE SMOOTH",
"712 660 OFFCURVE",
"580 724 OFFCURVE",
"374 724 CURVE SMOOTH",
"137 724 OFFCURVE",
"48 634 OFFCURVE",
"48 500 CURVE SMOOTH",
"48 320 LINE",
"215 320 LINE",
"215 498 LINE SMOOTH",
"215 603 OFFCURVE",
"280 650 OFFCURVE",
"374 650 CURVE SMOOTH",
"493 650 OFFCURVE",
"545 615 OFFCURVE",
"545 504 CURVE SMOOTH",
"545 0 LINE",
"766 0 LINE",
"766 56 LINE",
"726 56 OFFCURVE",
"712 61 OFFCURVE",
"712 115 CURVE SMOOTH"
);
},
{
closed = 1;
nodes = (
"297 160 LINE",
"463 160 LINE",
"463 667 LINE",
"297 667 LINE"
);
}
);
width = 792;
},
{
layerId = "E7C4F5EE-4982-479C-BF20-1C8706EFFC5D";
paths = (
{
closed = 1;
nodes = (
"485 499 LINE SMOOTH",
"485 659 OFFCURVE",
"398 724 OFFCURVE",
"269 724 CURVE SMOOTH",
"116 724 OFFCURVE",
"51 627 OFFCURVE",
"51 510 CURVE SMOOTH",
"51 335 LINE",
"115 335 LINE",
"115 508 LINE SMOOTH",
"115 601 OFFCURVE",
"161 679 OFFCURVE",
"268 679 CURVE SMOOTH",
"364 679 OFFCURVE",
"421 634 OFFCURVE",
"421 504 CURVE SMOOTH",
"421 0 LINE",
"536 0 LINE",
"536 35 LINE",
"491 35 OFFCURVE",
"485 45 OFFCURVE",
"485 114 CURVE SMOOTH"
);
},
{
closed = 1;
nodes = (
"235 167 LINE",
"299 167 LINE",
"299 695 LINE",
"235 695 LINE"
);
}
);
width = 569;
},
{
layerId = "5E7C5774-385D-4E06-B68E-CBE970134A7B";
paths = (
{
closed = 1;
nodes = (
"622 494 LINE SMOOTH",
"622 657 OFFCURVE",
"511 724 OFFCURVE",
"345 724 CURVE SMOOTH",
"169 724 OFFCURVE",
"71 630 OFFCURVE",
"71 495 CURVE SMOOTH",
"71 321 LINE",
"135 321 LINE",
"135 501 LINE SMOOTH",
"135 608 OFFCURVE",
"207 688 OFFCURVE",
"347 688 CURVE SMOOTH",
"474 688 OFFCURVE",
"558 630 OFFCURVE",
"558 501 CURVE SMOOTH",
"558 0 LINE",
"676 0 LINE",
"676 28 LINE",
"628 28 OFFCURVE",
"622 39 OFFCURVE",
"622 109 CURVE SMOOTH"
);
},
{
closed = 1;
nodes = (
"314 174 LINE",
"378 174 LINE",
"378 695 LINE",
"314 695 LINE"
);
}
);
width = 725;
},
{
layerId = "C91144B6-58F5-45F2-9CE4-7ED6CE127FD4";
paths = (
{
closed = 1;
nodes = (
"405 500 LINE SMOOTH",
"405 659 OFFCURVE",
"335 724 OFFCURVE",
"232 724 CURVE SMOOTH",
"109 724 OFFCURVE",
"52 625 OFFCURVE",
"52 514 CURVE SMOOTH",
"52 340 LINE",
"80 340 LINE",
"80 512 LINE SMOOTH",
"80 600 OFFCURVE",
"119 699 OFFCURVE",
"231 699 CURVE SMOOTH",
"319 699 OFFCURVE",
"377 640 OFFCURVE",
"377 504 CURVE SMOOTH",
"377 0 LINE",
"455 0 LINE",
"455 20 LINE",
"409 20 OFFCURVE",
"405 31 OFFCURVE",
"405 105 CURVE SMOOTH"
);
},
{
closed = 1;
nodes = (
"214 170 LINE",
"242 170 LINE",
"242 705 LINE",
"214 705 LINE"
);
}
);
width = 491;
},
{
layerId = "464843EB-0DE3-43AD-A7A6-94A12FE2EFF4";
paths = (
{
closed = 1;
nodes = (
"617 497 LINE SMOOTH",
"617 660 OFFCURVE",
"504 724 OFFCURVE",
"330 724 CURVE SMOOTH",
"128 724 OFFCURVE",
"49 631 OFFCURVE",
"49 504 CURVE SMOOTH",
"49 326 LINE",
"173 326 LINE",
"173 502 LINE SMOOTH",
"173 602 OFFCURVE",
"230 662 OFFCURVE",
"329 662 CURVE SMOOTH",
"439 662 OFFCURVE",
"493 623 OFFCURVE",
"493 504 CURVE SMOOTH",
"493 0 LINE",
"669 0 LINE",
"669 47 LINE",
"627 47 OFFCURVE",
"617 54 OFFCURVE",
"617 115 CURVE SMOOTH"
);
},
{
closed = 1;
nodes = (
"271 163 LINE",
"394 163 LINE",
"394 679 LINE",
"271 679 LINE"
);
}
);
width = 698;
}
);
note = uni054A;
unicode = 054A;
},
